<svg width="24" height="24" viewBox="0 0 24 24" fill="none" xmlns="http://www.w3.org/2000/svg">
<path d="M9.41398 3.92733C9.41398 3.92733 5.82118 2.4717 4.28878 4.61614C2.75638 6.76058 1.07278 12.0467 4.28878 15.1103C7.50478 18.174 11.4564 21.0853 11.4564 21.0853C11.4564 21.0853 21.8292 15.8004 21.9816 10.3619C22.134 4.92335 19.6836 3.72933 17.5392 3.44492C15.3948 3.16051 13.3524 3.59012 11.9988 5.82697L9.41398 3.92733Z" fill="#FEE6E4"/>
<path d="M12 5.44171L11.4576 5.97572C11.5284 6.05012 11.6124 6.10892 11.7048 6.14972C11.7984 6.19053 11.898 6.21093 12 6.21093C12.102 6.21093 12.2016 6.19053 12.2952 6.14972C12.3888 6.10892 12.4728 6.05012 12.5424 5.97572L12 5.44171ZM6.97801 16.6451C6.82321 16.5155 6.62521 16.4531 6.42601 16.4735C6.22681 16.4927 6.04321 16.5935 5.91601 16.7507C5.78881 16.9079 5.72881 17.1119 5.74801 17.3147C5.76721 17.5175 5.86561 17.7047 6.01921 17.8356L6.97801 16.6451ZM2.29681 13.5587C2.34481 13.6475 2.40841 13.7255 2.48521 13.7891C2.56201 13.8527 2.65081 13.8995 2.74561 13.9283C2.84041 13.9571 2.94001 13.9655 3.03841 13.9547C3.13681 13.9439 3.23161 13.9127 3.31921 13.8647C3.40561 13.8167 3.48241 13.7507 3.54481 13.6715C3.60721 13.5923 3.65281 13.5023 3.68041 13.4051C3.70801 13.3079 3.71761 13.2059 3.70681 13.1063C3.69601 13.0055 3.66601 12.9083 3.61921 12.8195L2.29681 13.5587ZM2.70721 9.17378C2.70721 6.96814 3.92761 5.11771 5.59441 4.33889C7.21441 3.58288 9.39001 3.78328 11.4576 5.97572L12.5424 4.9101C10.0908 2.30725 7.24201 1.87764 4.96801 2.93966C2.74321 3.97888 1.20001 6.39093 1.20001 9.17378H2.70721ZM8.48041 19.8048C8.99521 20.2188 9.54841 20.6604 10.1076 20.9952C10.6668 21.3288 11.3064 21.6 11.9988 21.6V20.0616C11.6868 20.0616 11.322 19.938 10.8672 19.6668C10.4124 19.3956 9.94081 19.0224 9.41281 18.5964L8.48041 19.8048ZM15.5196 19.8048C16.9524 18.6504 18.7848 17.3291 20.2212 15.6767C21.6852 13.9943 22.8 11.9086 22.8 9.17378H21.2928C21.2928 11.4286 20.3892 13.1651 19.0944 14.6555C17.7732 16.1735 16.1088 17.3711 14.586 18.5964L15.5196 19.8048ZM22.8 9.17378C22.8 6.39213 21.258 3.97888 19.0332 2.93966C16.758 1.87764 13.9116 2.30725 11.4576 4.9089L12.5424 5.97572C14.61 3.78328 16.7856 3.58288 18.4056 4.33889C20.0724 5.11771 21.2928 6.96694 21.2928 9.17378H22.8ZM14.586 18.5964C14.058 19.0224 13.5864 19.3956 13.1316 19.6668C12.678 19.938 12.312 20.0616 12 20.0616V21.6C12.6936 21.6 13.332 21.3288 13.8912 20.9952C14.4516 20.6604 15.0048 20.22 15.5196 19.8048L14.586 18.5964ZM9.41281 18.5964C8.61361 17.9532 7.80121 17.3375 6.97801 16.6451L6.01921 17.8356C6.85321 18.5364 7.73521 19.2048 8.48041 19.8048L9.41281 18.5964ZM3.61921 12.8195C3.01441 11.7034 2.70001 10.4494 2.70721 9.17378H1.20001C1.20001 10.8538 1.62241 12.2974 2.29681 13.5587L3.61921 12.8195Z" fill="#B4807C"/>
</svg>
