<svg width="20" height="20" viewBox="0 0 20 20" fill="none" xmlns="http://www.w3.org/2000/svg">
<g clip-path="url(#clip0_832_54347)">
<path d="M2.19998 4.00001C2.19998 3.00589 3.00586 2.20001 3.99998 2.20001H16C16.9941 2.20001 17.8 3.00589 17.8 4.00001V16C17.8 16.9941 16.9941 17.8 16 17.8H3.99998C3.00586 17.8 2.19998 16.9941 2.19998 16V4.00001Z" fill="#EA867F" stroke="#EA867F" stroke-width="1.2"/>
<path d="M8.46962 11.8489L6.81271 10.1931C6.72343 10.1039 6.60234 10.0538 6.47607 10.0538C6.34981 10.0538 6.22872 10.1039 6.13944 10.1931C6.05016 10.2824 6 10.4034 6 10.5295C6 10.592 6.01231 10.6539 6.03624 10.7116C6.06016 10.7693 6.09523 10.8217 6.13944 10.8659L8.13538 12.8604C8.3216 13.0465 8.62242 13.0465 8.80865 12.8604L13.8606 7.81213C13.9498 7.72291 14 7.60191 14 7.47573C14 7.34956 13.9498 7.22856 13.8606 7.13934C13.7713 7.05012 13.6502 7 13.5239 7C13.3977 7 13.2766 7.05012 13.1873 7.13934L8.46962 11.8489Z" fill="white"/>
</g>
<defs>
<clipPath id="clip0_832_54347">
<rect width="20" height="20" fill="white"/>
</clipPath>
</defs>
</svg>
