<svg width="32" height="32" viewBox="0 0 32 32" fill="none" xmlns="http://www.w3.org/2000/svg">
<g clip-path="url(#clip0_5214_41025)">
<path d="M7 14.9902H23C23.5523 14.9902 24 15.4379 24 15.9902C24 16.5425 23.5523 16.9902 23 16.9902H7C6.44772 16.9902 6 16.5425 6 15.9902C6 15.4379 6.44772 14.9902 7 14.9902Z" fill="white"/>
<path d="M21.3914 19.5001C21.6414 19.5001 21.8914 19.4101 22.0814 19.2201L25.4414 16.0001L22.0814 12.7801C21.6814 12.4001 21.0514 12.4101 20.6714 12.8101C20.2914 13.2101 20.3014 13.8401 20.7014 14.2201L22.5514 16.0001L20.7014 17.7801C20.3014 18.1601 20.2914 18.8001 20.6714 19.1901C20.8714 19.3901 21.1314 19.5001 21.3914 19.5001Z" fill="white"/>
</g>
<defs>
<clipPath id="clip0_5214_41025">
<rect width="32" height="32" fill="white" transform="matrix(-1 0 0 1 32 0)"/>
</clipPath>
</defs>
</svg>
