<svg width="24" height="24" viewBox="0 0 24 24" fill="none" xmlns="http://www.w3.org/2000/svg">
<path d="M12 5.44253L11.4574 5.97598C11.5277 6.05045 11.612 6.10968 11.7052 6.15013C11.7984 6.19059 11.8987 6.21144 12 6.21144C12.1012 6.21144 12.2015 6.19059 12.2947 6.15013C12.3879 6.10968 12.4722 6.05045 12.5425 5.97598L12 5.44253ZM6.9777 16.645C6.82316 16.5153 6.62446 16.4535 6.42531 16.4733C6.22616 16.4931 6.04288 16.5929 5.91578 16.7507C5.78869 16.9085 5.72819 17.1114 5.74759 17.3148C5.767 17.5181 5.86472 17.7053 6.01926 17.835L6.9777 16.645ZM2.29703 13.5582C2.34453 13.6468 2.40866 13.7251 2.48576 13.7884C2.56286 13.8517 2.65142 13.8989 2.74639 13.9273C2.84136 13.9557 2.94088 13.9647 3.03926 13.9538C3.13764 13.943 3.23295 13.9124 3.31977 13.8639C3.40658 13.8154 3.48318 13.7499 3.54521 13.6712C3.60724 13.5925 3.65347 13.502 3.68127 13.405C3.70907 13.3081 3.7179 13.2065 3.70724 13.106C3.69658 13.0055 3.66665 12.9082 3.61915 12.8196L2.29703 13.5582ZM2.70693 9.17362C2.70693 6.968 3.92758 5.11733 5.5943 4.33869C7.21379 3.58262 9.38987 3.78267 11.4574 5.97598L12.5425 4.9101C10.0911 2.30747 7.24192 1.87763 4.96739 2.9394C2.7431 3.97861 1.19995 6.39146 1.19995 9.17362H2.70693ZM8.48066 19.8047C8.99604 20.2192 9.5486 20.6603 10.1082 20.9947C10.6678 21.3281 11.3067 21.6 12 21.6V20.0612C11.6885 20.0612 11.3228 19.9381 10.8687 19.6662C10.4136 19.3954 9.94243 19.022 9.41398 18.5962L8.48066 19.8047ZM15.5192 19.8047C16.9519 18.6506 18.7844 17.3293 20.221 15.6766C21.6848 13.9942 22.8 11.9086 22.8 9.17362H21.293C21.293 11.4285 20.3888 13.1653 19.0948 14.6548C17.7737 16.1731 16.109 17.3703 14.5859 18.5962L15.5192 19.8047ZM22.8 9.17362C22.8 6.39146 21.2578 3.97861 19.0325 2.9394C16.758 1.87763 13.9108 2.30747 11.4574 4.90908L12.5425 5.97598C14.61 3.78369 16.7861 3.58262 18.4056 4.33869C20.0723 5.11733 21.293 6.96697 21.293 9.17362H22.8ZM14.5859 18.5962C14.0575 19.022 13.5863 19.3954 13.1312 19.6662C12.6771 19.9371 12.3114 20.0612 12 20.0612V21.6C12.6932 21.6 13.3321 21.3281 13.8917 20.9947C14.4523 20.6603 15.0039 20.2192 15.5192 19.8047L14.5859 18.5962ZM9.41398 18.5962C8.61428 17.953 7.80151 17.3375 6.9777 16.645L6.01926 17.835C6.85312 18.5357 7.73521 19.2046 8.48066 19.8047L9.41398 18.5962ZM3.61915 12.8196C3.01396 11.7039 2.69983 10.449 2.70693 9.17362H1.19995C1.19995 10.854 1.6219 12.2974 2.29703 13.5582L3.61915 12.8196Z" fill="#CFCFCF"/>
</svg>
