<svg width="96" height="34" viewBox="0 0 96 34" fill="none" xmlns="http://www.w3.org/2000/svg">
<mask id="mask0_6430_52395" style="mask-type:luminance" maskUnits="userSpaceOnUse" x="6" y="7" width="84" height="20">
<path d="M6.67383 7.82031H89.3262V26.4553H6.67383V7.82031Z" fill="white"/>
</mask>
<g mask="url(#mask0_6430_52395)">
<path d="M36.8265 19.1164C38.0271 19.1156 39.1879 18.7498 40.0994 18.0852C41.0108 17.4206 41.6129 16.5008 41.7971 15.4919C42.1855 13.3887 40.2531 11.5528 37.5151 11.5528H33.1022C33.0195 11.5519 32.9391 11.5764 32.8759 11.6219C32.8128 11.6675 32.7711 11.7309 32.7587 11.8005L30.7919 22.4166C30.7848 22.4554 30.7877 22.495 30.8003 22.5328C30.8128 22.5705 30.8348 22.6055 30.8648 22.6354C30.8948 22.6652 30.9321 22.6892 30.974 22.7056C31.0158 22.7221 31.0614 22.7307 31.1076 22.7308H33.4428C33.5254 22.7315 33.6055 22.7068 33.6684 22.6613C33.7314 22.6158 33.7729 22.5525 33.7853 22.483L34.3638 19.3645C34.3763 19.295 34.4178 19.2315 34.4808 19.1859C34.5439 19.1403 34.6241 19.1156 34.7069 19.1164H36.8265ZM38.7808 15.3962C38.6364 16.1736 37.9298 16.7465 36.5776 16.7465H34.8478L35.3722 13.918H37.0705C38.4696 13.9206 38.9242 14.6221 38.7808 15.3983V15.3962ZM51.9145 14.8965H49.6973C49.6146 14.8957 49.5343 14.9203 49.4711 14.9659C49.4081 15.0113 49.3663 15.0747 49.3538 15.1443L49.2821 15.5355C49.2821 15.5355 47.5609 13.9371 44.5146 15.0168C42.767 15.6354 41.9286 16.9137 41.572 17.8495C41.572 17.8495 40.4383 20.6941 43.0011 22.2603C43.0011 22.2603 45.3766 23.7661 48.0523 22.1672L48.006 22.4166C47.9987 22.4554 48.0016 22.4951 48.0141 22.5329C48.0266 22.5706 48.0487 22.6057 48.0787 22.6355C48.1087 22.6654 48.1459 22.6893 48.1879 22.7058C48.2299 22.7222 48.2755 22.7308 48.3217 22.7308H50.5378C50.6206 22.7317 50.701 22.7071 50.7641 22.6616C50.8272 22.6161 50.8689 22.5527 50.8814 22.483L52.2297 15.2108C52.2368 15.1719 52.234 15.1323 52.2213 15.0945C52.2088 15.0568 52.1868 15.0218 52.1568 14.992C52.1268 14.9621 52.0895 14.9381 52.0477 14.9217C52.0058 14.9052 51.9606 14.8966 51.9145 14.8965ZM48.6548 18.9157C48.568 19.4224 48.2681 19.8851 47.8107 20.2181C47.3532 20.5511 46.7693 20.7316 46.1672 20.7262C45.9314 20.7286 45.6967 20.6992 45.4716 20.6395C44.5157 20.3786 43.9704 19.597 44.1273 18.7502C44.2141 18.2421 44.5153 17.7781 44.9746 17.445C45.434 17.1117 46.0201 16.9319 46.6238 16.9391C46.8598 16.937 47.0948 16.9667 47.3198 17.0264C48.2723 17.2864 48.8141 18.068 48.6572 18.9157H48.6548Z" fill="#003087"/>
<path d="M68.7492 19.1164C69.9505 19.1162 71.1121 18.7507 72.0244 18.0861C72.9367 17.4214 73.5396 16.5013 73.7243 15.4919C74.1121 13.3887 72.1803 11.5527 69.4413 11.5527H65.0298C64.9472 11.552 64.867 11.5767 64.804 11.6222C64.741 11.6677 64.6994 11.731 64.6868 11.8005L62.7141 22.4195C62.7029 22.478 62.7146 22.538 62.7474 22.5903C62.7803 22.6426 62.8324 22.6843 62.8959 22.7088C62.9378 22.7254 62.9835 22.7341 63.0297 22.7342H65.3654C65.4482 22.7349 65.5284 22.7101 65.5915 22.6646C65.6545 22.619 65.696 22.5556 65.7085 22.486L66.2876 19.3675C66.2998 19.2979 66.3413 19.2343 66.4045 19.1888C66.4675 19.1432 66.5479 19.1185 66.6307 19.1194L68.7492 19.1164ZM70.7035 15.3962C70.5591 16.1736 69.8526 16.7465 68.4998 16.7465H66.7705L67.2953 13.918H68.9937C70.3918 13.9205 70.8474 14.6221 70.7035 15.3983V15.3962ZM83.8367 14.8965H81.622C81.5394 14.8958 81.4592 14.9205 81.3962 14.9659C81.3332 15.0115 81.2915 15.0748 81.279 15.1443L81.2063 15.5355C81.2063 15.5355 79.4855 13.9371 76.4393 15.0168C74.6922 15.6354 73.8533 16.9137 73.4962 17.8495C73.4962 17.8495 72.363 20.6941 74.9253 22.2603C74.9253 22.2603 77.3013 23.766 79.977 22.1672L79.9307 22.4166C79.9194 22.4751 79.9311 22.5351 79.9639 22.5874C79.9968 22.6397 80.049 22.6813 80.1124 22.7058C80.1542 22.7227 80.2 22.7312 80.2463 22.7312H82.4625C82.5454 22.7322 82.6258 22.7076 82.6889 22.662C82.7521 22.6164 82.7935 22.5528 82.8056 22.483L84.1544 15.2107C84.161 15.1718 84.1579 15.1322 84.1452 15.0944C84.1325 15.0566 84.1105 15.0214 84.0807 14.9914C84.0507 14.9613 84.0133 14.9372 83.9712 14.9207C83.929 14.9044 83.8831 14.8961 83.8367 14.8965ZM80.5774 18.9157C80.4917 19.4228 80.192 19.886 79.7344 20.2192C79.2768 20.5523 78.6922 20.7325 78.0899 20.7262C77.8538 20.7287 77.6187 20.6993 77.3933 20.6395C76.4368 20.3786 75.8912 19.597 76.048 18.7502C76.1346 18.2434 76.4345 17.7805 76.8919 17.4475C77.3494 17.1144 77.9333 16.9338 78.5355 16.9391C78.772 16.937 79.007 16.9663 79.2321 17.0263C80.1945 17.2863 80.7378 18.068 80.58 18.9157H80.5774Z" fill="#0070E0"/>
<path d="M60.0509 15.0746L57.3786 18.9104L56.0228 15.103C56.0015 15.0425 55.9578 14.9895 55.8983 14.952C55.8387 14.9145 55.7664 14.8943 55.6922 14.8946H53.2814C53.2398 14.8939 53.1987 14.9018 53.1615 14.9176C53.1243 14.9334 53.0922 14.9567 53.0679 14.9854C53.0437 15.0141 53.0279 15.0473 53.0221 15.0824C53.0163 15.1174 53.0205 15.153 53.0344 15.1863L55.4642 21.5996L53.2669 24.622C53.2421 24.6552 53.2283 24.6936 53.227 24.733C53.2256 24.7723 53.2368 24.8113 53.2594 24.8458C53.2819 24.8802 53.3149 24.9088 53.355 24.9286C53.3951 24.9483 53.4407 24.9586 53.487 24.9581H56.0846C56.1589 24.9585 56.2319 24.9423 56.2966 24.9113C56.3614 24.8803 56.4154 24.8354 56.4535 24.7812L63.241 15.2321C63.2654 15.1987 63.2788 15.1604 63.2798 15.1212C63.2808 15.0819 63.2694 15.0431 63.2466 15.009C63.2239 14.9748 63.1908 14.9464 63.1507 14.9269C63.1106 14.9074 63.0651 14.8974 63.0189 14.898H60.4223C60.3476 14.8972 60.2741 14.9132 60.2089 14.9441C60.1437 14.9751 60.0893 15.0201 60.0509 15.0746Z" fill="#003087"/>
<path d="M86.3294 11.7965L84.3567 22.4156C84.3454 22.4741 84.3571 22.5341 84.3899 22.5864C84.4228 22.6387 84.475 22.6803 84.5384 22.7049C84.5803 22.7218 84.6261 22.7302 84.6724 22.7302H87.0074C87.0896 22.7311 87.1702 22.7065 87.2331 22.6608C87.296 22.6152 87.3379 22.5518 87.35 22.4821L89.3234 11.863C89.3306 11.8242 89.3282 11.7845 89.3153 11.7467C89.3032 11.7089 89.2807 11.6739 89.2508 11.6441C89.2202 11.6143 89.1831 11.5904 89.1412 11.5739C89.0993 11.5575 89.0541 11.5489 89.0074 11.5488H86.6728C86.5898 11.5481 86.51 11.5728 86.4463 11.6183C86.3834 11.6638 86.3423 11.7271 86.3294 11.7965Z" fill="#0070E0"/>
<path d="M24.1729 16.398C23.672 18.8263 21.3423 20.6618 18.2852 20.6618H16.3443C15.9485 20.6618 15.5497 20.9735 15.4865 21.3181L14.6365 25.906C14.5873 26.1672 14.4434 26.254 14.1322 26.254H11.0103C10.6946 26.254 10.6199 26.1643 10.6673 25.8996L11.0257 22.7269L7.27851 22.5621C6.96334 22.5621 6.84932 22.4161 6.89413 22.1485L9.45087 8.36175C9.50016 8.10049 9.69136 7.98828 10.0016 7.98828H16.4857C19.6072 7.98828 21.5819 9.77514 21.8233 12.0921C23.6805 13.1592 24.5483 14.5794 24.1729 16.398Z" fill="#001C64"/>
<path d="M11.9758 17.5917L11.0263 22.7292L10.4258 25.9523C10.4147 26.0144 10.4194 26.0779 10.4396 26.1383C10.4599 26.1988 10.4952 26.2548 10.5432 26.3026C10.5912 26.3504 10.6507 26.3889 10.7178 26.4154C10.7848 26.4419 10.8578 26.4558 10.9317 26.4562H14.2288C14.3793 26.456 14.5248 26.4102 14.6391 26.327C14.7535 26.2439 14.8292 26.1287 14.8527 26.0023L15.7205 21.3192C15.7441 21.1928 15.8199 21.0778 15.9342 20.9947C16.0486 20.9115 16.194 20.8658 16.3444 20.8657H18.2853C19.7642 20.8641 21.1937 20.4132 22.3162 19.5943C23.4388 18.7755 24.1804 17.6426 24.4075 16.3998C24.7436 14.5762 23.6646 12.9159 21.8179 12.0957C21.8137 12.29 21.7937 12.4838 21.7581 12.6758C21.5303 13.9179 20.7883 15.05 19.666 15.8682C18.5436 16.6864 17.1147 17.137 15.6364 17.1387H12.5992C12.4489 17.1388 12.3035 17.1844 12.1892 17.2674C12.0749 17.3505 11.9993 17.4655 11.9758 17.5917Z" fill="#0070E0"/>
<path d="M11.026 22.7283H7.18666C7.11259 22.728 7.03946 22.7141 6.97227 22.6876C6.90507 22.661 6.8454 22.6225 6.79729 22.5746C6.74919 22.5267 6.71379 22.4706 6.69351 22.41C6.67323 22.3494 6.66856 22.2858 6.67979 22.2236L9.2669 8.27423C9.29017 8.1478 9.36575 8.03261 9.48004 7.94938C9.59434 7.86617 9.73982 7.82039 9.89028 7.82031H16.4825C19.6039 7.82031 21.8734 9.75198 21.8201 12.0923C20.9893 11.7278 20.0667 11.5407 19.1319 11.5473H13.636C13.4855 11.5473 13.34 11.593 13.2255 11.6761C13.1111 11.7593 13.0352 11.8744 13.0116 12.0008L11.976 17.5909L11.026 22.7283Z" fill="#003087"/>
</g>
</svg>
