<svg width="18" height="18" viewBox="0 0 18 18" fill="none" xmlns="http://www.w3.org/2000/svg">
<path d="M13.6915 4.3158C13.6226 4.24676 13.5408 4.19199 13.4507 4.15462C13.3606 4.11725 13.2641 4.09801 13.1665 4.09801C13.069 4.09801 12.9724 4.11725 12.8823 4.15462C12.7922 4.19199 12.7104 4.24676 12.6415 4.3158L8.99991 7.94994L5.35832 4.30835C5.28937 4.2394 5.20752 4.18471 5.11744 4.1474C5.02736 4.11009 4.93081 4.09088 4.8333 4.09088C4.7358 4.09088 4.63925 4.11009 4.54917 4.1474C4.45909 4.18471 4.37723 4.2394 4.30829 4.30835C4.23934 4.3773 4.18465 4.45915 4.14734 4.54923C4.11003 4.63931 4.09082 4.73586 4.09082 4.83336C4.09082 4.93087 4.11003 5.02742 4.14734 5.1175C4.18465 5.20758 4.23934 5.28943 4.30829 5.35838L7.94988 8.99997L4.30829 12.6416C4.23934 12.7105 4.18465 12.7924 4.14734 12.8824C4.11003 12.9725 4.09082 13.0691 4.09082 13.1666C4.09082 13.2641 4.11003 13.3606 4.14734 13.4507C4.18465 13.5408 4.23934 13.6226 4.30829 13.6916C4.37723 13.7605 4.45909 13.8152 4.54917 13.8525C4.63925 13.8899 4.7358 13.9091 4.8333 13.9091C4.93081 13.9091 5.02736 13.8899 5.11744 13.8525C5.20752 13.8152 5.28937 13.7605 5.35832 13.6916L8.99991 10.05L12.6415 13.6916C12.7105 13.7605 12.7923 13.8152 12.8824 13.8525C12.9725 13.8899 13.069 13.9091 13.1665 13.9091C13.264 13.9091 13.3606 13.8899 13.4507 13.8525C13.5407 13.8152 13.6226 13.7605 13.6915 13.6916C13.7605 13.6226 13.8152 13.5408 13.8525 13.4507C13.8898 13.3606 13.909 13.2641 13.909 13.1666C13.909 13.0691 13.8898 12.9725 13.8525 12.8824C13.8152 12.7924 13.7605 12.7105 13.6915 12.6416L10.0499 8.99997L13.6915 5.35838C13.9745 5.07539 13.9745 4.59878 13.6915 4.3158Z" fill="white"/>
</svg>
