<svg width="32" height="32" viewBox="0 0 32 32" fill="none" xmlns="http://www.w3.org/2000/svg">
<path d="M16 6.63218L15.2537 7.39426C15.3504 7.50064 15.4663 7.58525 15.5946 7.64305C15.7228 7.70084 15.8607 7.73063 16 7.73063C16.1394 7.73063 16.2773 7.70084 16.4055 7.64305C16.5337 7.58525 16.6496 7.50064 16.7463 7.39426L16 6.63218ZM9.09111 22.6358C8.87851 22.4504 8.60517 22.3621 8.33121 22.3904C8.05725 22.4187 7.80511 22.5613 7.63027 22.7867C7.45543 23.0122 7.3722 23.302 7.3989 23.5925C7.42559 23.883 7.56003 24.1504 7.77262 24.3358L9.09111 22.6358ZM2.65209 18.226C2.71743 18.3526 2.80565 18.4644 2.91172 18.5549C3.01778 18.6453 3.13962 18.7128 3.27026 18.7533C3.40091 18.7939 3.53781 18.8068 3.67315 18.7912C3.80848 18.7757 3.93961 18.732 4.05903 18.6627C4.17845 18.5934 4.28384 18.4999 4.36917 18.3874C4.4545 18.2749 4.5181 18.1457 4.55634 18.0072C4.59459 17.8687 4.60672 17.7235 4.59206 17.58C4.5774 17.4365 4.53622 17.2974 4.47088 17.1708L2.65209 18.226ZM3.21597 11.9623C3.21597 8.81143 4.89518 6.16761 7.18801 5.05527C9.41589 3.97518 12.4094 4.26096 15.2537 7.39426L16.7463 5.87157C13.3741 2.15352 9.45459 1.53947 6.32561 3.05629C3.26573 4.54087 1.14288 7.9878 1.14288 11.9623H3.21597ZM11.1587 27.1496C11.8677 27.7417 12.6278 28.3719 13.3976 28.8496C14.1674 29.3259 15.0464 29.7143 16 29.7143V27.516C15.5716 27.516 15.0685 27.3401 14.4438 26.9518C13.8178 26.5649 13.1696 26.0314 12.4426 25.4232L11.1587 27.1496ZM20.8414 27.1496C22.8122 25.5009 25.3331 23.6133 27.3094 21.2523C29.3231 18.8488 30.8572 15.8694 30.8572 11.9623H28.7841C28.7841 15.1836 27.5402 17.6647 25.7601 19.7926C23.9427 21.9616 21.6526 23.6719 19.5574 25.4232L20.8414 27.1496ZM30.8572 11.9623C30.8572 7.9878 28.7357 4.54087 25.6744 3.05629C22.5455 1.53947 18.6287 2.15352 15.2537 5.87011L16.7463 7.39426C19.5906 4.26242 22.5842 3.97518 24.812 5.05527C27.1049 6.16761 28.7841 8.80996 28.7841 11.9623H30.8572ZM19.5574 25.4232C18.8305 26.0314 18.1823 26.5649 17.5562 26.9518C16.9315 27.3387 16.4285 27.516 16 27.516V29.7143C16.9536 29.7143 17.8326 29.3259 18.6024 28.8496C19.3736 28.3719 20.1324 27.7417 20.8414 27.1496L19.5574 25.4232ZM12.4426 25.4232C11.3425 24.5043 10.2244 23.625 9.09111 22.6358L7.77262 24.3358C8.91973 25.3367 10.1332 26.2923 11.1587 27.1496L12.4426 25.4232ZM4.47088 17.1708C3.63834 15.5769 3.20621 13.7843 3.21597 11.9623H1.14288C1.14288 14.3629 1.72335 16.4249 2.65209 18.226L4.47088 17.1708Z" fill="#888888"/>
</svg>
