<svg width="24" height="24" viewBox="0 0 24 24" fill="none" xmlns="http://www.w3.org/2000/svg">
<path d="M2.15381 8.35583H22L20.9642 19.7438C20.9082 20.3602 20.6238 20.9333 20.1669 21.3508C19.71 21.7682 19.1135 21.9998 18.4946 22.0001H5.65913C5.04023 21.9998 4.44377 21.7682 3.98684 21.3508C3.52992 20.9333 3.24554 20.3602 3.18953 19.7438L2.15381 8.35583Z" fill="#FEE6E4" stroke="#9D9D9D" stroke-width="1.5" stroke-linejoin="round"/>
<path d="M7.11523 10.8365V7.11537C7.11523 5.79949 7.63797 4.53751 8.56843 3.60704C9.4989 2.67657 10.7609 2.15384 12.0768 2.15384C13.3927 2.15384 14.6546 2.67657 15.5851 3.60704C16.5156 4.53751 17.0383 5.79949 17.0383 7.11537V10.8365" stroke="#9D9D9D" stroke-width="1.5" stroke-linecap="round"/>
</svg>
