<svg width="32" height="32" viewBox="0 0 32 32" fill="none" xmlns="http://www.w3.org/2000/svg">
<path d="M5.00012 11.875H26.9999L25.8518 24.4987C25.7897 25.182 25.4745 25.8174 24.9679 26.2801C24.4614 26.7429 23.8003 26.9996 23.1142 26.9998H8.88583C8.19977 26.9996 7.53858 26.7429 7.03207 26.2801C6.52557 25.8174 6.21032 25.182 6.14824 24.4987L5.00012 11.875Z" stroke="#212121" stroke-width="1.6" stroke-linejoin="round"/>
<path d="M10.5001 14.6249V10.4999C10.5001 9.04127 11.0795 7.64234 12.111 6.6109C13.1424 5.57946 14.5414 5 16 5C17.4587 5 18.8576 5.57946 19.8891 6.6109C20.9205 7.64234 21.5 9.04127 21.5 10.4999V14.6249" stroke="#212121" stroke-width="1.6" stroke-linecap="round"/>
</svg>
