<svg width="24" height="24" viewBox="0 0 24 24" fill="none" xmlns="http://www.w3.org/2000/svg">
<path d="M2.15387 8.35583H22L20.9643 19.7438C20.9083 20.3602 20.6239 20.9333 20.167 21.3508C19.7101 21.7682 19.1136 21.9998 18.4947 22.0001H5.65919C5.04029 21.9998 4.44383 21.7682 3.98691 21.3508C3.52998 20.9333 3.2456 20.3602 3.18959 19.7438L2.15387 8.35583Z" fill="#FEE6E4" stroke="#B4807C" stroke-width="1.5" stroke-linejoin="round"/>
<path d="M7.11542 10.8366V7.11541C7.11542 5.79952 7.63815 4.53754 8.56862 3.60707C9.49909 2.6766 10.7611 2.15387 12.077 2.15387C13.3928 2.15387 14.6548 2.6766 15.5853 3.60707C16.5158 4.53754 17.0385 5.79952 17.0385 7.11541V10.8366" stroke="#B4807C" stroke-width="1.5" stroke-linecap="round"/>
</svg>
