<svg width="24" height="24" viewBox="0 0 24 24" fill="none" xmlns="http://www.w3.org/2000/svg">
<path d="M2.15381 8.35583H22L20.9642 19.7438C20.9082 20.3602 20.6238 20.9333 20.1669 21.3508C19.71 21.7682 19.1135 21.9998 18.4946 22.0001H5.65913C5.04023 21.9998 4.44377 21.7682 3.98684 21.3508C3.52992 20.9333 3.24554 20.3602 3.18953 19.7438L2.15381 8.35583Z" stroke="#CFCFCF" stroke-width="1.5" stroke-linejoin="round"/>
<path d="M7.11536 10.8365V7.11537C7.11536 5.79949 7.63809 4.53751 8.56856 3.60704C9.49902 2.67657 10.761 2.15384 12.0769 2.15384C13.3928 2.15384 14.6548 2.67657 15.5852 3.60704C16.5157 4.53751 17.0384 5.79949 17.0384 7.11537V10.8365" stroke="#CFCFCF" stroke-width="1.5" stroke-linecap="round"/>
</svg>
