<svg width="24" height="24" viewBox="0 0 24 24" fill="none" xmlns="http://www.w3.org/2000/svg">
<path d="M9.41404 3.9273C9.41404 3.9273 5.82124 2.47167 4.28884 4.61611C2.75644 6.76055 1.07284 12.0467 4.28884 15.1103C7.50484 18.174 11.4564 21.0852 11.4564 21.0852C11.4564 21.0852 21.8292 15.8003 21.9816 10.3618C22.134 4.92332 19.6836 3.7293 17.5392 3.44489C15.3948 3.16048 13.3524 3.59009 11.9988 5.82694L9.41404 3.9273Z" fill="#FEE6E4"/>
<path d="M12 5.44168L11.4576 5.97569C11.5284 6.05009 11.6124 6.10889 11.7048 6.14969C11.7984 6.1905 11.898 6.2109 12 6.2109C12.102 6.2109 12.2016 6.1905 12.2952 6.14969C12.3888 6.10889 12.4728 6.05009 12.5424 5.97569L12 5.44168ZM6.97795 16.6451C6.82315 16.5155 6.62515 16.4531 6.42595 16.4735C6.22675 16.4927 6.04315 16.5935 5.91595 16.7507C5.78875 16.9079 5.72875 17.1119 5.74795 17.3147C5.76715 17.5175 5.86555 17.7047 6.01915 17.8355L6.97795 16.6451ZM2.29675 13.5586C2.34475 13.6474 2.40835 13.7254 2.48515 13.789C2.56195 13.8526 2.65075 13.8994 2.74555 13.9282C2.84035 13.957 2.93995 13.9654 3.03835 13.9546C3.13675 13.9438 3.23155 13.9126 3.31915 13.8646C3.40555 13.8166 3.48235 13.7506 3.54475 13.6714C3.60715 13.5922 3.65275 13.5022 3.68035 13.405C3.70795 13.3078 3.71755 13.2058 3.70675 13.1062C3.69595 13.0054 3.66595 12.9082 3.61915 12.8194L2.29675 13.5586ZM2.70715 9.17375C2.70715 6.96811 3.92755 5.11767 5.59435 4.33886C7.21435 3.58284 9.38995 3.78325 11.4576 5.97569L12.5424 4.91007C10.0908 2.30722 7.24195 1.87761 4.96795 2.93963C2.74315 3.97885 1.19995 6.3909 1.19995 9.17375H2.70715ZM8.48035 19.8048C8.99515 20.2188 9.54835 20.6604 10.1076 20.9952C10.6668 21.3288 11.3064 21.6 11.9988 21.6V20.0616C11.6868 20.0616 11.322 19.938 10.8672 19.6668C10.4124 19.3956 9.94075 19.0223 9.41275 18.5963L8.48035 19.8048ZM15.5196 19.8048C16.9524 18.6503 18.7848 17.3291 20.2212 15.6767C21.6852 13.9942 22.8 11.9086 22.8 9.17375H21.2928C21.2928 11.4286 20.3892 13.165 19.0944 14.6555C17.7732 16.1735 16.1088 17.3711 14.586 18.5963L15.5196 19.8048ZM22.8 9.17375C22.8 6.3921 21.258 3.97885 19.0332 2.93963C16.758 1.87761 13.9116 2.30722 11.4576 4.90887L12.5424 5.97569C14.61 3.78325 16.7856 3.58284 18.4056 4.33886C20.0724 5.11767 21.2928 6.96691 21.2928 9.17375H22.8ZM14.586 18.5963C14.058 19.0223 13.5864 19.3956 13.1316 19.6668C12.678 19.938 12.312 20.0616 12 20.0616V21.6C12.6936 21.6 13.332 21.3288 13.8912 20.9952C14.4516 20.6604 15.0048 20.22 15.5196 19.8048L14.586 18.5963ZM9.41275 18.5963C8.61355 17.9531 7.80115 17.3375 6.97795 16.6451L6.01915 17.8355C6.85315 18.5363 7.73515 19.2047 8.48035 19.8048L9.41275 18.5963ZM3.61915 12.8194C3.01435 11.7034 2.69995 10.4494 2.70715 9.17375H1.19995C1.19995 10.8538 1.62235 12.2974 2.29675 13.5586L3.61915 12.8194Z" fill="#9D9D9D"/>
</svg>
