<svg width="20" height="20" viewBox="0 0 20 20" fill="none" xmlns="http://www.w3.org/2000/svg">
<g clip-path="url(#clip0_835_110726)">
<path d="M15.2129 4.79536C15.1363 4.71865 15.0454 4.6578 14.9453 4.61628C14.8452 4.57475 14.7379 4.55338 14.6295 4.55338C14.5212 4.55338 14.4139 4.57475 14.3138 4.61628C14.2137 4.6578 14.1228 4.71865 14.0462 4.79536L9.99999 8.8333L5.95377 4.78709C5.87717 4.71048 5.78622 4.64971 5.68613 4.60825C5.58604 4.56679 5.47876 4.54546 5.37042 4.54546C5.26208 4.54546 5.15481 4.56679 5.05472 4.60825C4.95462 4.64971 4.86368 4.71048 4.78707 4.78709C4.71047 4.86369 4.6497 4.95464 4.60824 5.05473C4.56678 5.15482 4.54544 5.2621 4.54544 5.37044C4.54544 5.47878 4.56678 5.58605 4.60824 5.68614C4.6497 5.78624 4.71047 5.87718 4.78707 5.95379L8.83329 10L4.78707 14.0462C4.71047 14.1228 4.6497 14.2138 4.60824 14.3139C4.56678 14.414 4.54544 14.5212 4.54544 14.6296C4.54544 14.7379 4.56678 14.8452 4.60824 14.9453C4.6497 15.0454 4.71047 15.1363 4.78707 15.2129C4.86368 15.2895 4.95462 15.3503 5.05472 15.3917C5.15481 15.4332 5.26208 15.4545 5.37042 15.4545C5.47876 15.4545 5.58604 15.4332 5.68613 15.3917C5.78622 15.3503 5.87717 15.2895 5.95377 15.2129L9.99999 11.1667L14.0462 15.2129C14.1228 15.2895 14.2138 15.3503 14.3138 15.3917C14.4139 15.4332 14.5212 15.4545 14.6295 15.4545C14.7379 15.4545 14.8452 15.4332 14.9453 15.3917C15.0453 15.3503 15.1363 15.2895 15.2129 15.2129C15.2895 15.1363 15.3503 15.0454 15.3917 14.9453C15.4332 14.8452 15.4545 14.7379 15.4545 14.6296C15.4545 14.5212 15.4332 14.414 15.3917 14.3139C15.3503 14.2138 15.2895 14.1228 15.2129 14.0462L11.1667 10L15.2129 5.95379C15.5273 5.63936 15.5273 5.10979 15.2129 4.79536Z" fill="#9D9D9D"/>
</g>
<defs>
<clipPath id="clip0_835_110726">
<rect width="20" height="20" rx="10" fill="white"/>
</clipPath>
</defs>
</svg>
