<svg width="96" height="34" viewBox="0 0 96 34" fill="none" xmlns="http://www.w3.org/2000/svg">
<g clip-path="url(#clip0_6430_52385)">
<path d="M79.0389 33.5342H16.6512C7.45433 33.5342 0 26.028 0 16.7671C0 7.5062 7.45433 0 16.6512 0H79.0389C88.2358 0 95.6901 7.5062 95.6901 16.7671C95.6961 26.0219 88.2358 33.5342 79.0389 33.5342Z" fill="#B2FCE4"/>
<path d="M81.5601 13.0669L79.4666 11.8606L77.3428 10.6359C75.9391 9.82559 74.1844 10.8431 74.1844 12.4759V12.7501C74.1844 12.9024 74.2631 13.0425 74.3962 13.1156L75.3825 13.6823C75.6547 13.8407 75.9936 13.6396 75.9936 13.3228V12.6709C75.9936 12.348 76.3384 12.1469 76.6168 12.3053L78.553 13.4264L80.4831 14.5413C80.7614 14.6997 80.7614 15.108 80.4831 15.2664L78.553 16.3813L76.6168 17.5024C76.3384 17.6608 75.9936 17.4597 75.9936 17.1368V16.8139C75.9936 15.1811 74.2389 14.1575 72.8352 14.9739L70.7114 16.1986L68.6179 17.4049C67.2081 18.2213 67.2081 20.2746 68.6179 21.091L70.7114 22.2973L72.8352 23.522C74.2389 24.3323 75.9936 23.3148 75.9936 21.682V21.4078C75.9936 21.2555 75.9149 21.1154 75.7818 21.0422L74.7955 20.4756C74.5233 20.3172 74.1844 20.5183 74.1844 20.8351V21.487C74.1844 21.8099 73.8396 22.011 73.5612 21.8526L71.625 20.7315L69.6949 19.6166C69.4166 19.4581 69.4166 19.0499 69.6949 18.8915L71.625 17.7766L73.5612 16.6555C73.8396 16.4971 74.1844 16.6982 74.1844 17.0211V17.344C74.1844 18.9768 75.9391 20.0004 77.3428 19.184L79.4666 17.9593L81.5601 16.753C82.9699 15.9305 82.9699 13.8833 81.5601 13.0669Z" fill="black"/>
<path d="M67.8217 13.4688L62.9208 23.6618H60.8878L62.7211 19.8539L59.835 13.4688H61.9224L63.7739 17.7458L65.7948 13.4688H67.8217Z" fill="black"/>
<path d="M18.8174 17.0888C18.8174 15.8703 17.9401 15.0173 16.8631 15.0173C15.7861 15.0173 14.9087 15.8885 14.9087 17.0888C14.9087 18.2769 15.7861 19.1603 16.8631 19.1603C17.9401 19.1603 18.8174 18.3073 18.8174 17.0888ZM18.8356 20.7079V19.7696C18.3031 20.4215 17.5105 20.8236 16.5666 20.8236C14.5941 20.8236 13.0996 19.2334 13.0996 17.0888C13.0996 14.9625 14.6546 13.3418 16.609 13.3418C17.5286 13.3418 18.3031 13.75 18.8356 14.3836V13.4697H20.6023V20.7079H18.8356Z" fill="black"/>
<path d="M29.1942 19.0985C28.577 19.0985 28.4015 18.867 28.4015 18.2577V15.0469H29.539V13.4689H28.4015V11.702H26.5924V13.4689H24.2569V12.7499C24.2569 12.1407 24.4868 11.9091 25.1221 11.9091H25.5215V10.5078H24.6502C23.1557 10.5078 22.4478 11.0013 22.4478 12.5062V13.475H21.4434V15.0469H22.4478V20.707H24.2569V15.0469H26.5924V18.5928C26.5924 20.0673 27.1551 20.707 28.6194 20.707H29.5512V19.0985H29.1942Z" fill="black"/>
<path d="M35.6912 16.4371C35.5641 15.4988 34.8018 14.9322 33.9063 14.9322C33.0168 14.9322 32.2787 15.4806 32.0971 16.4371H35.6912ZM32.079 17.5643C32.2061 18.6366 32.9684 19.2459 33.9365 19.2459C34.6989 19.2459 35.2858 18.8864 35.6307 18.3076H37.4882C37.0586 19.8429 35.6912 20.8239 33.8942 20.8239C31.722 20.8239 30.1973 19.2885 30.1973 17.1012C30.1973 14.9139 31.8067 13.3359 33.9365 13.3359C36.0784 13.3359 37.6334 14.9261 37.6334 17.1012C37.6334 17.2596 37.6213 17.418 37.5911 17.5643H32.079Z" fill="black"/>
<path d="M49.1545 17.089C49.1545 15.9192 48.2772 15.0175 47.2002 15.0175C46.1232 15.0175 45.2459 15.8888 45.2459 17.089C45.2459 18.2771 46.1232 19.1606 47.2002 19.1606C48.2772 19.1606 49.1545 18.2649 49.1545 17.089ZM43.4609 23.6631V13.47H45.2277V14.4083C45.7602 13.7441 46.5528 13.3359 47.4967 13.3359C49.4389 13.3359 50.9637 14.9444 50.9637 17.0708C50.9637 19.1971 49.4087 20.8178 47.4543 20.8178C46.5467 20.8178 45.8025 20.4583 45.2822 19.849V23.657H43.4609V23.6631Z" fill="black"/>
<path d="M57.3369 17.0888C57.3369 15.8703 56.4596 15.0173 55.3826 15.0173C54.3056 15.0173 53.4283 15.8885 53.4283 17.0888C53.4283 18.2769 54.3056 19.1603 55.3826 19.1603C56.4596 19.1603 57.3369 18.3073 57.3369 17.0888ZM57.3551 20.7079V19.7696C56.8226 20.4215 56.03 20.8236 55.0861 20.8236C53.1136 20.8236 51.6191 19.2334 51.6191 17.0888C51.6191 14.9625 53.1741 13.3418 55.1285 13.3418C56.0482 13.3418 56.8226 13.75 57.3551 14.3836V13.4697H59.1219V20.7079H57.3551Z" fill="black"/>
<path d="M40.2738 14.1767C40.2738 14.1767 40.7215 13.3359 41.8288 13.3359C42.3007 13.3359 42.6033 13.5004 42.6033 13.5004V15.3465C42.6033 15.3465 41.9377 14.9322 41.3266 15.0175C40.7155 15.1028 40.3283 15.6633 40.3283 16.4188V20.702H38.501V13.47H40.2677V14.1767H40.2738Z" fill="black"/>
</g>
<defs>
<clipPath id="clip0_6430_52385">
<rect width="96" height="34" fill="white"/>
</clipPath>
</defs>
</svg>
