<svg width="26" height="26" viewBox="0 0 26 26" fill="none" xmlns="http://www.w3.org/2000/svg">
<path d="M13 5C14.0609 5 15.0783 5.42143 15.8284 6.17157C16.5786 6.92172 17 7.93913 17 9C17 10.0609 16.5786 11.0783 15.8284 11.8284C15.0783 12.5786 14.0609 13 13 13C11.9391 13 10.9217 12.5786 10.1716 11.8284C9.42143 11.0783 9 10.0609 9 9C9 7.93913 9.42143 6.92172 10.1716 6.17157C10.9217 5.42143 11.9391 5 13 5ZM13 15C17.42 15 21 16.79 21 19V21H5V19C5 16.79 8.58 15 13 15Z" stroke="#212121" stroke-width="1.2"/>
</svg>
