<svg width="48" height="48" viewBox="0 0 48 48" fill="none" xmlns="http://www.w3.org/2000/svg">
<path d="M6.29475 25.95L6.1425 27.1095" stroke="#71A20B" stroke-width="1.2" stroke-linecap="round" stroke-linejoin="round"/>
<path d="M5.8875 29.097L5.73525 30.2565" stroke="#71A20B" stroke-width="1.2" stroke-linecap="round" stroke-linejoin="round"/>
<path d="M8.16825 28.383L7.00875 28.2307" stroke="#71A20B" stroke-width="1.2" stroke-linecap="round" stroke-linejoin="round"/>
<path d="M5.02125 27.9757L3.861 27.8235" stroke="#71A20B" stroke-width="1.2" stroke-linecap="round" stroke-linejoin="round"/>
<path d="M41.8777 17.9535L41.7255 19.113" stroke="#71A20B" stroke-width="1.2" stroke-linecap="round" stroke-linejoin="round"/>
<path d="M41.4705 21.1005L41.3183 22.2607" stroke="#71A20B" stroke-width="1.2" stroke-linecap="round" stroke-linejoin="round"/>
<path d="M43.7512 20.3865L42.5918 20.2343" stroke="#71A20B" stroke-width="1.2" stroke-linecap="round" stroke-linejoin="round"/>
<path d="M40.6042 19.9792L39.4447 19.827" stroke="#71A20B" stroke-width="1.2" stroke-linecap="round" stroke-linejoin="round"/>
<path d="M10.0943 29.85C11.444 31.8385 13.1324 33.5746 15.0825 34.9792C15.0443 33.2542 15.1317 31.5286 15.3443 29.8163L13.305 21.45L15.3443 29.814C15.7246 26.1973 16.8941 22.7083 18.7703 19.593C17.0572 16.8927 14.7532 14.6167 12.0323 12.9367C11.8614 12.8376 11.6589 12.808 11.4669 12.8542C11.2748 12.9005 11.108 13.0189 11.001 13.185C9.942 14.9565 7.19025 20.2125 8.2425 25.4437" stroke="#71A20B" stroke-width="1.5" stroke-linecap="round" stroke-linejoin="round"/>
<path d="M39.2062 16.545C39.4242 14.475 39.4551 12.3896 39.2985 10.314C39.2883 10.1678 39.2206 10.0317 39.1103 9.93524C39 9.83883 38.856 9.79003 38.7097 9.7995C36.2767 9.9255 26.1457 10.8495 20.3385 17.4893C19.7635 18.1487 19.2393 18.8507 18.7702 19.5893" stroke="#71A20B" stroke-width="1.5" stroke-linecap="round" stroke-linejoin="round"/>
<path d="M15.0825 34.9763C15.0998 35.7263 15.138 36.3263 15.1703 36.723C15.1805 36.8692 15.2481 37.0053 15.3584 37.1018C15.4688 37.1982 15.6128 37.247 15.759 37.2375C18.1928 37.1115 28.323 36.1875 34.134 29.5478C35.9094 27.4568 37.2334 25.0213 38.0228 22.3943" stroke="#71A20B" stroke-width="1.5" stroke-linecap="round" stroke-linejoin="round"/>
<path d="M11.9062 40.7513L27.6968 22.6583" stroke="#71A20B" stroke-width="1.5" stroke-linecap="round" stroke-linejoin="round"/>
</svg>
