<svg width="48" height="48" viewBox="0 0 48 48" fill="none" xmlns="http://www.w3.org/2000/svg">
<rect width="48" height="48" rx="24" fill="#EA867F"/>
<path d="M23.3461 13.5385C24.6467 13.5385 25.894 14.0551 26.8137 14.9748C27.7333 15.8944 28.25 17.1417 28.25 18.4423C28.25 19.7429 27.7333 20.9902 26.8137 21.9098C25.894 22.8295 24.6467 23.3461 23.3461 23.3461C22.0456 23.3461 20.7983 22.8295 19.8786 21.9098C18.959 20.9902 18.4423 19.7429 18.4423 18.4423C18.4423 17.1417 18.959 15.8944 19.8786 14.9748C20.7983 14.0551 22.0456 13.5385 23.3461 13.5385ZM23.3461 25.7981C28.7649 25.7981 33.1538 27.9925 33.1538 30.7019V33.1538H13.5385V30.7019C13.5385 27.9925 17.9274 25.7981 23.3461 25.7981Z" stroke="white" stroke-width="1.96154"/>
</svg>
