<svg width="48" height="48" viewBox="0 0 48 48" fill="none" xmlns="http://www.w3.org/2000/svg">
<rect x="1" y="1" width="46" height="46" rx="23" fill="white"/>
<rect x="1" y="1" width="46" height="46" rx="23" stroke="#BBBBBB" stroke-width="2"/>
<path d="M13.5385 19.6898H33.2226L32.1954 30.9848C32.1398 31.5961 31.8578 32.1646 31.4046 32.5787C30.9514 32.9927 30.3598 33.2224 29.7459 33.2226H17.0152C16.4013 33.2224 15.8097 32.9927 15.3565 32.5787C14.9033 32.1646 14.6213 31.5961 14.5657 30.9848L13.5385 19.6898Z" stroke="#BBBBBB" stroke-width="1.96154" stroke-linejoin="round"/>
<path d="M18.4595 22.1502V18.4594C18.4595 17.1543 18.978 15.9026 19.9009 14.9797C20.8238 14.0569 22.0754 13.5384 23.3806 13.5384C24.6857 13.5384 25.9374 14.0569 26.8603 14.9797C27.7832 15.9026 28.3016 17.1543 28.3016 18.4594V22.1502" stroke="#BBBBBB" stroke-width="1.96154" stroke-linecap="round"/>
</svg>
