<svg width="48" height="48" viewBox="0 0 48 48" fill="none" xmlns="http://www.w3.org/2000/svg">
<rect width="48" height="48" rx="24" fill="white"/>
<path d="M23.5 11C25.1576 11 26.7473 11.6585 27.9194 12.8306C29.0915 14.0027 29.75 15.5924 29.75 17.25C29.75 18.9076 29.0915 20.4973 27.9194 21.6694C26.7473 22.8415 25.1576 23.5 23.5 23.5C21.8424 23.5 20.2527 22.8415 19.0806 21.6694C17.9085 20.4973 17.25 18.9076 17.25 17.25C17.25 15.5924 17.9085 14.0027 19.0806 12.8306C20.2527 11.6585 21.8424 11 23.5 11ZM23.5 26.625C30.4063 26.625 36 29.4219 36 32.875V36H11V32.875C11 29.4219 16.5937 26.625 23.5 26.625Z" stroke="#9CB070" stroke-width="2.5"/>
</svg>
