<svg width="64" height="64" viewBox="0 0 64 64" fill="none" xmlns="http://www.w3.org/2000/svg">
<path d="M32.046 38.2787C31.739 38.2787 31.432 38.1818 31.1779 37.9879C29.0392 36.3615 22.0513 30.4913 22.0513 23.2747C22.0513 16.0581 29.0392 10.1879 31.1779 8.56149C31.6755 8.1845 32.406 8.1845 32.9142 8.56149C35.0529 10.1879 42.0513 16.0581 42.0513 23.2747C42.0513 30.4913 35.0635 36.3615 32.9248 37.9879C32.6707 38.1818 32.3637 38.2787 32.0566 38.2787H32.046ZM32.0566 9.91864C30.4685 11.1358 23.6501 16.7582 23.6501 23.2747C23.6501 29.7912 30.4685 35.4137 32.0566 36.6308C33.6448 35.4137 40.4632 29.7912 40.4632 23.2747C40.4632 16.7582 33.6448 11.1358 32.0566 9.91864Z" fill="#9CB070"/>
<path d="M28.6149 51.2787C26.3919 51.2787 23.4422 51.0552 20.5351 50.1608C20.1076 50.033 19.8725 49.5859 20.0008 49.16C20.129 48.7341 20.5779 48.4999 21.0054 48.6276C25.3018 49.9372 29.8226 49.6923 31.3189 49.5539C31.5219 47.4245 32.0777 38.3106 27.0759 33.3064C22.0848 28.3023 12.9363 28.7921 10.7881 28.9837C10.6171 30.7511 10.2965 36.1918 12.2309 40.9085C12.4019 41.3131 12.1989 41.7815 11.7927 41.9519C11.3866 42.1222 10.9164 41.9199 10.7454 41.5154C8.61855 36.3302 9.02467 30.3785 9.20636 28.6856C9.28118 28.0148 9.81555 27.4825 10.4889 27.4186C13.2569 27.1524 22.7261 26.6946 28.2088 32.1885C33.6915 37.6824 33.1785 47.1157 32.8899 49.8733C32.8151 50.5441 32.2807 51.0765 31.6074 51.1403C30.9448 51.2042 29.8974 51.2787 28.6149 51.2787Z" fill="#9CB070"/>
<path d="M32.0513 55.2787C31.5047 55.2787 31.0513 54.9249 31.0513 54.4982V22.0593C31.0513 21.6326 31.5047 21.2787 32.0513 21.2787C32.598 21.2787 33.0513 21.6326 33.0513 22.0593V54.4982C33.0513 54.9249 32.598 55.2787 32.0513 55.2787Z" fill="#9CB070"/>
<path d="M32.2483 51.2679C32.0465 51.2679 31.8448 51.1922 31.6961 51.0407L20.2916 39.6703C19.973 39.3566 19.973 38.8481 20.281 38.5235C20.5889 38.199 21.088 38.199 21.4066 38.5127L32.8111 49.8831C33.1296 50.1969 33.1296 50.7054 32.8217 51.0299C32.6624 51.1922 32.4606 51.2787 32.2483 51.2787V51.2679Z" fill="#9CB070"/>
<path d="M35.5293 51.2681C34.2258 51.2681 33.168 51.1936 32.4948 51.1298C31.8217 51.0659 31.2875 50.5339 31.2127 49.8636C30.9242 47.1077 30.4113 37.6909 35.8926 32.1899C41.3738 26.6994 50.8405 27.1463 53.6078 27.4229C54.281 27.4868 54.8152 28.0188 54.89 28.6892C55.1785 31.445 55.6913 40.8724 50.2101 46.3629C46.0537 50.5339 39.6002 51.2787 35.5293 51.2787V51.2681ZM32.8047 49.555C34.9523 49.7465 44.0877 50.236 49.0882 45.235C54.0779 40.234 53.533 31.1258 53.33 28.9977C51.1931 28.8062 42.047 28.3167 37.0465 33.3177C32.0568 38.3187 32.6017 47.4269 32.8047 49.555Z" fill="#9CB070"/>
<path d="M31.8509 51.2787C31.6491 51.2787 31.4366 51.1922 31.2772 51.0298C30.9691 50.7052 30.9797 50.1966 31.2878 49.8827L42.6992 38.5088C43.018 38.1949 43.5173 38.2058 43.8255 38.5196C44.1336 38.8443 44.123 39.3529 43.8149 39.6667L32.4034 51.0407C32.2441 51.1922 32.0422 51.2679 31.8509 51.2679V51.2787Z" fill="#9CB070"/>
<path d="M14.7551 44.2787C14.6987 44.2787 14.6422 44.2788 14.5952 44.2547C14.219 44.1345 13.9839 43.6535 14.0686 43.1725L14.661 39.9741C14.7551 39.4932 15.1313 39.1926 15.5074 39.3008C15.8836 39.421 16.1187 39.902 16.0341 40.383L15.4416 43.5814C15.3664 43.9902 15.0748 44.2787 14.7551 44.2787Z" fill="#9CB070"/>
<path d="M12.7551 51.2787C12.6987 51.2787 12.6422 51.2787 12.5952 51.2595C12.219 51.1633 11.9839 50.7785 12.0686 50.3938L12.661 47.8351C12.7551 47.4503 13.1313 47.2098 13.5074 47.2964C13.8836 47.3926 14.1187 47.7773 14.0341 48.1621L13.4416 50.7208C13.3664 51.0479 13.0748 51.2787 12.7551 51.2787Z" fill="#9CB070"/>
<path d="M19.3312 48.2787C19.2735 48.2787 19.2157 48.2787 19.1676 48.2506L16.6079 47.3639C16.2229 47.2231 15.9824 46.6601 16.069 46.0971C16.1652 45.5342 16.5501 45.1682 16.9351 45.309L19.4948 46.1957C19.8797 46.3364 20.1203 46.8994 20.0337 47.4624C19.9567 47.941 19.6584 48.2787 19.3312 48.2787Z" fill="#9CB070"/>
<path d="M12.1512 46.2787C12.079 46.2787 12.0068 46.2787 11.9467 46.2506L8.747 45.3639C8.26585 45.2231 7.96513 44.6601 8.07338 44.0971C8.18164 43.5342 8.67483 43.1682 9.15598 43.309L12.3557 44.1957C12.8368 44.3364 13.1375 44.8994 13.0293 45.4624C12.933 45.941 12.5602 46.2787 12.1512 46.2787Z" fill="#9CB070"/>
<path d="M48.7551 17.2787C48.6987 17.2787 48.6422 17.2787 48.5952 17.2547C48.219 17.1345 47.9839 16.6535 48.0686 16.1725L48.661 12.9741C48.7551 12.4932 49.1313 12.1926 49.5074 12.3008C49.8836 12.421 50.1187 12.902 50.0341 13.383L49.4416 16.5814C49.3664 16.9902 49.0748 17.2787 48.7551 17.2787Z" fill="#9CB070"/>
<path d="M47.107 24.2787C47.0223 24.2787 46.9377 24.2787 46.8672 24.2595C46.3029 24.1634 45.9502 23.7789 46.0772 23.3944L46.9659 20.8377C47.107 20.4532 47.6712 20.2033 48.2355 20.2994C48.7998 20.3955 49.1524 20.78 49.0255 21.1645L48.1368 23.7213C48.0239 24.0481 47.5866 24.2787 47.107 24.2787Z" fill="#9CB070"/>
<path d="M53.3312 20.2787C53.2735 20.2787 53.2157 20.2787 53.1676 20.26L50.6079 19.6679C50.2229 19.574 49.9824 19.1981 50.069 18.8222C50.1652 18.4463 50.5501 18.2114 50.9351 18.296L53.4948 18.888C53.8797 18.982 54.1203 19.3578 54.0337 19.7337C53.9567 20.0532 53.6584 20.2787 53.3312 20.2787Z" fill="#9CB070"/>
<path d="M46.1512 18.2787C46.079 18.2787 46.0068 18.2787 45.9467 18.26L42.747 17.6679C42.2658 17.574 41.9651 17.1981 42.0734 16.8222C42.1937 16.4463 42.6748 16.2114 43.156 16.296L46.3557 16.888C46.8368 16.982 47.1375 17.3578 47.0293 17.7337C46.933 18.0532 46.5602 18.2787 46.1512 18.2787Z" fill="#9CB070"/>
</svg>
