<svg width="20" height="20" viewBox="0 0 20 20" fill="none" xmlns="http://www.w3.org/2000/svg">
<rect width="20" height="20" rx="10" fill="#9D9D9D"/>
<path d="M14.6915 5.31574C14.6226 5.2467 14.5408 5.19193 14.4507 5.15456C14.3606 5.11719 14.2641 5.09795 14.1665 5.09795C14.069 5.09795 13.9724 5.11719 13.8823 5.15456C13.7922 5.19193 13.7104 5.2467 13.6415 5.31574L9.99991 8.94988L6.35832 5.30829C6.28937 5.23934 6.20752 5.18465 6.11744 5.14734C6.02736 5.11003 5.93081 5.09082 5.8333 5.09082C5.7358 5.09082 5.63925 5.11003 5.54917 5.14734C5.45909 5.18465 5.37723 5.23934 5.30829 5.30829C5.23934 5.37723 5.18465 5.45909 5.14734 5.54917C5.11003 5.63925 5.09082 5.7358 5.09082 5.8333C5.09082 5.93081 5.11003 6.02736 5.14734 6.11744C5.18465 6.20752 5.23934 6.28937 5.30829 6.35832L8.94988 9.99991L5.30829 13.6415C5.23934 13.7105 5.18465 13.7923 5.14734 13.8824C5.11003 13.9725 5.09082 14.069 5.09082 14.1665C5.09082 14.264 5.11003 14.3606 5.14734 14.4507C5.18465 14.5407 5.23934 14.6226 5.30829 14.6915C5.37723 14.7605 5.45909 14.8152 5.54917 14.8525C5.63925 14.8898 5.7358 14.909 5.8333 14.909C5.93081 14.909 6.02736 14.8898 6.11744 14.8525C6.20752 14.8152 6.28937 14.7605 6.35832 14.6915L9.99991 11.0499L13.6415 14.6915C13.7105 14.7605 13.7923 14.8152 13.8824 14.8525C13.9725 14.8898 14.069 14.909 14.1665 14.909C14.264 14.909 14.3606 14.8898 14.4507 14.8525C14.5407 14.8152 14.6226 14.7605 14.6915 14.6915C14.7605 14.6226 14.8152 14.5407 14.8525 14.4507C14.8898 14.3606 14.909 14.264 14.909 14.1665C14.909 14.069 14.8898 13.9725 14.8525 13.8824C14.8152 13.7923 14.7605 13.7105 14.6915 13.6415L11.0499 9.99991L14.6915 6.35832C14.9745 6.07533 14.9745 5.59872 14.6915 5.31574Z" fill="white"/>
</svg>
