<svg width="32" height="33" viewBox="0 0 32 33" fill="none" xmlns="http://www.w3.org/2000/svg">
<path d="M16.0149 19.4926C15.8699 19.4926 15.7249 19.4476 15.6049 19.3576C14.5949 18.6026 11.2949 15.8776 11.2949 12.5276C11.2949 9.17764 14.5949 6.45264 15.6049 5.69764C15.8399 5.52264 16.1849 5.52264 16.4249 5.69764C17.4349 6.45264 20.7399 9.17764 20.7399 12.5276C20.7399 15.8776 17.4399 18.6026 16.4299 19.3576C16.3099 19.4476 16.1649 19.4926 16.0199 19.4926H16.0149ZM16.0199 6.32764C15.2699 6.89264 12.0499 9.50264 12.0499 12.5276C12.0499 15.5526 15.2699 18.1626 16.0199 18.7276C16.7699 18.1626 19.9899 15.5526 19.9899 12.5276C19.9899 9.50264 16.7699 6.89264 16.0199 6.32764Z" fill="#D3736D"/>
<path d="M14.29 25.7526C13.25 25.7526 11.87 25.6476 10.51 25.2276C10.31 25.1676 10.2 24.9576 10.26 24.7576C10.32 24.5576 10.53 24.4476 10.73 24.5076C12.74 25.1226 14.855 25.0076 15.555 24.9426C15.65 23.9426 15.91 19.6626 13.57 17.3126C11.235 14.9626 6.95498 15.1926 5.94998 15.2826C5.86998 16.1126 5.71998 18.6676 6.62498 20.8826C6.70498 21.0726 6.60998 21.2926 6.41998 21.3726C6.22998 21.4526 6.00998 21.3576 5.92998 21.1676C4.93498 18.7326 5.12498 15.9376 5.20998 15.1426C5.24498 14.8276 5.49498 14.5776 5.80998 14.5476C7.10498 14.4226 11.535 14.2076 14.1 16.7876C16.665 19.3676 16.425 23.7976 16.29 25.0926C16.255 25.4076 16.005 25.6576 15.69 25.6876C15.38 25.7176 14.89 25.7526 14.29 25.7526Z" fill="#D3736D"/>
<path d="M16.02 27.8676C15.815 27.8676 15.645 27.6976 15.645 27.4926V11.9076C15.645 11.7026 15.815 11.5326 16.02 11.5326C16.225 11.5326 16.395 11.7026 16.395 11.9076V27.4926C16.395 27.6976 16.225 27.8676 16.02 27.8676Z" fill="#D3736D"/>
<path d="M15.99 25.7526C15.895 25.7526 15.8 25.7176 15.73 25.6476L10.36 20.3926C10.21 20.2476 10.21 20.0126 10.355 19.8626C10.5 19.7126 10.735 19.7126 10.885 19.8576L16.255 25.1126C16.405 25.2576 16.405 25.4926 16.26 25.6426C16.185 25.7176 16.09 25.7576 15.99 25.7576V25.7526Z" fill="#D3736D"/>
<path d="M17.7049 25.7526C17.0949 25.7526 16.5999 25.7176 16.2849 25.6876C15.9699 25.6576 15.7199 25.4076 15.6849 25.0926C15.5499 23.7976 15.3099 19.3726 17.8749 16.7876C20.4399 14.2076 24.8699 14.4176 26.1649 14.5476C26.4799 14.5776 26.7299 14.8276 26.7649 15.1426C26.8999 16.4376 27.1399 20.8676 24.5749 23.4476C22.6299 25.4076 19.6099 25.7576 17.7049 25.7576V25.7526ZM16.4299 24.9476C17.4349 25.0376 21.7099 25.2676 24.0499 22.9176C26.3849 20.5676 26.1299 16.2876 26.0349 15.2876C25.0349 15.1976 20.7549 14.9676 18.4149 17.3176C16.0799 19.6676 16.3349 23.9476 16.4299 24.9476Z" fill="#D3736D"/>
<path d="M15.9901 25.7526C15.8951 25.7526 15.7951 25.7126 15.7201 25.6376C15.5751 25.4876 15.5801 25.2526 15.7251 25.1076L21.0951 19.8526C21.2451 19.7076 21.4801 19.7126 21.6251 19.8576C21.7701 20.0076 21.7651 20.2426 21.6201 20.3876L16.2501 25.6426C16.1751 25.7126 16.0801 25.7476 15.9901 25.7476V25.7526Z" fill="#D3736D"/>
<path d="M7.82509 22.4126C7.79509 22.4126 7.76509 22.4126 7.74009 22.4026C7.54009 22.3526 7.4151 22.1526 7.4601 21.9526L7.7751 20.6226C7.8251 20.4226 8.0251 20.2976 8.2251 20.3426C8.4251 20.3926 8.5501 20.5926 8.5051 20.7926L8.19009 22.1226C8.15009 22.2926 7.99509 22.4126 7.82509 22.4126Z" fill="#D3736D"/>
<path d="M6.97011 26.0226C6.94011 26.0226 6.91011 26.0226 6.88511 26.0126C6.68511 25.9626 6.56011 25.7626 6.60511 25.5626L6.92011 24.2326C6.97011 24.0326 7.17011 23.9076 7.37011 23.9526C7.57011 24.0026 7.69511 24.2026 7.65011 24.4026L7.33511 25.7326C7.29511 25.9026 7.14011 26.0226 6.97011 26.0226Z" fill="#D3736D"/>
<path d="M10.025 24.1376C9.99497 24.1376 9.96497 24.1376 9.93997 24.1276L8.60997 23.8126C8.40997 23.7626 8.28497 23.5626 8.32997 23.3626C8.37997 23.1626 8.57997 23.0326 8.77997 23.0826L10.11 23.3976C10.31 23.4476 10.435 23.6476 10.39 23.8476C10.35 24.0176 10.195 24.1376 10.025 24.1376Z" fill="#D3736D"/>
<path d="M6.4151 23.2826C6.3851 23.2826 6.3551 23.2826 6.3301 23.2726L5.0001 22.9576C4.8001 22.9076 4.6751 22.7076 4.7201 22.5076C4.7651 22.3076 4.97011 22.1776 5.17011 22.2276L6.50011 22.5426C6.70011 22.5926 6.82511 22.7926 6.78011 22.9926C6.74011 23.1626 6.5851 23.2826 6.4151 23.2826Z" fill="#D3736D"/>
<path d="M23.965 9.53763C23.935 9.53763 23.905 9.53763 23.88 9.52763C23.68 9.47763 23.555 9.27763 23.6 9.07763L23.915 7.74763C23.965 7.54763 24.165 7.42263 24.365 7.46763C24.565 7.51763 24.69 7.71763 24.645 7.91763L24.33 9.24763C24.29 9.41763 24.135 9.53763 23.965 9.53763Z" fill="#D3736D"/>
<path d="M23.11 13.1476C23.08 13.1476 23.05 13.1476 23.025 13.1376C22.825 13.0876 22.7 12.8876 22.745 12.6876L23.06 11.3576C23.11 11.1576 23.31 11.0276 23.51 11.0776C23.71 11.1276 23.835 11.3276 23.79 11.5276L23.475 12.8576C23.435 13.0276 23.28 13.1476 23.11 13.1476Z" fill="#D3736D"/>
<path d="M26.1651 11.2626C26.1351 11.2626 26.1051 11.2626 26.0801 11.2526L24.7501 10.9376C24.5501 10.8876 24.4251 10.6876 24.4701 10.4876C24.5201 10.2876 24.7201 10.1626 24.9201 10.2076L26.2501 10.5226C26.4501 10.5726 26.5751 10.7726 26.5301 10.9726C26.4901 11.1426 26.3351 11.2626 26.1651 11.2626Z" fill="#D3736D"/>
<path d="M22.5599 10.4076C22.5299 10.4076 22.4999 10.4076 22.4749 10.3976L21.1449 10.0826C20.9449 10.0326 20.8199 9.83264 20.8649 9.63264C20.9149 9.43264 21.1149 9.30764 21.3149 9.35264L22.6449 9.66764C22.8449 9.71764 22.9699 9.91764 22.9249 10.1176C22.8849 10.2876 22.7299 10.4076 22.5599 10.4076Z" fill="#D3736D"/>
</svg>
