<svg width="64" height="64" viewBox="0 0 64 64" fill="none" xmlns="http://www.w3.org/2000/svg">
<rect width="64" height="64" rx="32" fill="#D6E7F7"/>
<path d="M16.9999 26.6156H46.9999L45.4343 43.83C45.3496 44.7617 44.9198 45.6281 44.2291 46.2591C43.5384 46.8902 42.6367 47.2402 41.7012 47.2406H22.2986C21.3631 47.2402 20.4615 46.8902 19.7708 46.2591C19.0801 45.6281 18.6502 44.7617 18.5655 43.83L16.9999 26.6156Z" stroke="#1A4063" stroke-width="2.42899" stroke-linejoin="round"/>
<path d="M24.5001 30.3655V24.7405C24.5001 22.7514 25.2902 20.8437 26.6968 19.4372C28.1033 18.0307 30.0109 17.2405 32.0001 17.2405C33.9892 17.2405 35.8969 18.0307 37.3034 19.4372C38.7099 20.8437 39.5001 22.7514 39.5001 24.7405V30.3655" stroke="#1A4063" stroke-width="2.42899" stroke-linecap="round"/>
<path d="M31.0449 41.2394L26.4481 36.6426L28.7465 34.3442L31.0449 32.0458" stroke="#1A4063" stroke-width="2.22079" stroke-linecap="round" stroke-linejoin="round"/>
<path d="M27.4446 36.6426L36.561 36.6426" stroke="#1A4063" stroke-width="2.22079" stroke-linecap="round"/>
</svg>
