<svg width="64" height="65" viewBox="0 0 64 65" fill="none" xmlns="http://www.w3.org/2000/svg">
<path d="M44 8.94116H20C13.3726 8.94116 8 14.3137 8 20.9412V44.9412C8 51.5686 13.3726 56.9412 20 56.9412H44C50.6274 56.9412 56 51.5686 56 44.9412V20.9412C56 14.3137 50.6274 8.94116 44 8.94116Z" fill="#FDCECB" stroke="#212121" stroke-width="1.77778" stroke-linecap="round" stroke-linejoin="round"/>
<path d="M41.5988 31.4286C41.895 33.426 41.5538 35.4659 40.6238 37.2582C39.6938 39.0506 38.2223 40.504 36.4187 41.4118C34.6151 42.3196 32.5711 42.6356 30.5775 42.3148C28.5839 41.994 26.7422 41.0528 25.3144 39.625C23.8866 38.1972 22.9454 36.3555 22.6246 34.3619C22.3038 32.3683 22.6198 30.3243 23.5276 28.5207C24.4354 26.7171 25.8888 25.2456 27.6812 24.3156C29.4735 23.3856 31.5134 23.0444 33.5108 23.3406C35.5482 23.6427 37.4344 24.5921 38.8909 26.0485C40.3473 27.505 41.2967 29.3912 41.5988 31.4286Z" fill="white" stroke="#212121" stroke-width="1.77778" stroke-linecap="round" stroke-linejoin="round"/>
<path d="M45.2005 19.7407H45.2251" stroke="#212121" stroke-width="1.77778" stroke-linecap="round" stroke-linejoin="round"/>
</svg>
