<svg width="32" height="32" viewBox="0 0 32 32" fill="none" xmlns="http://www.w3.org/2000/svg">
<path d="M22 4H10C6.68629 4 4 6.68629 4 10V22C4 25.3137 6.68629 28 10 28H22C25.3137 28 28 25.3137 28 22V10C28 6.68629 25.3137 4 22 4Z" stroke="#E6E6E6" stroke-width="2.475" stroke-linecap="round" stroke-linejoin="round"/>
<path d="M20.7994 15.2437C20.9475 16.2424 20.7769 17.2624 20.3119 18.1585C19.8469 19.0547 19.1112 19.7814 18.2093 20.2353C17.3075 20.6892 16.2855 20.8472 15.2887 20.6868C14.2919 20.5264 13.3711 20.0558 12.6572 19.3419C11.9433 18.628 11.4727 17.7072 11.3123 16.7104C11.1519 15.7136 11.3099 14.6916 11.7638 13.7898C12.2177 12.8879 12.9444 12.1522 13.8406 11.6872C14.7367 11.2222 15.7567 11.0516 16.7554 11.1997C17.7741 11.3508 18.7172 11.8255 19.4454 12.5537C20.1736 13.2819 20.6483 14.225 20.7994 15.2437Z" stroke="#E6E6E6" stroke-width="2.475" stroke-linecap="round" stroke-linejoin="round"/>
<path d="M22.6003 9.39975H22.6126" stroke="#E6E6E6" stroke-width="2.475" stroke-linecap="round" stroke-linejoin="round"/>
</svg>
