<svg width="65" height="64" viewBox="0 0 65 64" fill="none" xmlns="http://www.w3.org/2000/svg">
<rect x="0.285706" width="64" height="64" rx="32" fill="#D6E7F7"/>
<path d="M38.8322 39.1804V20.5934H27.0041H15.176V39.1804H38.8322Z" stroke="#1A4063" stroke-width="2.49519" stroke-linecap="round" stroke-linejoin="round"/>
<path d="M38.8323 25.2692H45.5912L50.6604 30.3384V38.787H38.8323V25.2692Z" stroke="#1A4063" stroke-width="2.49519" stroke-linecap="round" stroke-linejoin="round"/>
<path d="M21.935 45.9394C23.8014 45.9394 25.3145 44.4264 25.3145 42.56C25.3145 40.6935 23.8014 39.1805 21.935 39.1805C20.0686 39.1805 18.5555 40.6935 18.5555 42.56C18.5555 44.4264 20.0686 45.9394 21.935 45.9394Z" stroke="#1A4063" stroke-width="2.49519" stroke-linecap="round" stroke-linejoin="round"/>
<path d="M40.522 45.9394C42.3885 45.9394 43.9015 44.4264 43.9015 42.56C43.9015 40.6935 42.3885 39.1805 40.522 39.1805C38.6556 39.1805 37.1426 40.6935 37.1426 42.56C37.1426 44.4264 38.6556 45.9394 40.522 45.9394Z" stroke="#1A4063" stroke-width="2.49519" stroke-linecap="round" stroke-linejoin="round"/>
</svg>
