<svg width="48" height="48" viewBox="0 0 48 48" fill="none" xmlns="http://www.w3.org/2000/svg">
<rect width="48" height="48" rx="24" fill="white"/>
<path d="M10 18.6718H37.7492L36.3011 34.5946C36.2228 35.4564 35.8251 36.2578 35.1862 36.8415C34.5474 37.4252 33.7134 37.749 32.848 37.7493H14.9012C14.0358 37.749 13.2019 37.4252 12.563 36.8415C11.9241 36.2578 11.5265 35.4564 11.4482 34.5946L10 18.6718Z" stroke="#9CB070" stroke-width="2.5" stroke-linejoin="round"/>
<path d="M16.9373 22.1403V16.9373C16.9373 15.0974 17.6681 13.3329 18.9691 12.0319C20.2701 10.7309 22.0347 10 23.8746 10C25.7145 10 27.479 10.7309 28.78 12.0319C30.081 13.3329 30.8119 15.0974 30.8119 16.9373V22.1403" stroke="#9CB070" stroke-width="2.5" stroke-linecap="round"/>
</svg>
