<svg width="64" height="64" viewBox="0 0 64 64" fill="none" xmlns="http://www.w3.org/2000/svg">
<path d="M32.035 38.2787C31.7278 38.2787 31.4206 38.1818 31.1663 37.9879C29.0265 36.3615 22.035 30.4913 22.035 23.2747C22.035 16.0581 29.0265 10.1879 31.1663 8.56149C31.6748 8.1845 32.4057 8.1845 32.9036 8.56149C35.0434 10.1879 42.035 16.0581 42.035 23.2747C42.035 30.4913 35.0434 36.3615 32.9036 37.9879C32.6494 38.1818 32.3422 38.2787 32.035 38.2787ZM32.035 9.91864C30.446 11.1358 23.624 16.7582 23.624 23.2747C23.624 29.7912 30.446 35.4137 32.035 36.6308C33.624 35.4137 40.446 29.7912 40.446 23.2747C40.446 16.7582 33.624 11.1358 32.035 9.91864Z" fill="#212121"/>
<path d="M28.557 51.2787C24.4754 51.2787 18.0326 50.5338 13.8762 46.362C8.39497 40.8705 8.90784 31.4414 9.19633 28.685C9.26043 28.0145 9.80535 27.4824 10.4785 27.4185C13.2458 27.1525 22.7125 26.6949 28.1937 32.1863C33.675 37.6778 33.1621 47.1069 32.8736 49.8633C32.7988 50.5338 32.2646 51.0659 31.5915 51.1298C30.9183 51.1936 29.8605 51.2681 28.557 51.2681V51.2787ZM15.0088 45.2445C19.9986 50.2464 29.1447 49.7569 31.2923 49.5653C31.4953 47.4369 32.0509 38.327 27.0505 33.3251C22.0607 28.3231 12.9146 28.8127 10.767 29.0042C10.564 31.1434 10.0084 40.2426 15.0088 45.2445Z" fill="#212121"/>
<path d="M32.035 55.2787C31.4883 55.2787 31.035 54.9249 31.035 54.4982V22.0593C31.035 21.6326 31.4883 21.2787 32.035 21.2787C32.5816 21.2787 33.035 21.6326 33.035 22.0593V54.4982C33.035 54.9249 32.5816 55.2787 32.035 55.2787Z" fill="#212121"/>
<path d="M32.2319 51.2679C32.0302 51.2679 31.8284 51.1922 31.6797 51.0407L20.2752 39.6703C19.9567 39.3566 19.9567 38.8481 20.2646 38.5235C20.5726 38.199 21.0716 38.199 21.3902 38.5127L32.7947 49.8831C33.1133 50.1969 33.1133 50.7054 32.8053 51.0299C32.646 51.1922 32.4443 51.2787 32.2319 51.2787V51.2679Z" fill="#212121"/>
<path d="M35.5129 51.2681C34.2094 51.2681 33.1516 51.1936 32.4785 51.1298C31.8054 51.0659 31.2711 50.5339 31.1963 49.8636C30.9078 47.1077 30.395 37.6909 35.8762 32.1899C41.3575 26.6994 50.8241 27.1463 53.5915 27.4229C54.2646 27.4868 54.7988 28.0188 54.8736 28.6892C55.1621 31.445 55.675 40.8618 50.1937 46.3629C46.0374 50.5339 39.5945 51.2787 35.5129 51.2787V51.2681ZM32.7777 49.555C34.9253 49.7465 44.0607 50.236 49.0611 45.235C54.0509 40.234 53.506 31.1258 53.303 28.9977C51.1553 28.8062 42.0199 28.3167 37.0195 33.3177C32.0297 38.3187 32.5747 47.4269 32.7777 49.555Z" fill="#212121"/>
<path d="M31.8346 51.2787C31.6327 51.2787 31.4202 51.1922 31.2608 51.0298C30.9527 50.7052 30.9633 50.1966 31.2715 49.8827L42.6829 38.5088C43.0016 38.1949 43.501 38.2058 43.8091 38.5196C44.1173 38.8443 44.1066 39.3529 43.7985 39.6667L32.3871 51.0407C32.2277 51.1922 32.0258 51.2679 31.8346 51.2679V51.2787Z" fill="#212121"/>
</svg>
