<svg width="65" height="65" viewBox="0 0 65 65" fill="none" xmlns="http://www.w3.org/2000/svg">
<path d="M51.2667 32.1634V51.7189C51.2667 53.6826 49.6748 55.2745 47.7111 55.2745H17.8445C15.8808 55.2745 14.2889 53.6826 14.2889 51.7189V32.1634" fill="#FDCECB"/>
<path d="M51.2667 32.1634V51.7189C51.2667 53.6826 49.6748 55.2745 47.7111 55.2745H17.8445C15.8808 55.2745 14.2889 53.6826 14.2889 51.7189V32.1634" stroke="#212121" stroke-width="1.77778" stroke-linecap="round" stroke-linejoin="round"/>
<path d="M54.1111 20.6078H11.4445C10.4626 20.6078 9.66669 21.4037 9.66669 22.3856V30.3856C9.66669 31.3674 10.4626 32.1633 11.4445 32.1633H54.1111C55.093 32.1633 55.8889 31.3674 55.8889 30.3856V22.3856C55.8889 21.4037 55.093 20.6078 54.1111 20.6078Z" fill="white" stroke="#212121" stroke-width="1.77778" stroke-linecap="round" stroke-linejoin="round"/>
<path d="M32.7778 55.2745V20.6078" stroke="#212121" stroke-width="1.77778" stroke-linecap="round" stroke-linejoin="round"/>
<path d="M32.7778 20.6078H22.3778C20.8454 20.6078 19.3758 19.9991 18.2923 18.9155C17.2087 17.832 16.6 16.3624 16.6 14.83C16.6 13.2977 17.2087 11.8281 18.2923 10.7445C19.3758 9.66097 20.8454 9.05225 22.3778 9.05225C30.4667 9.05225 32.7778 20.6078 32.7778 20.6078Z" stroke="#212121" stroke-width="1.77778" stroke-linecap="round" stroke-linejoin="round"/>
<path d="M32.7778 20.6078H43.1778C44.7102 20.6078 46.1798 19.9991 47.2633 18.9155C48.3469 17.832 48.9556 16.3624 48.9556 14.83C48.9556 13.2977 48.3469 11.8281 47.2633 10.7445C46.1798 9.66097 44.7102 9.05225 43.1778 9.05225C35.0889 9.05225 32.7778 20.6078 32.7778 20.6078Z" stroke="#212121" stroke-width="1.77778" stroke-linecap="round" stroke-linejoin="round"/>
</svg>
