<svg width="36" height="36" viewBox="0 0 36 36" fill="none" xmlns="http://www.w3.org/2000/svg">
<rect width="36" height="36" rx="18" fill="#E7F1CE"/>
<path d="M14.8414 21.381L15.1304 21.6698L15.4196 21.3811L24.2652 12.5508L24.2653 12.5506C24.356 12.46 24.479 12.4091 24.6074 12.4091C24.7357 12.4091 24.8587 12.46 24.9494 12.5506C25.04 12.6412 25.0909 12.764 25.0909 12.892C25.0909 13.02 25.04 13.1428 24.9494 13.2334L15.477 22.6989C15.2876 22.8882 14.9824 22.8882 14.793 22.6989L11.0506 18.9592C11.0057 18.9144 10.9701 18.8611 10.9459 18.8026C10.9216 18.744 10.9091 18.6812 10.9091 18.6179C10.9091 18.4899 10.96 18.3671 11.0506 18.2765C11.1413 18.1859 11.2643 18.135 11.3926 18.135C11.521 18.135 11.644 18.1859 11.7347 18.2765L14.8414 21.381Z" fill="#749136" stroke="#749136" stroke-width="0.818182"/>
</svg>
