<svg width="20" height="20" viewBox="0 0 20 20" fill="none" xmlns="http://www.w3.org/2000/svg">
<path d="M12.5 10C12.5 10.663 12.2366 11.2989 11.7678 11.7678C11.2989 12.2366 10.663 12.5 10 12.5C9.33696 12.5 8.70107 12.2366 8.23223 11.7678C7.76339 11.2989 7.5 10.663 7.5 10C7.5 9.33696 7.76339 8.70107 8.23223 8.23223C8.70107 7.76339 9.33696 7.5 10 7.5C10.663 7.5 11.2989 7.76339 11.7678 8.23223C12.2366 8.70107 12.5 9.33696 12.5 10Z" fill="#BBBBBB"/>
<path d="M0 10C0 10 3.75 3.75 10 3.75C16.25 3.75 20 10 20 10C20 10 16.25 16.25 10 16.25C3.75 16.25 0 10 0 10ZM10 13.9773C11.1603 13.9773 12.2731 13.5582 13.0936 12.8124C13.9141 12.0665 14.375 11.0548 14.375 10C14.375 8.94516 13.9141 7.93353 13.0936 7.18764C12.2731 6.44176 11.1603 6.02273 10 6.02273C8.83968 6.02273 7.72688 6.44176 6.90641 7.18764C6.08594 7.93353 5.625 8.94516 5.625 10C5.625 11.0548 6.08594 12.0665 6.90641 12.8124C7.72688 13.5582 8.83968 13.9773 10 13.9773Z" fill="#BBBBBB"/>
</svg>
