<svg width="65" height="64" viewBox="0 0 65 64" fill="none" xmlns="http://www.w3.org/2000/svg">
<rect x="0.714294" width="64" height="64" rx="32" fill="#D6E7F7"/>
<path d="M45.4523 38.2671V42.0886C45.4537 42.4433 45.3811 42.7945 45.2389 43.1195C45.0968 43.4446 44.8884 43.7363 44.627 43.9762C44.3656 44.216 44.0569 44.3986 43.7209 44.5122C43.3848 44.6259 43.0287 44.6681 42.6754 44.6362C38.7557 44.2103 34.9905 42.8709 31.6824 40.7256C28.6047 38.7699 25.9953 36.1605 24.0396 33.0827C21.8868 29.7596 20.5471 25.9762 20.129 22.0388C20.0972 21.6866 20.139 21.3316 20.2519 20.9964C20.3648 20.6612 20.5463 20.3532 20.7847 20.092C21.0232 19.8307 21.3134 19.622 21.6369 19.4791C21.9604 19.3362 22.3102 19.2623 22.6639 19.2619H26.4853C27.1035 19.2558 27.7028 19.4747 28.1715 19.8778C28.6402 20.2809 28.9464 20.8407 29.0329 21.4529C29.1942 22.6758 29.4933 23.8766 29.9246 25.0323C30.096 25.4882 30.133 25.9837 30.0315 26.4601C29.9299 26.9364 29.6938 27.3737 29.3514 27.72L27.7336 29.3377C29.547 32.5268 32.1874 35.1673 35.3765 36.9806L36.9942 35.3629C37.3405 35.0204 37.7778 34.7843 38.2542 34.6828C38.7305 34.5812 39.226 34.6183 39.6819 34.7896C40.8376 35.2209 42.0384 35.52 43.2613 35.6813C43.8801 35.7686 44.4452 36.0803 44.8492 36.557C45.2532 37.0338 45.4678 37.6424 45.4523 38.2671Z" stroke="#1A4063" stroke-width="2.50781" stroke-linecap="round" stroke-linejoin="round"/>
</svg>
