<svg width="65" height="65" viewBox="0 0 65 65" fill="none" xmlns="http://www.w3.org/2000/svg">
<path d="M28.3333 17.4967C27.6222 13.2301 31 9.79303 32.7778 8.60785C34.2593 10.3856 37.2222 14.6523 37.2222 17.4967C37.2222 21.0523 36.3333 22.8301 32.7778 22.8301C29.2222 22.8301 29.2222 22.8301 28.3333 17.4967Z" fill="#FDCECB"/>
<path d="M25.6667 37.9412C23.5334 45.7634 17.0741 44.756 14.1111 43.2745V50.3856C14.1111 54.6523 16.4815 55.719 17.6667 55.719L33.6667 56.6079L49.6667 55.719C52.5111 55.0079 52.0371 46.8301 51.4445 43.2745H50.5556C42.0223 46.8301 39.8889 40.6079 39.8889 37.0523C39.5926 39.4227 37.7556 44.1634 32.7778 44.1634C27.8 44.1634 25.963 40.0153 25.6667 37.9412Z" fill="#FDCECB"/>
<path d="M13.8148 43.2747V51.571C13.8148 52.8283 14.3143 54.0341 15.2034 54.9232C16.0924 55.8122 17.2982 56.3117 18.5556 56.3117H47C48.2573 56.3117 49.4632 55.8122 50.3522 54.9232C51.2413 54.0341 51.7408 52.8283 51.7408 51.571V43.2747M11.4445 37.3487V34.9784C11.4445 33.7211 11.9439 32.5152 12.833 31.6262C13.7221 30.7371 14.9279 30.2376 16.1852 30.2376H49.3704C50.6277 30.2376 51.8335 30.7371 52.7226 31.6262C53.6117 32.5152 54.1111 33.7211 54.1111 34.9784V37.3487M32.7778 23.1265V30.2376M32.7778 23.1265C35.7692 23.1265 37.5185 20.832 37.5185 16.9043C37.5185 12.9766 32.7778 8.9043 32.7778 8.9043C32.7778 8.9043 28.0371 12.9766 28.0371 16.9043C28.0371 20.832 29.7864 23.1265 32.7778 23.1265Z" stroke="#212121" stroke-width="1.77778" stroke-linecap="round" stroke-linejoin="round"/>
<path d="M11.4445 37.3486C11.4445 39.2346 12.1937 41.0433 13.5273 42.3769C14.8608 43.7105 16.6696 44.4597 18.5556 44.4597C20.4416 44.4597 22.2503 43.7105 23.5839 42.3769C24.9175 41.0433 25.6667 39.2346 25.6667 37.3486C25.6667 39.2346 26.4159 41.0433 27.7495 42.3769C29.0831 43.7105 30.8918 44.4597 32.7778 44.4597C34.6638 44.4597 36.4725 43.7105 37.8061 42.3769C39.1397 41.0433 39.8889 39.2346 39.8889 37.3486C39.8889 39.2346 40.6381 41.0433 41.9717 42.3769C43.3053 43.7105 45.114 44.4597 47 44.4597C48.886 44.4597 50.6947 43.7105 52.0283 42.3769C53.3619 41.0433 54.1111 39.2346 54.1111 37.3486" stroke="#212121" stroke-width="1.77778" stroke-linecap="round" stroke-linejoin="round"/>
<circle cx="32.1556" cy="14.2078" r="1.15556" fill="white"/>
</svg>
