<svg width="224" height="224" viewBox="0 0 224 224" fill="none" xmlns="http://www.w3.org/2000/svg">
<g clip-path="url(#clip0_4714_43937)">
<path d="M131.859 196.491C115.498 205.937 88.1264 218.173 62.8158 212.811C29.458 205.776 11.9641 170.728 7.40565 160.162C6.27252 157.606 7.35363 154.434 9.91956 152.647C20.4611 145.286 57.4602 121.734 90.8179 128.769C124.176 135.804 141.67 170.852 146.228 181.418C147.318 183.999 146.28 187.146 143.714 188.933C141.148 190.721 137.062 193.436 131.837 196.453L131.859 196.491ZM65.039 206.177C95.4115 212.591 131.06 189.666 139.271 184.008C135.672 175.894 119.011 141.894 88.596 135.504C58.2235 129.09 22.5755 152.015 14.3637 157.673C17.985 165.825 34.6236 199.787 65.039 206.177Z" fill="#F2E8E8"/>
<path d="M156.14 204.029C154.384 205.043 152.178 204.584 151.273 203.018L82.4957 83.8917C81.591 82.3248 82.2971 80.1846 84.0531 79.1708C85.8092 78.1569 88.0156 78.6156 88.9203 80.1825L157.698 199.308C158.602 200.875 157.896 203.015 156.14 204.029Z" fill="#F2E8E8"/>
<path d="M146.593 187.986C145.779 188.456 144.811 188.658 143.903 188.469L74.7121 174.86C72.7873 174.494 71.7502 172.698 72.3303 170.834C72.9105 168.97 74.9235 167.808 76.8483 168.174L146.039 181.783C147.964 182.15 149.001 183.946 148.421 185.81C148.109 186.754 147.472 187.53 146.615 188.024L146.593 187.986Z" fill="#F2E8E8"/>
<path d="M161.284 179.503C156.059 182.52 151.664 184.701 148.833 186.029C146.003 187.358 142.758 186.683 141.068 184.449C134.196 175.218 112.613 142.582 123.177 110.137C133.764 77.7312 172.638 57.4272 184.305 52.0162C187.136 50.6876 190.381 51.3621 192.071 53.5968C198.942 62.8276 220.526 95.4636 209.961 127.908C201.95 152.509 177.667 170.095 161.306 179.541L161.284 179.503ZM146.767 179.68C155.773 175.398 193.408 156.013 203.082 126.478C212.713 96.9675 191.641 65.5139 186.414 58.3402C177.408 62.6226 139.773 82.0072 130.099 111.543C120.468 141.053 141.54 172.507 146.767 179.68Z" fill="#F2E8E8"/>
<path d="M125.946 123.881C124.155 129.311 122.38 133.651 121.18 136.398C119.979 139.144 116.951 140.893 113.957 140.604C101.675 139.335 60.3595 133.03 44.1678 105.264C28.022 77.509 42.9588 38.4739 47.9549 27.1939C49.1553 24.447 52.1838 22.6985 55.1776 22.9878C67.4591 24.2566 108.775 30.5619 124.967 58.327C137.243 79.3805 131.601 106.888 125.992 123.89L125.946 123.881ZM114.799 133.74C118.577 124.965 133.242 87.3477 118.546 62.0339C103.836 36.7646 63.8065 30.8695 54.3499 29.8074C50.5725 38.5822 35.9074 76.1993 50.6031 101.513C65.3135 126.782 105.343 132.677 114.799 133.74Z" fill="#F2E8E8"/>
<path d="M146.593 187.985C145.779 188.455 144.746 188.644 143.773 188.442C141.869 188.012 140.874 186.191 141.477 184.366L164.286 117.64C164.931 115.79 166.966 114.666 168.848 115.057C170.752 115.487 171.747 117.308 171.144 119.133L148.335 185.859C148.001 186.765 147.342 187.502 146.571 187.947L146.593 187.985Z" fill="#F2E8E8"/>
</g>
<defs>
<clipPath id="clip0_4714_43937">
<rect width="224" height="224" fill="white"/>
</clipPath>
</defs>
</svg>
