<svg width="18" height="18" viewBox="0 0 18 18" fill="none" xmlns="http://www.w3.org/2000/svg">
<rect x="0.5" y="0.5" width="17" height="17" rx="8.5" stroke="#EEEEEE"/>
<path d="M6.95991 6.77C6.55991 6.6 6.38991 6.105 6.62991 5.745C7.11491 5.025 7.92491 4.5 8.99491 4.5C10.1699 4.5 10.9749 5.035 11.3849 5.705C11.7349 6.28 11.9399 7.355 11.3999 8.155C10.7999 9.04 10.2249 9.31 9.91491 9.88C9.83991 10.015 9.79491 10.125 9.76491 10.35C9.71991 10.715 9.41991 11 9.04991 11C8.61491 11 8.25991 10.625 8.30991 10.19C8.33991 9.935 8.39991 9.67 8.53991 9.42C8.92491 8.725 9.66491 8.315 10.0949 7.7C10.5499 7.055 10.2949 5.85 9.00491 5.85C8.41991 5.85 8.03991 6.155 7.80491 6.52C7.62991 6.805 7.26491 6.895 6.95991 6.77ZM9.99991 13C9.99991 13.55 9.54991 14 8.99991 14C8.44991 14 7.99991 13.55 7.99991 13C7.99991 12.45 8.44991 12 8.99991 12C9.54991 12 9.99991 12.45 9.99991 13Z" fill="#888888"/>
</svg>
