<svg width="36" height="36" viewBox="0 0 36 36" fill="none" xmlns="http://www.w3.org/2000/svg">
<path d="M31.9999 11.6H32.9999C32.9999 11.2702 32.8374 10.9617 32.5654 10.7752L31.9999 11.6ZM18 2L18.5655 1.17527C18.2247 0.941576 17.7752 0.941576 17.4344 1.17527L18 2ZM31.9999 33.9999V34.9999C32.5522 34.9999 32.9999 34.5522 32.9999 33.9999H31.9999ZM4 33.9999H3C3 34.5522 3.44772 34.9999 4 34.9999V33.9999ZM4 11.6L3.43447 10.7752C3.16254 10.9617 3 11.2702 3 11.6H4ZM13.3334 20.2852V19.2852C12.7811 19.2852 12.3334 19.733 12.3334 20.2852H13.3334ZM22.6667 20.2852H23.6667C23.6667 19.733 23.219 19.2852 22.6667 19.2852V20.2852ZM13.3334 33.9995H12.3334C12.3334 34.5518 12.7811 34.9995 13.3334 34.9995V33.9995ZM22.6667 33.9995V34.9995C23.219 34.9995 23.6667 34.5518 23.6667 33.9995H22.6667ZM32.5654 10.7752L18.5655 1.17527L17.4344 2.82473L31.4344 12.4247L32.5654 10.7752ZM32.9999 33.9999V11.6H30.9999V33.9999H32.9999ZM4 34.9999H31.9999V32.9999H4V34.9999ZM3 11.6V33.9999H5V11.6H3ZM17.4344 1.17527L3.43447 10.7752L4.56553 12.4247L18.5655 2.82473L17.4344 1.17527ZM13.3334 21.2852H22.6667V19.2852H13.3334V21.2852ZM14.3334 33.9995V20.2852H12.3334V33.9995H14.3334ZM22.6667 32.9995H13.3334V34.9995H22.6667V32.9995ZM21.6667 20.2852V33.9995H23.6667V20.2852H21.6667Z" fill="#B25852"/>
</svg>
