<svg width="338" height="339" viewBox="0 0 338 339" fill="none" xmlns="http://www.w3.org/2000/svg">
<path d="M337.081 193.891C340.737 168.258 322.926 144.477 297.299 140.776L287.466 139.357L295.412 133.405C316.117 117.893 320.309 88.5105 304.775 67.7714C289.236 47.0313 259.86 42.7892 239.156 58.2954L231.21 64.2467L232.613 54.4115C236.27 28.7783 218.459 4.99775 192.832 1.29695C167.204 -2.40386 143.464 15.3764 139.807 41.0096L138.404 50.8448L132.449 42.8859C116.916 22.1406 87.5339 17.9038 66.83 33.41C46.1261 48.9162 41.9336 78.3046 57.4667 99.0437L63.4284 107.004L53.5954 105.584C27.9681 101.883 4.228 119.663 0.571211 145.296C-3.08558 170.929 14.7255 194.71 40.3529 198.411L50.1859 199.831L42.2396 205.782C21.5357 221.288 17.3432 250.677 32.8764 271.416C40.6456 281.789 51.8726 288.036 63.7462 289.75C75.6197 291.465 88.1459 288.648 98.4952 280.892L106.441 274.94L105.038 284.776C101.382 310.409 119.193 334.189 144.82 337.89C170.447 341.591 194.188 323.811 197.844 298.178L199.247 288.342L205.209 296.302C212.978 306.675 224.205 312.922 236.079 314.637C247.952 316.351 260.479 313.535 270.828 305.778C291.533 290.266 295.724 260.883 280.191 240.144L274.23 232.184L284.062 233.604C309.69 237.305 333.424 219.524 337.081 193.891Z" fill="#F7F4D5" fill-opacity="0.5"/>
</svg>
