<svg width="32" height="32" viewBox="0 0 32 32" fill="none" xmlns="http://www.w3.org/2000/svg">
<g clip-path="url(#clip0_3548_99011)">
<path d="M12.43 29.6175C13.75 30.0163 15.0837 30.25 16.5 30.25C20.1467 30.25 23.6441 28.8013 26.2227 26.2227C28.8013 23.6441 30.25 20.1467 30.25 16.5C30.25 14.6943 29.8943 12.9063 29.2033 11.2381C28.5123 9.56988 27.4995 8.05409 26.2227 6.77728C24.9459 5.50048 23.4301 4.48766 21.7619 3.79666C20.0937 3.10565 18.3057 2.75 16.5 2.75C14.6943 2.75 12.9063 3.10565 11.2381 3.79666C9.56988 4.48766 8.05409 5.50048 6.77728 6.77728C4.19866 9.35591 2.75 12.8533 2.75 16.5C2.75 22.3438 6.42125 27.3625 11.605 29.3425C11.4812 28.27 11.3575 26.4962 11.605 25.2725L13.1863 18.48C13.1863 18.48 12.7875 17.6825 12.7875 16.4175C12.7875 14.52 13.97 13.1037 15.3175 13.1037C16.5 13.1037 17.05 13.97 17.05 15.0838C17.05 16.2663 16.2662 17.9575 15.8675 19.58C15.6337 20.9275 16.5825 22.11 17.9575 22.11C20.405 22.11 22.3025 19.4975 22.3025 15.8125C22.3025 12.5125 19.9375 10.2575 16.5412 10.2575C12.6637 10.2575 10.3813 13.145 10.3813 16.1838C10.3813 17.3663 10.7662 18.5625 11.3988 19.3462C11.5225 19.4287 11.5225 19.5387 11.4813 19.745L11.0825 21.2437C11.0825 21.4775 10.9313 21.56 10.6975 21.395C8.9375 20.625 7.92 18.1225 7.92 16.1012C7.92 11.7563 11 7.81 16.94 7.81C21.67 7.81 25.355 11.2063 25.355 15.7163C25.355 20.4463 22.4263 24.2412 18.2325 24.2412C16.8988 24.2412 15.5925 23.5263 15.125 22.6875L14.2037 25.9463C13.8875 27.1288 13.0212 28.71 12.43 29.6587V29.6175Z" fill="#E6E6E6"/>
</g>
<defs>
<clipPath id="clip0_3548_99011">
<rect width="32" height="32" fill="white"/>
</clipPath>
</defs>
</svg>
