<svg width="65" height="65" viewBox="0 0 65 65" fill="none" xmlns="http://www.w3.org/2000/svg">
<path d="M15.5 36.5C16.5336 27.3233 27.8333 13.3333 33.5 7.5C42.5 16 52 30 52 39.5C52 49 45.5093 58.1643 33.5 58C21.1531 57.8311 14.1688 48.3185 15.5 36.5Z" fill="white"/>
<path d="M33.67 58.73C29.52 58.73 25.69 57.66 22.59 55.65L23.41 54.39C26.27 56.25 29.82 57.23 33.67 57.23C44.36 57.23 51.54 49.84 51.54 38.85C51.54 28.67 36.74 11.56 33.67 8.13C30.6 11.56 15.8 28.66 15.8 38.85H14.3C14.3 26.96 32.35 7.33 33.12 6.5C33.4 6.19 33.94 6.19 34.22 6.5C34.99 7.33 53.04 26.96 53.04 38.85C53.04 50.74 45.26 58.73 33.67 58.73Z" fill="#212121"/>
<path d="M47.43 38.76C47.43 47.43 41.7 52.9 33.67 52.9C25.64 52.9 19.91 47.43 19.91 38.76C19.91 30.09 33.67 15.23 33.67 15.23C33.67 15.23 47.43 30.09 47.43 38.76Z" fill="#FDCECB"/>
<path d="M26.1 36.77C26.04 36.77 25.98 36.77 25.93 36.75C25.53 36.65 25.28 36.25 25.37 35.85L25.93 33.52C26.03 33.12 26.43 32.87 26.83 32.96C27.23 33.06 27.48 33.46 27.39 33.86L26.83 36.19C26.75 36.53 26.44 36.77 26.1 36.77Z" fill="white"/>
<path d="M24.6 43.1C24.54 43.1 24.48 43.1 24.43 43.08C24.03 42.98 23.78 42.58 23.87 42.18L24.43 39.85C24.53 39.45 24.93 39.2 25.33 39.29C25.73 39.39 25.98 39.79 25.89 40.19L25.33 42.52C25.25 42.86 24.94 43.1 24.6 43.1Z" fill="white"/>
<path d="M29.96 39.8C29.9 39.8 29.84 39.8 29.79 39.78L27.46 39.22C27.06 39.12 26.81 38.72 26.9 38.32C27 37.92 27.4 37.67 27.8 37.76L30.13 38.32C30.53 38.42 30.78 38.82 30.69 39.22C30.61 39.56 30.3 39.8 29.96 39.8Z" fill="white"/>
<path d="M23.63 38.3C23.57 38.3 23.51 38.3 23.46 38.28L21.13 37.72C20.73 37.62 20.48 37.22 20.57 36.82C20.67 36.42 21.07 36.17 21.47 36.26L23.8 36.82C24.2 36.92 24.45 37.32 24.36 37.72C24.28 38.06 23.97 38.3 23.63 38.3Z" fill="white"/>
<path d="M21.03 50.33C21.03 50.33 20.95 50.33 20.9 50.31C20.61 50.24 20.43 49.95 20.5 49.66L20.9 47.98C20.97 47.69 21.26 47.51 21.55 47.58C21.84 47.65 22.02 47.94 21.95 48.23L21.55 49.91C21.49 50.16 21.27 50.32 21.03 50.32V50.33Z" fill="#212121"/>
<path d="M19.95 54.88C19.95 54.88 19.87 54.88 19.82 54.86C19.53 54.79 19.35 54.5 19.42 54.21L19.82 52.53C19.89 52.24 20.18 52.06 20.47 52.13C20.76 52.2 20.94 52.49 20.87 52.78L20.47 54.46C20.41 54.71 20.19 54.87 19.95 54.87V54.88Z" fill="#212121"/>
<path d="M23.8 52.51C23.8 52.51 23.72 52.51 23.67 52.49L21.99 52.09C21.7 52.02 21.52 51.73 21.59 51.44C21.66 51.15 21.95 50.97 22.24 51.04L23.92 51.44C24.21 51.51 24.39 51.8 24.32 52.09C24.26 52.34 24.04 52.5 23.8 52.5V52.51Z" fill="#212121"/>
<path d="M19.25 51.43C19.25 51.43 19.17 51.43 19.12 51.41L17.44 51.01C17.15 50.94 16.97 50.65 17.04 50.36C17.11 50.07 17.4 49.89 17.69 49.96L19.37 50.36C19.66 50.43 19.84 50.72 19.77 51.01C19.71 51.26 19.49 51.42 19.25 51.42V51.43Z" fill="#212121"/>
<path d="M16.44 41.91C16.44 41.91 16.35 41.91 16.3 41.89C15.99 41.82 15.79 41.5 15.87 41.19L16.3 39.38C16.37 39.07 16.69 38.87 17 38.95C17.31 39.02 17.51 39.34 17.43 39.65L17 41.46C16.94 41.73 16.7 41.91 16.43 41.91H16.44Z" fill="#212121"/>
<path d="M15.27 46.82C15.27 46.82 15.18 46.82 15.13 46.8C14.82 46.73 14.62 46.41 14.7 46.1L15.13 44.29C15.2 43.98 15.52 43.78 15.83 43.86C16.14 43.93 16.34 44.25 16.26 44.56L15.83 46.37C15.77 46.64 15.53 46.82 15.26 46.82H15.27Z" fill="#212121"/>
<path d="M19.43 44.25C19.43 44.25 19.34 44.25 19.29 44.23L17.48 43.8C17.17 43.73 16.97 43.41 17.05 43.1C17.13 42.79 17.44 42.59 17.75 42.67L19.56 43.1C19.87 43.17 20.07 43.49 19.99 43.8C19.93 44.07 19.69 44.25 19.42 44.25H19.43Z" fill="#212121"/>
<path d="M14.52 43.09C14.52 43.09 14.43 43.09 14.38 43.07L12.57 42.64C12.26 42.57 12.06 42.25 12.14 41.94C12.22 41.63 12.53 41.44 12.84 41.51L14.65 41.94C14.96 42.01 15.16 42.33 15.08 42.64C15.02 42.91 14.78 43.09 14.51 43.09H14.52Z" fill="#212121"/>
<path d="M41.18 48.69C40.99 48.69 40.8 48.61 40.66 48.46C40.4 48.17 40.43 47.73 40.71 47.47C44.46 44.12 44.39 40.35 44.39 40.19C44.38 39.8 44.68 39.48 45.07 39.47C45.46 39.44 45.78 39.76 45.79 40.14C45.79 40.32 45.9 44.7 41.65 48.51C41.52 48.63 41.35 48.69 41.18 48.69Z" fill="#212121"/>
</svg>
