<svg width="65" height="65" viewBox="0 0 65 65" fill="none" xmlns="http://www.w3.org/2000/svg">
<path d="M27.5 42.5C29.5 40.1 32.3333 40.1667 33.5 40.5C37.5 40.0741 43.5 49 43.5 52.5C43.5 56 42 58.5 38.5 58.5C35.7 58.5 34 57.5 33.5 57L32.5 55.5L32 56.5C31.6667 56.8333 30.4 57.7 28 58.5C25.6 59.3 24 58.1667 23.5 57.5L21.5 55.5V51C22.6667 49.1667 25.5 44.9 27.5 42.5Z" fill="white"/>
<path d="M32.5 40.49L14.4 25.4C9.16 20.9 6.99 11.03 13.07 7.76C25.21 1.23 32.5 23.83 32.5 23.83C32.5 23.83 39.79 1.24 51.93 7.76C58.02 11.03 55.84 20.9 50.6 25.4L32.5 40.49Z" fill="#FDCECB"/>
<path d="M32.5 41.24C32.33 41.24 32.16 41.18 32.02 41.07L13.92 25.98C10.37 22.93 8.23 17.75 8.71 13.38C9.02 10.52 10.41 8.35 12.72 7.1C15.44 5.64 18.15 5.43 20.78 6.49C26.92 8.96 30.95 17.68 32.5 21.63C34.05 17.67 38.08 8.96 44.22 6.49C46.85 5.43 49.56 5.64 52.28 7.1C54.59 8.34 55.98 10.51 56.29 13.38C56.77 17.75 54.62 22.93 51.08 25.97L32.97 41.07C32.83 41.19 32.66 41.24 32.49 41.24H32.5ZM17.42 7.32C16.11 7.32 14.79 7.69 13.42 8.42C11.07 9.68 10.37 11.9 10.19 13.54C9.77 17.39 11.74 22.14 14.88 24.83L32.49 39.52L50.11 24.83C53.24 22.14 55.21 17.39 54.79 13.54C54.61 11.9 53.91 9.68 51.56 8.42C49.22 7.16 47 6.99 44.77 7.88C37.56 10.78 33.24 23.92 33.2 24.05C33.1 24.36 32.81 24.57 32.49 24.57C32.17 24.57 31.88 24.36 31.78 24.05C31.74 23.92 27.42 10.78 20.21 7.88C19.28 7.51 18.35 7.32 17.41 7.32H17.42Z" fill="#212121"/>
<path d="M32.48 54.65L32.41 54.63C31.07 54.35 30.58 53.42 30.56 53.38C30.47 53.21 30.54 52.99 30.71 52.9C30.89 52.81 31.1 52.88 31.19 53.05C31.2 53.07 31.54 53.69 32.48 53.91C33.43 53.68 33.79 53.06 33.81 53.03C33.91 52.86 34.12 52.8 34.29 52.89C34.46 52.99 34.52 53.2 34.43 53.37C34.41 53.41 33.89 54.33 32.55 54.61L32.48 54.63V54.65Z" fill="#212121"/>
<path d="M26.87 59.12C23.34 59.12 21.22 57.27 20.71 53.76C20.2 50.2 23.01 46.64 24.86 44.28C25.16 43.9 25.42 43.57 25.64 43.27C27.86 40.26 30.32 39.82 32.45 39.79C32.46 39.79 32.47 39.79 32.48 39.79C34.61 39.81 37.08 40.25 39.31 43.27C39.54 43.58 39.81 43.93 40.12 44.32C41.98 46.67 44.79 50.22 44.28 53.76C43.76 57.35 41.54 59.21 37.87 59.12C35.41 59.06 33.47 58.21 32.48 56.83C31.49 58.21 29.55 59.06 27.1 59.12C27.02 59.12 26.93 59.12 26.85 59.12H26.87ZM32.48 41.19C30.32 41.22 28.52 41.72 26.77 44.1C26.54 44.41 26.27 44.76 25.96 45.15C24.25 47.32 21.67 50.6 22.09 53.56C22.5 56.43 24.12 57.78 27.08 57.72C29.49 57.66 31.3 56.71 31.72 55.28L31.8 54.46C31.84 54.1 32.14 53.83 32.5 53.83C32.86 53.83 33.16 54.1 33.2 54.46L33.28 55.28C33.7 56.7 35.51 57.66 37.92 57.72C40.87 57.79 42.49 56.43 42.91 53.56C43.33 50.62 40.75 47.35 39.03 45.19C38.71 44.79 38.42 44.42 38.19 44.1C36.44 41.72 34.64 41.22 32.48 41.19Z" fill="#212121"/>
<path d="M28.759 49.811C29.3305 49.7544 29.7326 49.0893 29.6571 48.3253C29.5815 47.5614 29.0568 46.9879 28.4853 47.0445C27.9137 47.101 27.5116 47.7662 27.5872 48.5301C27.6627 49.294 28.1874 49.8675 28.759 49.811Z" fill="#212121"/>
<path d="M28.2973 48.1645C28.4347 48.1509 28.5342 48.0196 28.5195 47.8712C28.5048 47.7228 28.3815 47.6135 28.2441 47.6271C28.1067 47.6407 28.0072 47.772 28.0219 47.9204C28.0366 48.0688 28.1599 48.1781 28.2973 48.1645Z" fill="white"/>
<path d="M37.3356 48.6453C37.491 47.8935 37.161 47.1898 36.5985 47.0735C36.036 46.9572 35.4541 47.4724 35.2986 48.2242C35.1432 48.9759 35.4732 49.6796 36.0357 49.7959C36.5982 49.9122 37.1802 49.397 37.3356 48.6453Z" fill="#212121"/>
<path d="M36.3783 47.8661C36.4085 47.72 36.3234 47.579 36.1882 47.5511C36.053 47.5231 35.9189 47.6188 35.8887 47.7649C35.8585 47.9109 35.9436 48.0519 36.0789 48.0799C36.2141 48.1078 36.3481 48.0121 36.3783 47.8661Z" fill="white"/>
<path d="M17.33 54.87C17.21 54.87 17.1 54.81 17.03 54.71C16.92 54.55 16.97 54.33 17.13 54.22C21.04 51.62 25.24 52.35 25.42 52.38C25.61 52.42 25.74 52.6 25.71 52.79C25.68 52.98 25.49 53.11 25.3 53.08C25.26 53.08 21.2 52.38 17.53 54.81C17.47 54.85 17.4 54.87 17.33 54.87Z" fill="#212121"/>
<path d="M18.58 57.7C18.5 57.7 18.42 57.67 18.36 57.62C18.21 57.5 18.18 57.27 18.3 57.12C20.26 54.67 24.33 54.11 24.5 54.09C24.69 54.07 24.87 54.2 24.9 54.4C24.93 54.59 24.79 54.77 24.59 54.8C24.55 54.8 20.63 55.34 18.85 57.57C18.78 57.66 18.68 57.7 18.57 57.7H18.58Z" fill="#212121"/>
<path d="M47.64 54.87C47.57 54.87 47.5 54.85 47.44 54.81C43.76 52.37 39.71 53.07 39.67 53.08C39.48 53.12 39.29 52.99 39.26 52.79C39.22 52.6 39.35 52.41 39.55 52.38C39.73 52.35 43.93 51.62 47.84 54.22C48 54.33 48.05 54.55 47.94 54.71C47.87 54.81 47.76 54.87 47.64 54.87Z" fill="#212121"/>
<path d="M46.39 57.7C46.29 57.7 46.18 57.65 46.11 57.57C44.33 55.34 40.41 54.81 40.37 54.8C40.18 54.77 40.04 54.6 40.06 54.4C40.09 54.21 40.26 54.07 40.46 54.09C40.63 54.11 44.7 54.67 46.66 57.12C46.78 57.27 46.76 57.5 46.6 57.62C46.53 57.67 46.46 57.7 46.38 57.7H46.39Z" fill="#212121"/>
<path d="M15.84 15.18C16.8949 15.18 17.75 14.3249 17.75 13.27C17.75 12.2151 16.8949 11.36 15.84 11.36C14.7851 11.36 13.93 12.2151 13.93 13.27C13.93 14.3249 14.7851 15.18 15.84 15.18Z" fill="white"/>
</svg>
