<svg width="26" height="26" viewBox="0 0 26 26" fill="none" xmlns="http://www.w3.org/2000/svg">
<path d="M20 9.8H20.5C20.5 9.63514 20.4187 9.48087 20.2828 9.38764L20 9.8ZM13 5L13.2828 4.58764C13.1124 4.47079 12.8876 4.47079 12.7172 4.58764L13 5ZM20 21V21.5C20.2761 21.5 20.5 21.2761 20.5 21H20ZM15.3334 21H14.8334C14.8334 21.2761 15.0572 21.5 15.3334 21.5V21ZM15.3334 14.1429H15.8334C15.8334 13.8667 15.6095 13.6429 15.3334 13.6429V14.1429ZM10.6667 14.1429V13.6429C10.3905 13.6429 10.1667 13.8667 10.1667 14.1429H10.6667ZM10.6667 21V21.5C10.9428 21.5 11.1667 21.2761 11.1667 21H10.6667ZM6 21H5.5C5.5 21.2761 5.72386 21.5 6 21.5V21ZM6 9.8L5.71724 9.38764C5.58127 9.48087 5.5 9.63514 5.5 9.8H6ZM20.2828 9.38764L13.2828 4.58764L12.7172 5.41236L19.7172 10.2124L20.2828 9.38764ZM20.5 21V9.8H19.5V21H20.5ZM15.3334 21.5H20V20.5H15.3334V21.5ZM14.8334 14.1429V21H15.8334V14.1429H14.8334ZM10.6667 14.6429H15.3334V13.6429H10.6667V14.6429ZM11.1667 21V14.1429H10.1667V21H11.1667ZM6 21.5H10.6667V20.5H6V21.5ZM5.5 9.8V21H6.5V9.8H5.5ZM12.7172 4.58764L5.71724 9.38764L6.28276 10.2124L13.2828 5.41236L12.7172 4.58764Z" fill="#212121"/>
</svg>
