<svg width="48" height="48" viewBox="0 0 48 48" fill="none" xmlns="http://www.w3.org/2000/svg">
<path d="M19.571 32.6609C22.967 35.2109 23.297 40.5059 23.297 40.5059C23.297 40.5059 18.122 41.6579 14.726 39.1041C11.33 36.5504 11 31.2591 11 31.2591C11 31.2591 16.175 30.1071 19.571 32.6609Z" stroke="#D27AAA" stroke-width="1.5" stroke-linecap="round" stroke-linejoin="round"/>
<path d="M23.445 24.8467C23.7818 25.2135 24 25.4212 24 25.4212C24 25.4212 29.046 20.6827 29.046 14.8372C29.046 8.99175 24 4.254 24 4.254C22.2698 5.98887 20.885 8.03668 19.9193 10.2885" stroke="#D27AAA" stroke-width="1.5" stroke-linecap="round" stroke-linejoin="round"/>
<path d="M19.026 16.0245C18.9786 15.6305 18.9536 15.2341 18.951 14.8372C18.9734 13.2725 19.3016 11.7273 19.917 10.2885C18.2603 9.13134 16.4206 8.26143 14.475 7.71524C13.9107 9.73886 13.7076 11.8461 13.875 13.9402C15.4633 14.1498 16.9891 14.6938 18.3517 15.5362C18.585 15.69 18.807 15.8557 19.026 16.0245Z" stroke="#D27AAA" stroke-width="1.5" stroke-linecap="round" stroke-linejoin="round"/>
<path d="M19.9192 10.2885C19.3038 11.7273 18.9757 13.2725 18.9532 14.8373C18.9558 15.2341 18.9809 15.6305 19.0282 16.0245" stroke="#D27AAA" stroke-width="1.5" stroke-linecap="round" stroke-linejoin="round"/>
<path d="M16.854 24.7973C19.028 25.2316 21.2647 25.2484 23.445 24.8468C23.3302 24.7223 23.2012 24.5768 23.061 24.414" stroke="#D27AAA" stroke-width="1.5" stroke-linecap="round" stroke-linejoin="round"/>
<path d="M13.875 13.9425C11.7928 13.6573 9.6765 13.7421 7.62375 14.193C8.1712 16.7247 9.27825 19.1018 10.8637 21.15" stroke="#D27AAA" stroke-width="1.5" stroke-linecap="round" stroke-linejoin="round"/>
<path d="M23.061 24.414C23.2013 24.5768 23.3303 24.7223 23.445 24.8468" stroke="#D27AAA" stroke-width="1.5" stroke-linecap="round" stroke-linejoin="round"/>
<path d="M23.061 24.414C21.7402 22.8848 19.4498 19.7513 19.026 16.0245C18.807 15.8558 18.585 15.69 18.351 15.5385C16.9886 14.6961 15.463 14.1522 13.875 13.9425" stroke="#D27AAA" stroke-width="1.5" stroke-linecap="round" stroke-linejoin="round"/>
<path d="M28.974 16.0245C29.0214 15.6305 29.0464 15.2341 29.049 14.8372C29.0266 13.2725 28.6984 11.7273 28.083 10.2885C29.7397 9.13134 31.5794 8.26143 33.525 7.71524C34.0893 9.73886 34.2924 11.8461 34.125 13.9402C32.5367 14.1498 31.0109 14.6938 29.6482 15.5362C29.415 15.69 29.193 15.8557 28.974 16.0245Z" stroke="#D27AAA" stroke-width="1.5" stroke-linecap="round" stroke-linejoin="round"/>
<path d="M34.125 13.9425C36.2072 13.6573 38.3235 13.7421 40.3762 14.193C40.3762 14.193 39.2062 20.4675 34.668 23.3745C30.99 25.7325 26.2252 25.1513 24.555 24.8468C24.6697 24.7223 24.7987 24.5768 24.939 24.414" stroke="#D27AAA" stroke-width="1.5" stroke-linecap="round" stroke-linejoin="round"/>
<path d="M24.939 24.414C26.2597 22.8848 28.5502 19.7513 28.974 16.0245C29.193 15.8558 29.415 15.69 29.649 15.5385C31.0114 14.6961 32.537 14.1522 34.125 13.9425" stroke="#D27AAA" stroke-width="1.5" stroke-linecap="round" stroke-linejoin="round"/>
<path d="M19.026 16.0245C19.4498 19.7513 21.7403 22.8848 23.061 24.414" stroke="#D27AAA" stroke-width="1.5" stroke-linecap="round" stroke-linejoin="round"/>
<path d="M24.012 13.2195V43.2187" stroke="#D27AAA" stroke-width="1.5" stroke-linecap="round" stroke-linejoin="round"/>
<path d="M17.5 36L24 40.5" stroke="#D27AAA" stroke-width="1.5" stroke-linecap="round" stroke-linejoin="round"/>
<path d="M27.8145 29.6606C24.4192 32.2144 24.0885 37.5056 24.0885 37.5056C24.0885 37.5056 29.2635 38.6576 32.6602 36.1046C36.057 33.5516 36.3862 28.2589 36.3862 28.2589C36.3862 28.2589 31.2105 27.1076 27.8145 29.6606Z" stroke="#D27AAA" stroke-width="1.5" stroke-linecap="round" stroke-linejoin="round"/>
<path d="M31.8952 31.6354L24.0885 37.5056" stroke="#D27AAA" stroke-width="1.5" stroke-linecap="round" stroke-linejoin="round"/>
<path d="M13.4835 23.6078L13.1655 24.9405" stroke="#D27AAA" stroke-width="1.2" stroke-linecap="round" stroke-linejoin="round"/>
<path d="M12.627 27.2242L12.309 28.5562" stroke="#D27AAA" stroke-width="1.2" stroke-linecap="round" stroke-linejoin="round"/>
<path d="M15.3705 26.6693L14.0385 26.3513" stroke="#D27AAA" stroke-width="1.2" stroke-linecap="round" stroke-linejoin="round"/>
<path d="M11.7547 25.8128L10.422 25.4948" stroke="#D27AAA" stroke-width="1.2" stroke-linecap="round" stroke-linejoin="round"/>
<path d="M36.0615 37L35.7435 38.3328" stroke="#D27AAA" stroke-width="1.2" stroke-linecap="round" stroke-linejoin="round"/>
<path d="M35.205 40.6165L34.887 41.9485" stroke="#D27AAA" stroke-width="1.2" stroke-linecap="round" stroke-linejoin="round"/>
<path d="M37.9485 40.0615L36.6165 39.7435" stroke="#D27AAA" stroke-width="1.2" stroke-linecap="round" stroke-linejoin="round"/>
<path d="M34.3327 39.205L33 38.887" stroke="#D27AAA" stroke-width="1.2" stroke-linecap="round" stroke-linejoin="round"/>
</svg>
