<svg width="64" height="64" viewBox="0 0 64 64" fill="none" xmlns="http://www.w3.org/2000/svg">
<path d="M13.725 40.245L16.019 17.039L48.684 19.462L45.771 56.798L12.407 53.581L13.143 46.135" stroke="#257FD2" stroke-width="1.426" stroke-linecap="round" stroke-linejoin="round"/>
<path d="M48.684 19.462L53.322 52.681L45.771 56.798" stroke="#257FD2" stroke-width="1.426" stroke-linejoin="round"/>
<path d="M25.93 21.434L26.49 13.218C26.732 9.66202 29.812 6.97502 33.368 7.21802C36.924 7.46002 39.611 10.54 39.368 14.096L38.727 23.498" stroke="#257FD2" stroke-width="1.426" stroke-linecap="round" stroke-linejoin="round"/>
<path d="M8.64199 37.272L8.00699 39.931" stroke="#257FD2" stroke-width="1.5" stroke-linecap="round" stroke-linejoin="round"/>
<path d="M6.933 44.488L6.298 47.147" stroke="#257FD2" stroke-width="1.5" stroke-linecap="round" stroke-linejoin="round"/>
<path d="M12.407 43.381L9.74799 42.747" stroke="#257FD2" stroke-width="1.5" stroke-linecap="round" stroke-linejoin="round"/>
<path d="M5.19101 41.672L2.53201 41.037" stroke="#257FD2" stroke-width="1.5" stroke-linecap="round" stroke-linejoin="round"/>
<path d="M57.21 12.101L56.576 14.76" stroke="#257FD2" stroke-width="1.5" stroke-linecap="round" stroke-linejoin="round"/>
<path d="M55.501 19.317L54.867 21.976" stroke="#257FD2" stroke-width="1.5" stroke-linecap="round" stroke-linejoin="round"/>
<path d="M60.976 18.211L58.317 17.576" stroke="#257FD2" stroke-width="1.5" stroke-linecap="round" stroke-linejoin="round"/>
<path d="M53.76 16.502L51.101 15.867" stroke="#257FD2" stroke-width="1.5" stroke-linecap="round" stroke-linejoin="round"/>
</svg>
