<svg width="48" height="48" viewBox="0 0 48 48" fill="none" xmlns="http://www.w3.org/2000/svg">
<rect width="48" height="48" rx="24" fill="#EA867F"/>
<path d="M20.1741 28.1222L16.0318 23.9828C15.8086 23.7598 15.5058 23.6345 15.1902 23.6345C14.8745 23.6345 14.5718 23.7598 14.3486 23.9828C14.1254 24.2059 14 24.5084 14 24.8238C14 24.98 14.0308 25.1347 14.0906 25.279C14.1504 25.4233 14.2381 25.5544 14.3486 25.6648L19.3384 30.6511C19.804 31.1163 20.5561 31.1163 21.0216 30.6511L33.6514 18.0303C33.8746 17.8073 34 17.5048 34 17.1893C34 16.8739 33.8746 16.5714 33.6514 16.3483C33.4282 16.1253 33.1255 16 32.8098 16C32.4942 16 32.1914 16.1253 31.9682 16.3483L20.1741 28.1222Z" fill="white"/>
</svg>
