<svg width="64" height="64" viewBox="0 0 64 64" fill="none" xmlns="http://www.w3.org/2000/svg">
<path d="M35.52 58.66C35.13 58.66 34.74 58.6 34.36 58.47C33.41 58.16 32.63 57.5 32.18 56.61L17.77 28.36L20.87 18.81L37.38 10.39L46.93 13.49L61.34 41.74C61.8 42.63 61.88 43.65 61.57 44.6C61.26 45.55 60.6 46.33 59.71 46.78L37.24 58.24C36.7 58.51 36.12 58.65 35.54 58.65L35.52 58.66ZM19.38 28.24L33.51 55.93C33.78 56.47 34.25 56.86 34.82 57.05C35.39 57.24 36 57.19 36.54 56.91L59.01 45.45C60.11 44.89 60.56 43.53 59.99 42.42L45.86 14.73L37.49 12.02L22.09 19.88L19.38 28.25V28.24Z" fill="#EA867F"/>
<path d="M33 26.62C32.53 26.62 32.05 26.55 31.59 26.39C30.43 26.01 29.49 25.21 28.93 24.12C28.38 23.03 28.28 21.8 28.65 20.64C29.03 19.48 29.83 18.54 30.92 17.98C32.34 17.26 34 17.32 35.37 18.14C36.09 18.58 36.68 19.21 37.07 19.97C38.21 22.21 37.32 24.97 35.08 26.11C34.43 26.44 33.72 26.61 33.01 26.61L33 26.62ZM33 18.99C32.52 18.99 32.05 19.1 31.61 19.33C30.88 19.7 30.34 20.34 30.09 21.12C29.84 21.9 29.9 22.73 30.28 23.46C30.66 24.19 31.29 24.73 32.07 24.98C32.85 25.23 33.68 25.17 34.41 24.79C35.92 24.02 36.52 22.17 35.75 20.67C35.49 20.16 35.1 19.74 34.61 19.44C34.12 19.14 33.57 18.99 33.02 18.99H33Z" fill="#EA867F"/>
<path d="M29.22 40.23L29.5 38.98C30.23 39.13 30.88 39.13 31.52 38.81C32.03 38.55 32.23 38.2 32.06 37.87V37.85C31.89 37.54 31.61 37.47 30.56 37.71C29.28 38.01 28.39 38.05 27.82 36.94V36.92C27.29 35.9 27.76 34.81 28.91 34.23C29.74 33.81 30.55 33.72 31.36 33.88L31.19 35.14C30.51 35.05 29.93 35.09 29.45 35.33C28.97 35.58 28.83 35.91 28.98 36.19V36.21C29.18 36.59 29.48 36.57 30.58 36.33C31.87 36.05 32.72 36.13 33.22 37.11V37.13C33.8 38.25 33.27 39.3 32.06 39.92C31.2 40.36 30.2 40.5 29.22 40.24V40.23Z" fill="#EA867F"/>
<path d="M33.91 31.75L35.05 31.17L40.34 35.6L39.05 36.26L37.89 35.26L35.52 36.47L35.65 37.99L34.39 38.63L33.91 31.75ZM36.89 34.39L35.22 32.95L35.4 35.15L36.89 34.39Z" fill="#EA867F"/>
<path d="M38.18 29.62L39.42 28.99L41.71 33.48L44.51 32.05L45.08 33.17L41.05 35.23L38.19 29.62H38.18Z" fill="#EA867F"/>
<path d="M42.98 27.17L47.21 25.01L47.77 26.11L44.76 27.64L45.34 28.78L47.99 27.43L48.55 28.53L45.9 29.88L46.5 31.06L49.55 29.51L50.11 30.61L45.84 32.79L42.98 27.18V27.17Z" fill="#EA867F"/>
<path d="M33.48 45.96C33.21 45.96 32.94 45.81 32.81 45.55C32.62 45.18 32.77 44.73 33.14 44.54L51.12 35.37C51.49 35.18 51.94 35.33 52.13 35.7C52.32 36.07 52.17 36.52 51.8 36.71L33.82 45.88C33.71 45.94 33.59 45.96 33.48 45.96Z" fill="#EA867F"/>
<path d="M34.99 48.92C34.72 48.92 34.45 48.77 34.32 48.51C34.13 48.14 34.28 47.69 34.65 47.5L52.63 38.33C53 38.14 53.45 38.29 53.64 38.66C53.83 39.03 53.68 39.48 53.31 39.67L35.33 48.84C35.22 48.9 35.1 48.92 34.99 48.92Z" fill="#EA867F"/>
<path d="M32.08 20.74C29.06 20.74 26.59 17.84 26.59 14.28C26.59 10.72 29.05 7.83002 32.08 7.83002V9.33002C29.88 9.33002 28.09 11.55 28.09 14.28C28.09 17.01 29.88 19.24 32.08 19.24C32.78 19.24 33.76 19.1 35.08 18.04L36.02 19.21C34.72 20.26 33.47 20.74 32.08 20.74Z" fill="#EA867F"/>
<path d="M35.63 12.05C34.94 10.37 33.58 9.33002 32.07 9.33002V7.83002C34.2 7.83002 36.09 9.23002 37.01 11.48L35.62 12.05H35.63Z" fill="#EA867F"/>
<path d="M16.2283 46.1583C16.1683 46.1583 16.1083 46.1583 16.0583 46.1383C15.6583 46.0383 15.4083 45.6383 15.4983 45.2383L16.1283 42.5783C16.2283 42.1783 16.6283 41.9283 17.0283 42.0183C17.4283 42.1183 17.6783 42.5183 17.5883 42.9183L16.9583 45.5783C16.8783 45.9183 16.5683 46.1583 16.2283 46.1583Z" fill="#EA867F"/>
<path d="M14.5183 53.3784C14.4583 53.3784 14.3983 53.3784 14.3483 53.3584C13.9483 53.2584 13.6983 52.8584 13.7883 52.4584L14.4183 49.7984C14.5183 49.3984 14.9183 49.1484 15.3183 49.2384C15.7183 49.3384 15.9683 49.7384 15.8783 50.1384L15.2483 52.7984C15.1683 53.1384 14.8583 53.3784 14.5183 53.3784Z" fill="#EA867F"/>
<path d="M20.6283 49.6083C20.5683 49.6083 20.5083 49.6083 20.4583 49.5883L17.7983 48.9583C17.3983 48.8583 17.1483 48.4583 17.2383 48.0583C17.3383 47.6583 17.7383 47.3983 18.1383 47.4983L20.7983 48.1283C21.1983 48.2283 21.4483 48.6283 21.3583 49.0283C21.2783 49.3683 20.9683 49.6083 20.6283 49.6083Z" fill="#EA867F"/>
<path d="M13.4083 47.8984C13.3483 47.8984 13.2883 47.8984 13.2383 47.8784L10.5783 47.2484C10.1783 47.1484 9.92833 46.7484 10.0183 46.3484C10.1083 45.9484 10.5183 45.6884 10.9183 45.7884L13.5783 46.4184C13.9783 46.5184 14.2283 46.9184 14.1383 47.3184C14.0583 47.6584 13.7483 47.8984 13.4083 47.8984Z" fill="#EA867F"/>
</svg>
