<svg width="48" height="48" viewBox="0 0 48 48" fill="none" xmlns="http://www.w3.org/2000/svg">
<path d="M10.0642 28.764C10.0642 19.965 24.0277 4.88699 24.0277 4.88699C24.0277 4.88699 37.9912 19.962 37.9912 28.764C37.9912 37.566 32.175 43.113 24.0277 43.113C21.2005 43.1664 18.4191 42.3939 16.0245 40.89" stroke="#1867DD" stroke-width="1.5" stroke-linejoin="round"/>
<path d="M18.7628 24.8903L18.345 26.6393" stroke="#1867DD" stroke-width="1.2" stroke-linecap="round" stroke-linejoin="round"/>
<path d="M17.6385 29.6378L17.2208 31.3868" stroke="#1867DD" stroke-width="1.2" stroke-linecap="round" stroke-linejoin="round"/>
<path d="M21.24 28.9095L19.491 28.4918" stroke="#1867DD" stroke-width="1.2" stroke-linecap="round" stroke-linejoin="round"/>
<path d="M16.4925 27.7852L14.7435 27.3675" stroke="#1867DD" stroke-width="1.2" stroke-linecap="round" stroke-linejoin="round"/>
<path d="M14.8891 36L14.5891 37.2578" stroke="#1867DD" stroke-width="1.2" stroke-linecap="round" stroke-linejoin="round"/>
<path d="M14.0813 39.4125L13.7805 40.6703" stroke="#1867DD" stroke-width="1.2" stroke-linecap="round" stroke-linejoin="round"/>
<path d="M16.6703 38.889L15.4126 38.589" stroke="#1867DD" stroke-width="1.2" stroke-linecap="round" stroke-linejoin="round"/>
<path d="M13.2578 38.0813L12 37.7812" stroke="#1867DD" stroke-width="1.2" stroke-linecap="round" stroke-linejoin="round"/>
<path d="M10.1193 31L9.79526 32.3575" stroke="#1867DD" stroke-width="1.2" stroke-linecap="round" stroke-linejoin="round"/>
<path d="M9.247 34.6848L8.923 36.043" stroke="#1867DD" stroke-width="1.2" stroke-linecap="round" stroke-linejoin="round"/>
<path d="M12.0423 34.12L10.6848 33.7952" stroke="#1867DD" stroke-width="1.2" stroke-linecap="round" stroke-linejoin="round"/>
<path d="M8.35753 33.247L7.00003 32.923" stroke="#1867DD" stroke-width="1.2" stroke-linecap="round" stroke-linejoin="round"/>
<path d="M33.5475 30.7133C33.4926 31.8409 33.2035 32.9447 32.6986 33.9544C32.1937 34.9642 31.4841 35.8578 30.615 36.5783" stroke="#1867DD" stroke-width="1.5" stroke-linecap="round" stroke-linejoin="round"/>
</svg>
