<svg width="48" height="48" viewBox="0 0 48 48" fill="none" xmlns="http://www.w3.org/2000/svg">
<path d="M6.23324 34.5547C5.67886 32.8267 5.48809 31.0026 5.67292 29.1973C5.85775 27.3919 6.41419 25.6443 7.30724 24.0645L30.279 37.017C29.2223 38.8888 27.7243 40.4741 25.9152 41.6349C24.1062 42.7958 22.0409 43.497 19.8991 43.6777C17.7572 43.8584 15.6036 43.513 13.6257 42.6716C12.6005 42.2355 11.6386 41.673 10.761 41" stroke="#DEC800" stroke-width="1.5" stroke-miterlimit="10"/>
<path d="M17.9422 28.2592V14.1037C17.9422 11.4126 19.0112 8.83164 20.9141 6.92864C22.817 5.02563 25.3978 3.95644 28.089 3.95624C30.7802 3.95644 33.3611 5.02561 35.2641 6.92859C37.1671 8.83157 38.2363 11.4125 38.2365 14.1037V33.9C38.2363 36.5912 37.1671 39.1722 35.2641 41.0751C33.3611 42.9781 30.7802 44.0473 28.089 44.0475C27.4023 44.0477 26.7173 43.9786 26.0445 43.8412" stroke="#DEC800" stroke-width="1.5" stroke-miterlimit="10"/>
<path d="M17.88 22.9583H38.1735" stroke="#DEC800" stroke-width="1.5" stroke-miterlimit="10"/>
<path d="M26.8327 35.244C26.2409 36.3254 25.4403 37.2785 24.4773 38.0481C23.5143 38.8177 22.4081 39.3885 21.2228 39.7273C20.0376 40.0661 18.7968 40.1662 17.5726 40.0219C16.3483 39.8775 15.1649 39.4915 14.091 38.8862C13.017 38.281 12.0739 37.4685 11.3164 36.496C10.5589 35.5235 10.002 34.4102 9.67796 33.2208C9.35396 32.0314 9.26933 30.7895 9.42898 29.5671C9.58863 28.3448 9.98938 27.1663 10.608 26.1" stroke="#DEC800" stroke-width="1.5" stroke-miterlimit="10"/>
<path d="M18.72 30.6705L10.257 34.554" stroke="#DEC800" stroke-width="1.5" stroke-miterlimit="10"/>
<path d="M18.72 30.6705L19.7768 39.9218" stroke="#DEC800" stroke-width="1.5" stroke-miterlimit="10"/>
<path d="M12.9997 16.0447L12.6817 17.3767" stroke="#DEC800" stroke-width="1.2" stroke-linecap="round" stroke-linejoin="round"/>
<path d="M12.1433 19.6605L11.8253 20.9932" stroke="#DEC800" stroke-width="1.2" stroke-linecap="round" stroke-linejoin="round"/>
<path d="M14.8867 19.1062L13.554 18.7882" stroke="#DEC800" stroke-width="1.2" stroke-linecap="round" stroke-linejoin="round"/>
<path d="M11.2702 18.2497L9.93823 17.9317" stroke="#DEC800" stroke-width="1.2" stroke-linecap="round" stroke-linejoin="round"/>
<path d="M8.0615 36L7.7435 37.332" stroke="#DEC800" stroke-width="1.2" stroke-linecap="round" stroke-linejoin="round"/>
<path d="M7.20499 39.6157L6.88699 40.9485" stroke="#DEC800" stroke-width="1.2" stroke-linecap="round" stroke-linejoin="round"/>
<path d="M9.94849 39.0615L8.61649 38.7435" stroke="#DEC800" stroke-width="1.2" stroke-linecap="round" stroke-linejoin="round"/>
<path d="M6.33272 38.205L4.99997 37.887" stroke="#DEC800" stroke-width="1.2" stroke-linecap="round" stroke-linejoin="round"/>
</svg>
