<svg width="64" height="64" viewBox="0 0 64 64" fill="none" xmlns="http://www.w3.org/2000/svg">
<g clip-path="url(#clip0_3715_15192)">
<path d="M37.56 14.29H36.06C36.06 11.56 34.27 9.34003 32.07 9.34003V7.84003C35.09 7.84003 37.56 10.74 37.56 14.29Z" fill="#212121"/>
<path d="M44.61 56.17H19.39C17.32 56.17 15.64 54.49 15.64 52.42V20.71L22.74 13.61H41.27L48.37 20.71V52.42C48.37 54.49 46.69 56.17 44.62 56.17H44.61ZM17.14 21.33V52.42C17.14 53.66 18.15 54.67 19.39 54.67H44.61C45.85 54.67 46.86 53.66 46.86 52.42V21.33L40.64 15.11H23.35L17.13 21.33H17.14Z" fill="#212121"/>
<path d="M32.08 26.58C29.56 26.58 27.51 24.53 27.51 22.01C27.51 19.49 29.56 17.44 32.08 17.44C33.18 17.44 34.24 17.84 35.07 18.56C36.07 19.43 36.64 20.68 36.64 22.01C36.64 24.53 34.59 26.58 32.07 26.58H32.08ZM32.08 18.95C30.39 18.95 29.01 20.33 29.01 22.02C29.01 23.71 30.39 25.09 32.08 25.09C33.77 25.09 35.15 23.71 35.15 22.02C35.15 21.13 34.77 20.29 34.09 19.7C33.53 19.22 32.82 18.95 32.08 18.95Z" fill="#212121"/>
<path d="M20.43 36.46L21.25 35.48C21.83 35.95 22.41 36.25 23.13 36.25C23.71 36.25 24.04 36.02 24.04 35.66V35.64C24.04 35.29 23.82 35.1 22.77 34.84C21.49 34.53 20.68 34.16 20.68 32.91V32.89C20.68 31.75 21.59 30.99 22.89 30.99C23.82 30.99 24.58 31.28 25.23 31.79L24.51 32.83C23.94 32.44 23.41 32.21 22.87 32.21C22.33 32.21 22.06 32.44 22.06 32.76V32.78C22.06 33.2 22.33 33.32 23.42 33.61C24.7 33.95 25.42 34.4 25.42 35.5V35.52C25.42 36.77 24.47 37.47 23.11 37.47C22.15 37.47 21.19 37.15 20.44 36.46H20.43Z" fill="#212121"/>
<path d="M28.46 31.04H29.74L32.44 37.39H30.99L30.41 35.98H27.75L27.17 37.39H25.76L28.46 31.04ZM29.92 34.74L29.08 32.7L28.24 34.74H29.91H29.92Z" fill="#212121"/>
<path d="M33.23 31.08H34.62V36.12H37.76V37.38H33.23V31.08Z" fill="#212121"/>
<path d="M38.62 31.08H43.37V32.31H39.99V33.59H42.96V34.82H39.99V36.14H43.41V37.37H38.61V31.07L38.62 31.08Z" fill="#212121"/>
<path d="M42.17 43.61H21.98C21.57 43.61 21.23 43.27 21.23 42.86C21.23 42.45 21.57 42.11 21.98 42.11H42.17C42.58 42.11 42.92 42.45 42.92 42.86C42.92 43.27 42.58 43.61 42.17 43.61Z" fill="#212121"/>
<path d="M42.17 46.92H21.98C21.57 46.92 21.23 46.58 21.23 46.17C21.23 45.76 21.57 45.42 21.98 45.42H42.17C42.58 45.42 42.92 45.76 42.92 46.17C42.92 46.58 42.58 46.92 42.17 46.92Z" fill="#212121"/>
<path d="M32.08 20.74C29.06 20.74 26.59 17.84 26.59 14.28C26.59 10.72 29.05 7.83002 32.08 7.83002V9.33002C29.88 9.33002 28.09 11.55 28.09 14.28C28.09 17.01 29.88 19.24 32.08 19.24C32.81 19.24 32.88 19.2 33.75 18.74L34.1 18.55L34.8 19.88L34.46 20.06C33.51 20.56 33.19 20.73 32.09 20.73L32.08 20.74Z" fill="#212121"/>
</g>
<defs>
<clipPath id="clip0_3715_15192">
<rect width="64" height="64" fill="white"/>
</clipPath>
</defs>
</svg>
