<svg width="48" height="48" viewBox="0 0 48 48" fill="none" xmlns="http://www.w3.org/2000/svg">
<rect width="48" height="48" rx="24" fill="white"/>
<path d="M35.9746 16.4335L31.9671 14.1402L27.9017 11.8121C25.2146 10.2717 21.8557 12.2059 21.8557 15.31V15.8312C21.8557 16.1207 22.0063 16.3871 22.2611 16.5261L24.149 17.6033C24.6702 17.9044 25.3188 17.5222 25.3188 16.9199V15.6806C25.3188 15.0668 25.979 14.6845 26.5118 14.9857L30.2182 17.1168L33.9129 19.2364C34.4457 19.5375 34.4457 20.3136 33.9129 20.6147L30.2182 22.7343L26.5118 24.8654C25.979 25.1666 25.3188 24.7843 25.3188 24.1705V23.5566C25.3188 20.4526 21.9599 18.5067 19.2728 20.0587L15.219 22.3984L11.2115 24.6917C8.51283 26.2437 8.51283 30.147 11.2115 31.699L15.219 33.9923L19.2844 36.3204C21.9715 37.8608 25.3304 35.9266 25.3304 32.8225V32.3013C25.3304 32.0117 25.1798 31.7453 24.925 31.6064L23.0371 30.5292C22.5159 30.2281 21.8673 30.6103 21.8673 31.2126V32.4519C21.8673 33.0657 21.2071 33.448 20.6743 33.1468L16.9679 31.0157L13.2732 28.8961C12.7404 28.5949 12.7404 27.8189 13.2732 27.5178L16.9679 25.3982L20.6743 23.2671C21.2071 22.9659 21.8673 23.3481 21.8673 23.962V24.5759C21.8673 27.6799 25.2262 29.6258 27.9133 28.0737L31.9787 25.7457L35.9862 23.4524C38.6733 21.8888 38.6733 17.9855 35.9746 16.4335Z" fill="#9CB070"/>
</svg>
