<svg width="48" height="48" viewBox="0 0 48 48" fill="none" xmlns="http://www.w3.org/2000/svg">
<path d="M18.4823 15.9427H29.5178" stroke="#6105BE" stroke-width="1.5" stroke-linecap="round" stroke-linejoin="round"/>
<path d="M24 13.2555L20.1232 9.92251C19.5345 9.41618 19.1709 8.69669 19.1126 7.92233C19.0838 7.53891 19.1307 7.15355 19.2508 6.78826C19.3708 6.42298 19.5617 6.08492 19.8124 5.79338C20.0631 5.50185 20.3688 5.26255 20.7119 5.08915C21.0551 4.91575 21.4291 4.81164 21.8125 4.78278C22.5869 4.72448 23.3527 4.97618 23.9415 5.48251L24 5.53201L24.0577 5.48251C24.6465 4.97608 25.4124 4.72428 26.1868 4.78251C26.9612 4.84074 27.6808 5.20423 28.1872 5.79301C28.6937 6.38179 28.9455 7.14763 28.8872 7.92206C28.829 8.6965 28.4655 9.41608 27.8767 9.92251L24 13.2555Z" stroke="#6105BE" stroke-width="1.5" stroke-linecap="round" stroke-linejoin="round"/>
<path d="M36.8063 43.2255L32.61 36.4373H15.39L11.1938 43.2255H36.8063Z" stroke="#6105BE" stroke-width="1.5" stroke-linecap="round" stroke-linejoin="round"/>
<path d="M19.8863 29.1637L21.216 27.0135V15.9427H26.784V27.0135L36.8063 43.2255H11.1938L17.0708 33.7185" stroke="#6105BE" stroke-width="1.5" stroke-linecap="round" stroke-linejoin="round"/>
<path d="M21.0555 7.69875C21.3649 7.69875 21.6158 7.44791 21.6158 7.1385C21.6158 6.82908 21.3649 6.57825 21.0555 6.57825C20.7461 6.57825 20.4953 6.82908 20.4953 7.1385C20.4953 7.44791 20.7461 7.69875 21.0555 7.69875Z" fill="#6105BE"/>
<path d="M16.326 27.5378L16.008 28.8705" stroke="#6105BE" stroke-width="1.2" stroke-linecap="round" stroke-linejoin="round"/>
<path d="M15.4695 31.1543L15.1515 32.487" stroke="#6105BE" stroke-width="1.2" stroke-linecap="round" stroke-linejoin="round"/>
<path d="M18.213 30.5992L16.881 30.2812" stroke="#6105BE" stroke-width="1.2" stroke-linecap="round" stroke-linejoin="round"/>
<path d="M14.5972 29.7435L13.2645 29.4248" stroke="#6105BE" stroke-width="1.2" stroke-linecap="round" stroke-linejoin="round"/>
<path d="M33.2325 17.7878L32.9145 19.1198" stroke="#6105BE" stroke-width="1.2" stroke-linecap="round" stroke-linejoin="round"/>
<path d="M32.376 21.4035L32.058 22.7363" stroke="#6105BE" stroke-width="1.2" stroke-linecap="round" stroke-linejoin="round"/>
<path d="M35.1195 20.8492L33.7867 20.5312" stroke="#6105BE" stroke-width="1.2" stroke-linecap="round" stroke-linejoin="round"/>
<path d="M31.503 19.9927L30.171 19.6747" stroke="#6105BE" stroke-width="1.2" stroke-linecap="round" stroke-linejoin="round"/>
</svg>
