<svg width="65" height="65" viewBox="0 0 65 65" fill="none" xmlns="http://www.w3.org/2000/svg">
<path d="M39.86 22.51H25.15C24.74 22.51 24.4 22.17 24.4 21.76C24.4 21.35 24.74 21.01 25.15 21.01H39.86C40.27 21.01 40.61 21.35 40.61 21.76C40.61 22.17 40.27 22.51 39.86 22.51Z" fill="#212121"/>
<path d="M49.58 58.13H15.42L28.79 36.52V21.76H36.21V36.52L49.58 58.13Z" fill="white"/>
<path d="M32.5 18.17L27.33 13.73C25.7 12.32 25.51 9.86 26.92 8.22C28.33 6.59 30.79 6.4 32.43 7.81L32.51 7.88L32.59 7.81C34.22 6.4 36.69 6.59 38.1 8.22C39.51 9.85 39.32 12.32 37.69 13.73L32.52 18.17H32.5Z" fill="#FDCECB"/>
<path d="M32.5 19.1L26.88 14.26C24.96 12.6 24.74 9.69 26.39 7.77C27.19 6.84 28.31 6.27 29.54 6.18C30.6 6.1 31.64 6.38 32.51 6.99C33.38 6.39 34.42 6.1 35.48 6.18C36.71 6.27 37.82 6.84 38.63 7.77C39.43 8.7 39.82 9.89 39.73 11.12C39.64 12.35 39.07 13.46 38.14 14.27L32.51 19.11L32.5 19.1ZM29.88 7.57C28.98 7.57 28.08 7.95 27.45 8.68C26.3 10.02 26.45 12.05 27.79 13.2L32.5 17.25L37.21 13.2C38.55 12.05 38.7 10.02 37.55 8.68C36.4 7.34 34.37 7.19 33.03 8.34L32.5 8.8L31.96 8.34C31.36 7.82 30.61 7.57 29.87 7.57H29.88Z" fill="#212121"/>
<path d="M49.58 58.13L43.98 49.08H21.02L15.42 58.13H49.58Z" fill="#FDCECB"/>
<path d="M49.58 58.88H15.42C15.15 58.88 14.9 58.73 14.76 58.5C14.63 58.26 14.63 57.97 14.78 57.74L28.03 36.3V21.75C28.03 21.34 28.37 21 28.78 21H36.2C36.61 21 36.95 21.34 36.95 21.75V36.3L50.2 57.74C50.34 57.97 50.35 58.26 50.22 58.5C50.09 58.74 49.84 58.88 49.56 58.88H49.58ZM16.77 57.38H48.23L35.57 36.91C35.5 36.79 35.46 36.65 35.46 36.52V22.51H29.54V36.52C29.54 36.66 29.5 36.8 29.43 36.91L16.77 57.38Z" fill="#212121"/>
<path d="M28.57 11.14C29.1886 11.14 29.69 10.6386 29.69 10.02C29.69 9.40144 29.1886 8.9 28.57 8.9C27.9514 8.9 27.45 9.40144 27.45 10.02C27.45 10.6386 27.9514 11.14 28.57 11.14Z" fill="white"/>
</svg>
