<svg width="36" height="36" viewBox="0 0 36 36" fill="none" xmlns="http://www.w3.org/2000/svg">
<path d="M1 11.625H35L33.2256 31.1346C33.1297 32.1906 32.6425 33.1725 31.8597 33.8877C31.0769 34.6028 30.055 34.9996 28.9948 35H7.00525C5.94496 34.9996 4.92311 34.6028 4.14032 33.8877C3.35753 33.1725 2.87033 32.1906 2.77438 31.1346L1 11.625Z" stroke="#B25852" stroke-width="2" stroke-linejoin="round"/>
<path d="M9.50024 15.875V9.5C9.50024 7.24566 10.3958 5.08365 11.9898 3.48959C13.5839 1.89553 15.7459 1 18.0002 1C20.2546 1 22.4166 1.89553 24.0107 3.48959C25.6047 5.08365 26.5002 7.24566 26.5002 9.5V15.875" stroke="#B25852" stroke-width="2" stroke-linecap="round"/>
<path d="M17.543 29.2285L12.3333 24.0188L14.9381 21.414L17.543 18.8091" stroke="#B25852" stroke-width="2" stroke-linecap="round" stroke-linejoin="round"/>
<path d="M13.4627 24.0195L23.7947 24.0195" stroke="#B25852" stroke-width="2" stroke-linecap="round"/>
</svg>
