<svg width="48" height="48" viewBox="0 0 48 48" fill="none" xmlns="http://www.w3.org/2000/svg">
<path d="M11.5283 27.5482L11.2103 28.881" stroke="#1BB83D" stroke-width="1.2" stroke-linecap="round" stroke-linejoin="round"/>
<path d="M10.6717 31.1647L10.3537 32.4967" stroke="#1BB83D" stroke-width="1.2" stroke-linecap="round" stroke-linejoin="round"/>
<path d="M13.4153 30.6097L12.0833 30.2917" stroke="#1BB83D" stroke-width="1.2" stroke-linecap="round" stroke-linejoin="round"/>
<path d="M9.7995 29.7532L8.46675 29.4352" stroke="#1BB83D" stroke-width="1.2" stroke-linecap="round" stroke-linejoin="round"/>
<path d="M35.8995 34.683L35.5815 36.0157" stroke="#1BB83D" stroke-width="1.2" stroke-linecap="round" stroke-linejoin="round"/>
<path d="M35.043 38.2995L34.725 39.6315" stroke="#1BB83D" stroke-width="1.2" stroke-linecap="round" stroke-linejoin="round"/>
<path d="M37.7865 37.7445L36.4545 37.4265" stroke="#1BB83D" stroke-width="1.2" stroke-linecap="round" stroke-linejoin="round"/>
<path d="M34.1707 36.888L32.838 36.57" stroke="#1BB83D" stroke-width="1.2" stroke-linecap="round" stroke-linejoin="round"/>
<path d="M16.8847 32.9205C18.3324 32.9208 19.761 32.5898 21.061 31.9528C22.361 31.3158 23.4979 30.3897 24.3847 29.2455C25.273 30.2611 26.3685 31.0748 27.5975 31.6317C28.8265 32.1886 30.1605 32.4759 31.5098 32.4742C33.8519 32.4753 36.1119 31.6117 37.8566 30.0491C39.6013 28.4866 40.7077 26.335 40.9639 24.0069C41.22 21.6789 40.6078 19.3382 39.2445 17.4337C37.8813 15.5292 35.8631 14.1949 33.5768 13.6867C33.5768 13.6117 33.588 13.533 33.588 13.455C33.5992 12.1991 33.3614 10.9534 32.8885 9.78982C32.4156 8.62627 31.7169 7.56792 30.8328 6.67587C29.9486 5.78383 28.8965 5.07576 27.7372 4.59254C26.5779 4.10932 25.3344 3.86053 24.0784 3.86053C22.8224 3.86053 21.5789 4.10932 20.4196 4.59254C19.2603 5.07576 18.2082 5.78383 17.324 6.67587C16.4398 7.56792 15.7411 8.62627 15.2682 9.78982C14.7953 10.9534 14.5576 12.1991 14.5687 13.455C14.5687 13.7025 14.5875 13.9462 14.6062 14.1892C13.3347 14.5025 12.1417 15.0751 11.1018 15.871C10.0619 16.6669 9.19761 17.669 8.56312 18.8146C7.92863 19.9601 7.5376 21.2244 7.41454 22.5281C7.29149 23.8319 7.43905 25.147 7.848 26.391" stroke="#1BB83D" stroke-width="1.5" stroke-miterlimit="10"/>
<path d="M24.423 16.9912V43.644" stroke="#1BB83D" stroke-width="1.5" stroke-miterlimit="10" stroke-linecap="round"/>
<path d="M17.8725 20.5807L24.423 25.6958" stroke="#1BB83D" stroke-width="1.5" stroke-miterlimit="10" stroke-linecap="round"/>
<path d="M24.423 22.1962L30.5258 18.9652" stroke="#1BB83D" stroke-width="1.5" stroke-miterlimit="10" stroke-linecap="round"/>
<path d="M16.0087 44.058H18.1905" stroke="#1BB83D" stroke-width="1.5" stroke-linecap="round" stroke-linejoin="round"/>
<path d="M20.1848 44.058H32.838" stroke="#1BB83D" stroke-width="1.5" stroke-linecap="round" stroke-linejoin="round"/>
</svg>
