<svg width="224" height="224" viewBox="0 0 224 224" fill="none" xmlns="http://www.w3.org/2000/svg">
<g clip-path="url(#clip0_2370_42809)">
<path d="M91.0144 33.3486C107.376 23.9024 134.747 11.6665 160.058 17.0287C193.416 24.0637 210.909 59.1118 215.468 69.678C216.601 72.2341 215.52 75.4061 212.954 77.1933C202.412 84.5534 165.413 108.106 132.056 101.071C98.6979 94.0362 81.204 58.988 76.6455 48.4218C75.5552 45.841 76.5935 42.6937 79.1594 40.9065C81.7253 39.1193 85.8111 36.4037 91.0364 33.3868L91.0144 33.3486ZM157.835 23.6628C127.462 17.2484 91.814 40.1738 83.6022 45.8322C87.2015 53.9456 103.862 87.9462 134.278 94.3358C164.65 100.75 200.298 77.8248 208.51 72.1665C204.889 64.0148 188.25 30.0525 157.835 23.6628Z" fill="#F2E8E8"/>
<path d="M66.7333 25.8106C68.4894 24.7967 70.6959 25.2554 71.6005 26.8223L140.378 145.948C141.282 147.515 140.576 149.655 138.82 150.669C137.064 151.683 134.858 151.224 133.953 149.657L65.1759 30.5316C64.2713 28.9646 64.9773 26.8245 66.7333 25.8106Z" fill="#F2E8E8"/>
<path d="M76.2803 41.8538C77.0941 41.384 78.0623 41.1817 78.9709 41.3706L148.161 54.9796C150.086 55.3461 151.123 57.1423 150.543 59.006C149.963 60.8696 147.95 62.0319 146.025 61.6654L76.8346 48.0564C74.9098 47.6899 73.8727 45.8936 74.4529 44.03C74.7643 43.0858 75.4016 42.3102 76.2582 41.8156L76.2803 41.8538Z" fill="#F2E8E8"/>
<path d="M61.5896 50.3367C66.8149 47.3199 71.2096 45.1393 74.0403 43.8107C76.871 42.4821 80.1158 43.1566 81.8057 45.3913C88.6771 54.6221 110.261 87.2581 99.6963 119.702C89.1098 152.109 50.2352 172.413 38.5683 177.824C35.7376 179.152 32.4928 178.478 30.8029 176.243C23.9316 167.012 2.34801 134.376 12.9124 101.932C20.9239 77.3311 45.2062 59.7447 61.5675 50.2985L61.5896 50.3367ZM76.1067 50.1594C67.1006 54.4418 29.4654 73.8265 19.7913 103.362C10.1601 132.872 31.2323 164.326 36.4591 171.5C45.4652 167.217 83.1004 147.833 92.7745 118.297C102.406 88.7867 81.3335 57.3332 76.1067 50.1594Z" fill="#F2E8E8"/>
<path d="M96.9273 105.959C98.7186 100.529 100.493 96.1892 101.694 93.4423C102.894 90.6954 105.923 88.9469 108.917 89.2362C121.198 90.505 162.514 96.8103 178.706 124.575C194.851 152.331 179.915 191.366 174.919 202.646C173.718 205.393 170.69 207.141 167.696 206.852C155.414 205.583 114.099 199.278 97.9068 171.513C85.6304 150.459 91.2723 122.952 96.8814 105.95L96.9273 105.959ZM108.074 96.1003C104.297 104.875 89.6317 142.492 104.327 167.806C119.038 193.075 159.067 198.97 168.524 200.032C172.301 191.258 186.966 153.641 172.27 128.327C157.56 103.058 117.531 97.1624 108.074 96.1003Z" fill="#F2E8E8"/>
<path d="M76.2805 41.8546C77.0943 41.3847 78.1274 41.1959 79.1009 41.3983C81.0049 41.8277 81.9991 43.6487 81.3969 45.4741L58.5874 112.199C57.9424 114.05 55.9073 115.174 54.0253 114.782C52.1212 114.353 51.127 112.532 51.7292 110.707L74.5387 43.9812C74.8723 43.0753 75.5316 42.3379 76.3026 41.8928L76.2805 41.8546Z" fill="#F2E8E8"/>
</g>
<defs>
<clipPath id="clip0_2370_42809">
<rect width="224" height="224" fill="white"/>
</clipPath>
</defs>
</svg>
