<svg width="48" height="48" viewBox="0 0 48 48" fill="none" xmlns="http://www.w3.org/2000/svg">
<path d="M11.5692 27L11.1987 28.5532" stroke="#09A6B0" stroke-width="1.2" stroke-linecap="round" stroke-linejoin="round"/>
<path d="M10.571 31.2158L10.1998 32.7698" stroke="#09A6B0" stroke-width="1.2" stroke-linecap="round" stroke-linejoin="round"/>
<path d="M13.769 30.5693L12.2158 30.1988" stroke="#09A6B0" stroke-width="1.2" stroke-linecap="round" stroke-linejoin="round"/>
<path d="M9.55325 29.571L8 29.2005" stroke="#09A6B0" stroke-width="1.2" stroke-linecap="round" stroke-linejoin="round"/>
<path d="M41.5365 7.71524L41.166 9.26849" stroke="#09A6B0" stroke-width="1.2" stroke-linecap="round" stroke-linejoin="round"/>
<path d="M40.5383 11.9317L40.167 13.485" stroke="#09A6B0" stroke-width="1.2" stroke-linecap="round" stroke-linejoin="round"/>
<path d="M43.7363 11.2845L42.183 10.914" stroke="#09A6B0" stroke-width="1.2" stroke-linecap="round" stroke-linejoin="round"/>
<path d="M39.5205 10.2862L37.9673 9.91574" stroke="#09A6B0" stroke-width="1.2" stroke-linecap="round" stroke-linejoin="round"/>
<path d="M42.555 19.2465H5.76001L14.7435 10.3853H33.5723L42.555 19.2465Z" stroke="#09A6B0" stroke-width="1.5" stroke-linecap="round" stroke-linejoin="round"/>
<path d="M29.241 10.3853L33.8287 19.2465L24.1575 41.76L14.487 19.2465L19.0747 10.3853" stroke="#09A6B0" stroke-width="1.5" stroke-linecap="round" stroke-linejoin="round"/>
<path d="M9.95701 24.4755L5.76001 19.2465" stroke="#09A6B0" stroke-width="1.5" stroke-linecap="round" stroke-linejoin="round"/>
<path d="M42.555 19.2465L24.1575 42.1695L16.5 32.5" stroke="#09A6B0" stroke-width="1.5" stroke-linecap="round" stroke-linejoin="round"/>
</svg>
