<svg width="26" height="26" viewBox="0 0 26 26" fill="none" xmlns="http://www.w3.org/2000/svg">
<path d="M5.47369 9.70394H20.5263L19.7408 18.3413C19.6983 18.8088 19.4826 19.2435 19.136 19.5602C18.7895 19.8768 18.3371 20.0524 17.8676 20.0526H8.13236C7.66294 20.0524 7.21055 19.8768 6.86399 19.5602C6.51743 19.2435 6.30173 18.8088 6.25925 18.3413L5.47369 9.70394Z" stroke="#212121" stroke-width="1.2" stroke-linejoin="round"/>
<path d="M9.23688 11.5855V8.76311C9.23688 7.76506 9.63335 6.80788 10.3391 6.10215C11.0448 5.39643 12.002 4.99995 13 4.99995C13.9981 4.99995 14.9553 5.39643 15.661 6.10215C16.3667 6.80788 16.7632 7.76506 16.7632 8.76311V11.5855" stroke="#212121" stroke-width="1.2" stroke-linecap="round"/>
</svg>
