<svg width="48" height="48" viewBox="0 0 48 48" fill="none" xmlns="http://www.w3.org/2000/svg">
<path d="M11.16 33.7898L10.818 35.2223" stroke="#D73511" stroke-width="1.2" stroke-linecap="round" stroke-linejoin="round"/>
<path d="M10.2398 37.677L9.89775 39.1095" stroke="#D73511" stroke-width="1.2" stroke-linecap="round" stroke-linejoin="round"/>
<path d="M13.1888 37.0808L11.7563 36.7395" stroke="#D73511" stroke-width="1.2" stroke-linecap="round" stroke-linejoin="round"/>
<path d="M9.3015 36.1605L7.869 35.8185" stroke="#D73511" stroke-width="1.2" stroke-linecap="round" stroke-linejoin="round"/>
<path d="M38.1023 13.3485L37.7603 14.7803" stroke="#D73511" stroke-width="1.2" stroke-linecap="round" stroke-linejoin="round"/>
<path d="M37.182 17.235L36.84 18.6675" stroke="#D73511" stroke-width="1.2" stroke-linecap="round" stroke-linejoin="round"/>
<path d="M40.131 16.6388L38.6985 16.2975" stroke="#D73511" stroke-width="1.2" stroke-linecap="round" stroke-linejoin="round"/>
<path d="M36.2437 15.7185L34.8112 15.3765" stroke="#D73511" stroke-width="1.2" stroke-linecap="round" stroke-linejoin="round"/>
<path d="M9.9495 31.0178C9.64596 26.9779 10.8945 22.9744 13.4408 19.8233C17.4428 15.1988 23.9355 17.511 23.9355 17.511C23.9355 17.511 30.4275 15.1988 34.4295 19.8233C38.4315 24.4478 39.2295 32.541 35.7638 37.788C34.5769 39.5903 32.8109 40.9338 30.7573 41.5968C28.7037 42.2598 26.4854 42.2025 24.4688 41.4345L23.9355 41.0813L23.4015 41.4345C21.8239 42.0303 20.1168 42.1984 18.4533 41.9218C16.7898 41.6452 15.229 40.9337 13.929 39.8595" stroke="#D73511" stroke-width="1.5" stroke-linecap="round" stroke-linejoin="round"/>
<path d="M23.9355 17.511C25.7047 18.8018 27.1207 20.5169 28.0532 22.4985C28.9857 24.48 29.4047 26.6643 29.2718 28.8503C28.782 36.3653 25.9808 36.7208 25.9808 36.7208" stroke="#D73511" stroke-width="1.5" stroke-linecap="round" stroke-linejoin="round"/>
<path d="M23.3753 17.3453C24.55 15.9187 25.1606 14.1107 25.0913 12.264C25.0378 11.4036 24.7535 10.5734 24.2684 9.86078C23.7833 9.14813 23.1152 8.57929 22.3343 8.21402" stroke="#D73511" stroke-width="1.5" stroke-linecap="round" stroke-linejoin="round"/>
<path d="M25.1017 12.7815L28.071 11.2852" stroke="#D73511" stroke-width="1.5" stroke-linecap="round" stroke-linejoin="round"/>
<path d="M32.9595 12.06C30.6593 13.4273 28.98 12.7845 28.0905 11.2883C27.201 9.79201 27.4388 8.01001 29.7405 6.64201C32.0423 5.27401 36.423 6.33676 36.423 6.33676C36.423 6.33676 35.2605 10.6928 32.9595 12.06Z" stroke="#D73511" stroke-width="1.5" stroke-linecap="round" stroke-linejoin="round"/>
</svg>
