<svg width="36" height="36" viewBox="0 0 36 36" fill="none" xmlns="http://www.w3.org/2000/svg">
<path d="M34.5653 12.4143L31.0837 6.38285C26.9416 8.77523 22.9667 5.78476 22.9667 1H21.7637H14.8016H13.5986C13.5986 5.78476 9.62372 8.77523 5.48162 6.38285L2 12.4143C6.1421 14.8067 6.1421 20.7877 2 23.1788L5.48162 29.2103C9.62372 26.818 14.8016 29.8084 14.8016 34.5932H21.7637C21.7637 29.8084 26.9416 26.818 31.0837 29.2103L34.5653 23.1788C30.4232 20.7865 30.4232 14.8067 34.5653 12.4143Z" stroke="#B25852" stroke-width="2" stroke-linecap="round" stroke-linejoin="round"/>
<path d="M18.2821 23.6316C21.5039 23.6316 24.1157 21.019 24.1157 17.7963C24.1157 14.5735 21.5039 11.9609 18.2821 11.9609C15.0603 11.9609 12.4485 14.5735 12.4485 17.7963C12.4485 21.019 15.0603 23.6316 18.2821 23.6316Z" stroke="#B25852" stroke-width="2" stroke-linecap="round" stroke-linejoin="round"/>
</svg>
