<svg width="48" height="48" viewBox="0 0 48 48" fill="none" xmlns="http://www.w3.org/2000/svg">
<path d="M6.81975 17.6625L6.465 19.1498" stroke="#B10A5B" stroke-width="1.2" stroke-linecap="round" stroke-linejoin="round"/>
<path d="M5.86426 21.6982L5.50876 23.1847" stroke="#B10A5B" stroke-width="1.2" stroke-linecap="round" stroke-linejoin="round"/>
<path d="M8.92576 21.0795L7.43851 20.724" stroke="#B10A5B" stroke-width="1.2" stroke-linecap="round" stroke-linejoin="round"/>
<path d="M4.89 20.1232L3.4035 19.7685" stroke="#B10A5B" stroke-width="1.2" stroke-linecap="round" stroke-linejoin="round"/>
<path d="M33.153 6.16275L32.7982 7.65" stroke="#B10A5B" stroke-width="1.2" stroke-linecap="round" stroke-linejoin="round"/>
<path d="M32.1975 10.1985L31.8427 11.685" stroke="#B10A5B" stroke-width="1.2" stroke-linecap="round" stroke-linejoin="round"/>
<path d="M35.259 9.57974L33.7725 9.22424" stroke="#B10A5B" stroke-width="1.2" stroke-linecap="round" stroke-linejoin="round"/>
<path d="M31.2233 8.62349L29.7368 8.26874" stroke="#B10A5B" stroke-width="1.2" stroke-linecap="round" stroke-linejoin="round"/>
<path d="M16.5953 39.2783C16.8412 39.7889 17.1224 40.2819 17.4368 40.7535C21.4868 46.8465 29.259 43.4093 31.671 42.2798C34.083 41.1503 42.9405 34.0118 43.2825 24.3548C43.6245 14.6978 34.9208 13.992 34.9208 13.992C33.334 13.9132 31.7539 14.2468 30.3343 14.9602C28.9148 15.6736 27.7043 16.7426 26.8208 18.063C26.8208 18.063 26.6888 18.2408 26.5088 18.549" stroke="#B10A5B" stroke-width="1.5" stroke-linecap="round" stroke-linejoin="round"/>
<path d="M26.958 20.31C28.0988 21.4957 29.598 23.9235 27.1215 27.0517" stroke="#B10A5B" stroke-width="1.5" stroke-linecap="round" stroke-linejoin="round"/>
<path d="M27.1215 27.0517C29.5965 23.9235 28.0965 21.4957 26.958 20.31" stroke="#B10A5B" stroke-width="1.5" stroke-linecap="round" stroke-linejoin="round"/>
<path d="M21.0045 27.549C25.149 25.716 25.425 23.8905 25.5 21.8145C25.5388 21.0209 25.7199 20.2408 26.0348 19.5112C26.1727 19.1802 26.3325 18.8588 26.5133 18.549C26.137 17.3399 25.6035 16.1855 24.9263 15.1155C20.5553 8.2545 14.184 11.9197 14.184 11.9197C13.0462 12.6222 12.1096 13.6073 11.4656 14.7791C10.8216 15.951 10.492 17.2697 10.509 18.6067C10.5006 19.7439 10.8019 20.8618 11.3805 21.8407C12.3203 23.3145 12.9998 24.7125 11.0003 27.9615C9.00075 31.2105 9.1095 36.525 14.826 38.82C15.3931 39.0498 15.9879 39.2039 16.5953 39.2782C13.962 33.825 17.199 29.2327 21.0045 27.549Z" stroke="#B10A5B" stroke-width="1.5" stroke-linecap="round" stroke-linejoin="round"/>
<path d="M26.8785 27.3518C26.9655 27.2505 27.0465 27.1515 27.1215 27.0518C27.0428 27.1523 26.9655 27.2513 26.8785 27.3518ZM26.8785 27.3518C22.8675 32.0063 19.7678 28.2165 19.7678 28.2165" stroke="#B10A5B" stroke-width="1.5" stroke-linecap="round" stroke-linejoin="round"/>
<path d="M26.958 20.31C26.6771 20.0134 26.367 19.7458 26.0325 19.5113C25.7185 20.2409 25.5381 21.0211 25.5 21.8145C25.425 23.8905 25.1513 25.7145 21.0068 27.549C17.2013 29.2328 13.9643 33.822 16.5975 39.2783" stroke="#B10A5B" stroke-width="1.5" stroke-linecap="round" stroke-linejoin="round"/>
<path d="M10.461 29.013C10.461 29.013 14.4187 30.1627 14.979 25.0215C15.5392 19.8802 10.6515 19.9882 10.6515 19.9882" stroke="#B10A5B" stroke-width="1.5" stroke-linecap="round" stroke-linejoin="round"/>
<path d="M28.404 40.3425C30.4675 39.5746 32.2825 38.2587 33.654 36.5363" stroke="#B10A5B" stroke-width="1.5" stroke-linecap="round" stroke-linejoin="round"/>
<path d="M36 34.082C36.6472 33.4868 37.1842 32.782 37.5863 32" stroke="#B10A5B" stroke-width="1.5" stroke-linecap="round" stroke-linejoin="round"/>
</svg>
