<svg width="64" height="64" viewBox="0 0 64 64" fill="none" xmlns="http://www.w3.org/2000/svg">
<path d="M11.0001 24.125H53L50.8081 48.2251C50.6896 49.5295 50.0878 50.7424 49.1208 51.6259C48.1538 52.5093 46.8915 52.9994 45.5818 52.9999H18.4183C17.1086 52.9994 15.8463 52.5093 14.8793 51.6259C13.9124 50.7424 13.3105 49.5295 13.192 48.2251L11.0001 24.125Z" fill="#FDCECB"/>
<path fill-rule="evenodd" clip-rule="evenodd" d="M12.304 38.4616L13.192 48.2251C13.3105 49.5295 13.9124 50.7424 14.8793 51.6259C15.8463 52.5093 17.1086 52.9994 18.4183 52.9999H45.5818C46.8915 52.9994 48.1538 52.5093 49.1208 51.6259C50.0878 50.7424 50.6896 49.5295 50.8081 48.2251L51.6961 38.4616H12.304Z" fill="white"/>
<path d="M11.0001 24.125H53L50.8081 48.2251C50.6896 49.5295 50.0877 50.7424 49.1208 51.6259C48.1538 52.5093 46.8915 52.9994 45.5818 52.9999H18.4183C17.1086 52.9994 15.8463 52.5093 14.8793 51.6259C13.9124 50.7424 13.3105 49.5295 13.192 48.2251L11.0001 24.125Z" stroke="#212121" stroke-width="1.77778" stroke-linejoin="round"/>
<path d="M21.5001 29.3748V21.4999C21.5001 18.7151 22.6064 16.0444 24.5755 14.0753C26.5446 12.1062 29.2153 10.9999 32.0001 10.9999C34.7849 10.9999 37.4556 12.1062 39.4247 14.0753C41.3938 16.0444 42.5001 18.7151 42.5001 21.4999V29.3748" stroke="#212121" stroke-width="1.77778" stroke-linecap="round"/>
</svg>
