<svg width="65" height="65" viewBox="0 0 65 65" fill="none" xmlns="http://www.w3.org/2000/svg">
<path fill-rule="evenodd" clip-rule="evenodd" d="M8.39028 17.5162L20.3334 26.2745L32.7778 34.2745L56.7778 17.3856L57.084 17.1713C57.1912 17.5571 57.2484 17.962 57.2484 18.3791V46.6144C57.2484 49.2027 55.0461 51.3203 52.3543 51.3203H13.2014C10.5096 51.3203 8.30725 49.2027 8.30725 46.6144V38.1921V32.4968V18.3791C8.30725 18.0846 8.33577 17.7962 8.39028 17.5162Z" fill="#FDCECB"/>
<path d="M13.2014 13.6732H52.3543C55.0461 13.6732 57.2484 15.7909 57.2484 18.3791V46.6144C57.2484 49.2026 55.0461 51.3203 52.3543 51.3203H13.2014C10.5096 51.3203 8.30725 49.2026 8.30725 46.6144V38.1921V32.4967V18.3791C8.30725 15.7909 10.5096 13.6732 13.2014 13.6732Z" stroke="#212121" stroke-width="1.77778" stroke-linecap="round" stroke-linejoin="round"/>
<path d="M56.7778 17.3856L32.7778 34.3791L8.77783 17.3856" stroke="#212121" stroke-width="1.77778" stroke-linecap="round" stroke-linejoin="round"/>
</svg>
