<svg width="65" height="65" viewBox="0 0 65 65" fill="none" xmlns="http://www.w3.org/2000/svg">
<path d="M21.1122 18.8845C24.0776 17.4815 25.4055 14.0697 24.078 11.264C22.7506 8.45834 19.2706 7.32126 16.3052 8.72428C13.3397 10.1273 12.0119 13.5391 13.3393 16.3448C14.6667 19.1504 18.1468 20.2875 21.1122 18.8845Z" fill="#212121"/>
<path d="M51.6648 16.3373C52.9923 13.5317 51.6644 10.1199 48.699 8.71685C45.7336 7.31383 42.2535 8.45091 40.9261 11.2566C39.5987 14.0622 40.9265 17.474 43.8919 18.8771C46.8574 20.2801 50.3374 19.143 51.6648 16.3373Z" fill="#212121"/>
<path d="M32.5 56.89C45.5505 56.89 56.13 46.3105 56.13 33.26C56.13 20.2095 45.5505 9.63 32.5 9.63C19.4495 9.63 8.87 20.2095 8.87 33.26C8.87 46.3105 19.4495 56.89 32.5 56.89Z" fill="white"/>
<path d="M32.5 57.57C19.09 57.57 8.17999 46.66 8.17999 33.25C8.17999 19.84 19.09 8.94 32.5 8.94C45.91 8.94 56.82 19.85 56.82 33.26C56.82 46.67 45.91 57.58 32.5 57.58V57.57ZM32.5 10.32C19.85 10.32 9.55999 20.61 9.55999 33.26C9.55999 45.91 19.85 56.2 32.5 56.2C45.15 56.2 55.44 45.91 55.44 33.26C55.44 20.61 45.15 10.32 32.5 10.32Z" fill="#212121"/>
<path d="M27.2051 21.1923C28.9162 19.9582 29.8214 18.2896 29.227 17.4654C28.6326 16.6412 26.7636 16.9735 25.0524 18.2076C23.3413 19.4417 22.436 21.1103 23.0305 21.9345C23.6249 22.7587 25.4939 22.4264 27.2051 21.1923Z" fill="#212121"/>
<path d="M28.14 18.68C28.3775 18.68 28.57 18.4875 28.57 18.25C28.57 18.0125 28.3775 17.82 28.14 17.82C27.9025 17.82 27.71 18.0125 27.71 18.25C27.71 18.4875 27.9025 18.68 28.14 18.68Z" fill="white"/>
<path d="M41.9655 21.9452C42.5599 21.121 41.6547 19.4524 39.9436 18.2183C38.2324 16.9842 36.3634 16.6519 35.769 17.4761C35.1745 18.3003 36.0798 19.9689 37.7909 21.203C39.502 22.4371 41.3711 22.7694 41.9655 21.9452Z" fill="#212121"/>
<path d="M36.86 18.68C37.0975 18.68 37.29 18.4875 37.29 18.25C37.29 18.0125 37.0975 17.82 36.86 17.82C36.6225 17.82 36.43 18.0125 36.43 18.25C36.43 18.4875 36.6225 18.68 36.86 18.68Z" fill="white"/>
<path d="M32.28 21.65L30.98 20.36C30.78 20.16 30.92 19.82 31.2 19.82L33.83 19.85C34.11 19.85 34.25 20.2 34.04 20.39L32.71 21.65C32.59 21.77 32.39 21.77 32.27 21.65H32.28Z" fill="#212121"/>
<path d="M30.6 22.75C30.31 22.75 30.05 22.7 29.85 22.64C29.66 22.58 29.56 22.38 29.62 22.19C29.68 22 29.88 21.9 30.07 21.96C30.22 22.01 31.54 22.38 32.18 20.95C32.26 20.77 32.47 20.69 32.65 20.77C32.83 20.85 32.91 21.06 32.83 21.24C32.31 22.43 31.36 22.75 30.6 22.75Z" fill="#212121"/>
<path d="M34.4 22.75C33.64 22.75 32.69 22.42 32.17 21.24C32.09 21.06 32.17 20.85 32.35 20.77C32.53 20.69 32.74 20.77 32.82 20.95C33.45 22.39 34.78 22.01 34.93 21.96C35.12 21.9 35.32 22 35.38 22.19C35.44 22.38 35.34 22.58 35.15 22.64C34.95 22.71 34.69 22.75 34.4 22.75Z" fill="#212121"/>
<path d="M32.5 37C14.53 37 9.38 28.43 9.37 28.41C9.04 29.98 8.87 31.6 8.87 33.26C8.87 46.31 19.45 56.89 32.5 56.89C45.55 56.89 56.13 46.31 56.13 33.26C56.13 31.78 55.99 30.33 55.73 28.93C54.17 30.79 47.81 37 32.5 37Z" fill="#FDCECB"/>
<path d="M32.5 57.63C19.06 57.63 8.12 46.69 8.12 33.25C8.12 19.81 19.06 8.88 32.5 8.88C45.94 8.88 56.88 19.82 56.88 33.26C56.88 46.7 45.94 57.64 32.5 57.64V57.63ZM32.5 10.38C19.88 10.38 9.62 20.64 9.62 33.26C9.62 45.88 19.88 56.14 32.5 56.14C45.12 56.14 55.38 45.88 55.38 33.26C55.38 20.64 45.12 10.38 32.5 10.38Z" fill="#212121"/>
<path d="M17.87 35.81C19.2783 35.81 20.42 34.6683 20.42 33.26C20.42 31.8517 19.2783 30.71 17.87 30.71C16.4617 30.71 15.32 31.8517 15.32 33.26C15.32 34.6683 16.4617 35.81 17.87 35.81Z" fill="#212121"/>
<path d="M47.13 35.81C48.5383 35.81 49.68 34.6683 49.68 33.26C49.68 31.8517 48.5383 30.71 47.13 30.71C45.7217 30.71 44.58 31.8517 44.58 33.26C44.58 34.6683 45.7217 35.81 47.13 35.81Z" fill="#212121"/>
</svg>
