<svg width="50" height="50" viewBox="0 0 50 50" fill="none" xmlns="http://www.w3.org/2000/svg">
<rect width="50" height="50" rx="25" fill="#FAFAFA"/>
<path d="M30.1912 30.0788V15H20.5956H11V30.0788H30.1912Z" stroke="#666666" stroke-width="1.3" stroke-linecap="round" stroke-linejoin="round"/>
<path d="M30.1912 18.7932H35.6744L39.7868 22.9056V29.7597H30.1912V18.7932Z" stroke="#666666" stroke-width="1.3" stroke-linecap="round" stroke-linejoin="round"/>
<path d="M16.4832 35.5621C17.9973 35.5621 19.2248 34.3346 19.2248 32.8205C19.2248 31.3063 17.9973 30.0789 16.4832 30.0789C14.969 30.0789 13.7416 31.3063 13.7416 32.8205C13.7416 34.3346 14.969 35.5621 16.4832 35.5621Z" stroke="#666666" stroke-width="1.3" stroke-linecap="round" stroke-linejoin="round"/>
<path d="M31.562 35.5621C33.0762 35.5621 34.3036 34.3346 34.3036 32.8205C34.3036 31.3063 33.0762 30.0789 31.562 30.0789C30.0479 30.0789 28.8204 31.3063 28.8204 32.8205C28.8204 34.3346 30.0479 35.5621 31.562 35.5621Z" stroke="#666666" stroke-width="1.3" stroke-linecap="round" stroke-linejoin="round"/>
</svg>
