<svg width="26" height="26" viewBox="0 0 26 26" fill="none" xmlns="http://www.w3.org/2000/svg">
<path d="M13 7.53545L12.5479 7.97999C12.6065 8.04204 12.6767 8.0914 12.7544 8.12511C12.8321 8.15883 12.9156 8.1762 13 8.1762C13.0844 8.1762 13.1679 8.15883 13.2456 8.12511C13.3233 8.0914 13.3935 8.04204 13.4521 7.97999L13 7.53545ZM8.81479 16.8709C8.68601 16.7627 8.52042 16.7112 8.35447 16.7278C8.18851 16.7443 8.03577 16.8274 7.92986 16.9589C7.82395 17.0904 7.77353 17.2595 7.7897 17.429C7.80587 17.5984 7.88731 17.7544 8.01609 17.8625L8.81479 16.8709ZM4.91423 14.2985C4.95381 14.3724 5.00725 14.4376 5.07151 14.4903C5.13576 14.5431 5.20956 14.5825 5.2887 14.6061C5.36784 14.6298 5.45077 14.6373 5.53276 14.6282C5.61474 14.6191 5.69417 14.5937 5.76651 14.5533C5.83885 14.5128 5.90269 14.4583 5.95438 14.3927C6.00607 14.3271 6.0446 14.2517 6.06777 14.1709C6.09094 14.0901 6.09829 14.0054 6.08941 13.9217C6.08052 13.838 6.05558 13.7568 6.016 13.683L4.91423 14.2985ZM5.25581 10.6447C5.25581 8.80667 6.27302 7.26444 7.66195 6.61558C9.01154 5.98553 10.8249 6.15223 12.5479 7.97999L13.4521 7.09176C11.4093 4.92289 9.03498 4.56469 7.13953 5.44951C5.28595 6.31551 4 8.32622 4 10.6447H5.25581ZM10.0673 19.5039C10.4967 19.8493 10.9572 20.2169 11.4235 20.4956C11.8899 20.7735 12.4223 21 13 21V19.7177C12.7405 19.7177 12.4357 19.6151 12.0573 19.3885C11.678 19.1628 11.2854 18.8517 10.845 18.4969L10.0673 19.5039ZM15.9327 19.5039C17.1266 18.5422 18.6537 17.4411 19.8509 16.0639C21.0707 14.6618 22 12.9238 22 10.6447H20.7442C20.7442 12.5237 19.9907 13.9711 18.9124 15.2124C17.8114 16.4776 16.4242 17.4753 15.155 18.4969L15.9327 19.5039ZM22 10.6447C22 8.32622 20.7149 6.31551 18.8605 5.44951C16.965 4.56469 14.5924 4.92289 12.5479 7.0909L13.4521 7.97999C15.1751 6.15308 16.9885 5.98553 18.338 6.61558C19.727 7.26444 20.7442 8.80582 20.7442 10.6447H22ZM15.155 18.4969C14.7146 18.8517 14.322 19.1628 13.9427 19.3885C13.5643 19.6142 13.2595 19.7177 13 19.7177V21C13.5777 21 14.1101 20.7735 14.5765 20.4956C15.0436 20.2169 15.5033 19.8493 15.9327 19.5039L15.155 18.4969ZM10.845 18.4969C10.1786 17.9609 9.5013 17.4479 8.81479 16.8709L8.01609 17.8625C8.71098 18.4464 9.44605 19.0038 10.0673 19.5039L10.845 18.4969ZM6.016 13.683C5.51167 12.7532 5.2499 11.7075 5.25581 10.6447H4C4 12.045 4.35163 13.2478 4.91423 14.2985L6.016 13.683Z" fill="#AAAAAA"/>
</svg>
