<svg width="32" height="32" viewBox="0 0 32 32" fill="none" xmlns="http://www.w3.org/2000/svg">
<path d="M16 2.66666C13.3629 2.66666 10.785 3.44864 8.59239 4.91373C6.39974 6.37881 4.69077 8.46119 3.6816 10.8975C2.67243 13.3339 2.40839 16.0148 2.92286 18.6012C3.43733 21.1876 4.70721 23.5634 6.57191 25.4281C8.43661 27.2928 10.8124 28.5627 13.3988 29.0771C15.9852 29.5916 18.6661 29.3276 21.1024 28.3184C23.5388 27.3092 25.6212 25.6002 27.0863 23.4076C28.5513 21.2149 29.3333 18.6371 29.3333 16C29.3298 12.4649 27.9239 9.07552 25.4242 6.5758C22.9245 4.07608 19.5351 2.67019 16 2.66666ZM23.9187 12.9507V13.812C23.9187 13.8779 23.9055 13.9432 23.8799 14.0039C23.8543 14.0647 23.8167 14.1196 23.7695 14.1656C23.7223 14.2116 23.6663 14.2477 23.6049 14.2717C23.5435 14.2957 23.4779 14.3071 23.412 14.3053C22.0043 14.2055 20.6575 13.6915 19.5413 12.828V19.132C19.5412 19.8297 19.4019 20.5204 19.1318 21.1637C18.8617 21.807 18.466 22.39 17.968 22.8787C17.4655 23.3795 16.8684 23.7754 16.2114 24.0432C15.5545 24.311 14.8508 24.4454 14.1413 24.4387C12.7146 24.4362 11.3452 23.8764 10.3253 22.8787C9.67652 22.2245 9.20919 21.4127 8.96932 20.5232C8.72946 19.6336 8.72532 18.697 8.95733 17.8053C9.16933 16.9493 9.59733 16.1627 10.2013 15.5213C10.6518 14.9708 11.2196 14.5279 11.8632 14.225C12.5068 13.9221 13.21 13.7668 13.9213 13.7707H15.0147V16.0413C15.0151 16.1073 15.0016 16.1726 14.9748 16.2328C14.9481 16.2931 14.9088 16.347 14.8596 16.3909C14.8104 16.4348 14.7524 16.4677 14.6895 16.4875C14.6265 16.5072 14.5601 16.5133 14.4947 16.5053C13.8598 16.3146 13.1758 16.3779 12.5867 16.6817C11.9976 16.9856 11.5495 17.5063 11.3369 18.1341C11.1242 18.7618 11.1636 19.4477 11.4467 20.047C11.7299 20.6463 12.2347 21.1123 12.8547 21.3467C13.2147 21.5533 13.6173 21.6747 14.0307 21.7027C14.3507 21.716 14.6707 21.676 14.9747 21.58C15.4824 21.4091 15.924 21.0839 16.2379 20.6498C16.5518 20.2157 16.7222 19.6943 16.7253 19.1587V7.67199C16.7252 7.60902 16.7374 7.54663 16.7614 7.4884C16.7854 7.43017 16.8206 7.37725 16.8651 7.33266C16.9095 7.28807 16.9623 7.25269 17.0205 7.22855C17.0787 7.20441 17.141 7.19199 17.204 7.19199H19.0907C19.2133 7.19182 19.3314 7.23876 19.4205 7.32312C19.5096 7.40747 19.5628 7.52281 19.5693 7.64532C19.6383 8.23357 19.8253 8.80185 20.119 9.31617C20.4127 9.8305 20.8071 10.2803 21.2787 10.6387C21.9161 11.1172 22.6732 11.4106 23.4667 11.4867C23.5855 11.4968 23.6966 11.5497 23.7795 11.6355C23.8623 11.7213 23.9113 11.8342 23.9173 11.9533L23.9187 12.9507Z" fill="#E6E6E6"/>
</svg>
