<svg width="48" height="48" viewBox="0 0 48 48" fill="none" xmlns="http://www.w3.org/2000/svg">
<path d="M17.2267 37.083C18.8571 37.6483 20.5198 38.1157 22.206 38.4825C23.481 38.7885 25.23 39.21 26.2972 39.603C26.2677 39.7866 26.2276 39.9684 26.1772 40.1475C26.0784 40.3948 26.0292 40.6591 26.0326 40.9253C26.0359 41.1916 26.0916 41.4546 26.1965 41.6993C26.3015 41.9441 26.4536 42.1657 26.6442 42.3517C26.8349 42.5376 27.0602 42.6842 27.3075 42.783C27.5548 42.8818 27.8191 42.931 28.0853 42.9277C28.3516 42.9244 28.6146 42.8687 28.8593 42.7637C29.1041 42.6588 29.3257 42.5066 29.5117 42.316C29.6976 42.1254 29.8442 41.9 29.943 41.6528C30.3942 40.2578 30.5832 38.7913 30.5002 37.3275C30.9195 37.3895 31.3425 37.4224 31.7662 37.4258C32.6609 37.4312 33.5495 37.2788 34.3912 36.9758C35.6277 36.5407 36.6966 35.7289 37.4476 34.6547C38.1986 33.5804 38.5939 32.2977 38.5777 30.987C38.5663 30.7211 38.5025 30.46 38.3902 30.2187C38.2778 29.9774 38.119 29.7606 37.9229 29.5807C37.7267 29.4008 37.497 29.2613 37.247 29.1701C36.9969 29.0789 36.7313 29.0379 36.4654 29.0494C36.1994 29.0609 35.9384 29.1246 35.6971 29.237C35.4558 29.3493 35.239 29.5081 35.0591 29.7043C34.8791 29.9004 34.7396 30.1301 34.6485 30.3802C34.5573 30.6302 34.5163 30.8958 34.5277 31.1618C34.5154 31.614 34.3612 32.0509 34.0871 32.4107C33.813 32.7706 33.4327 33.0352 33 33.1673C31.8194 33.4754 30.5694 33.3769 29.4517 32.8875C29.3422 32.6835 29.2267 32.4773 29.1015 32.271C30.7106 31.4995 32.139 30.3972 33.2932 29.0363C35.868 26.0948 38.793 21.1793 39.2842 16.2068C39.3104 15.9419 39.2841 15.6744 39.2069 15.4197C39.1297 15.1649 39.0031 14.9279 38.8342 14.7221C38.4933 14.3065 38.0012 14.0433 37.4662 13.9905C36.9313 13.9377 36.3972 14.0996 35.9816 14.4405C35.566 14.7814 35.3028 15.2735 35.25 15.8085C35.0271 17.6544 34.4906 19.4487 33.6637 21.114C33.4305 20.9018 33.204 20.6918 33.0097 20.499C32.2712 19.8088 31.7279 18.9359 31.4347 17.9685C31.3289 17.4414 31.018 16.9779 30.5705 16.68C30.1229 16.3821 29.5754 16.2742 29.0482 16.38C28.5211 16.4858 28.0576 16.7967 27.7597 17.2443C27.4618 17.6918 27.3539 18.2394 27.4597 18.7665C27.8999 20.5291 28.833 22.1298 30.15 23.3813C30.567 23.7945 31.0822 24.2595 31.5592 24.6758C31.113 25.3043 30.6645 25.8758 30.2362 26.3655C29.3284 27.4746 28.1445 28.3249 26.8035 28.8308C25.818 27.399 24.8452 25.9013 24.6405 24.9015C24.3345 23.4015 24.6315 18.2873 24.8085 15.2265C24.8655 14.2448 24.9172 13.3515 24.9502 12.6233C25.1183 10.3302 24.6237 8.03713 23.5252 6.01726C23.2434 5.56589 22.7947 5.24419 22.2767 5.12225C21.7587 5.00031 21.2136 5.08801 20.76 5.36626C20.3039 5.64576 19.9759 6.09335 19.8468 6.61248C19.7177 7.13162 19.7979 7.68069 20.07 8.14126C20.7281 9.47322 21.0132 10.9585 20.895 12.4395C20.8777 12.8183 20.8552 13.2473 20.829 13.7078C18.2302 14.3175 16.7587 12.1088 16.4595 11.6003C16.1933 11.1328 15.7522 10.7903 15.2334 10.648C14.7146 10.5057 14.1606 10.5754 13.6931 10.8416C13.2257 11.1079 12.8831 11.5489 12.7409 12.0677C12.5986 12.5865 12.6683 13.1406 12.9345 13.608C13.9282 15.3668 16.4107 17.9033 19.9147 17.9033C20.1397 17.9033 20.3647 17.8838 20.5965 17.8628C20.4157 21.4298 20.358 24.2243 20.6617 25.713C21.0682 27.6945 22.5367 29.805 23.955 31.8465C24.7525 32.9316 25.4723 34.0717 26.109 35.2583C26.1142 35.2703 26.118 35.2823 26.1232 35.2935C25.2105 35.0333 24.2055 34.791 23.1457 34.5368C21.633 34.2076 20.1403 33.7921 18.675 33.2925C18.0667 33.0608 17.5027 32.8125 16.9687 32.559C17.3517 32.1356 17.6608 31.6509 17.883 31.125C18.5537 29.6664 18.885 28.0748 18.852 26.4698C18.812 25.9401 18.5643 25.4477 18.1627 25.0999C17.7612 24.7522 17.2384 24.5774 16.7085 24.6135C16.1755 24.6489 15.6776 24.8918 15.3217 25.2902C14.9658 25.6886 14.7803 26.2106 14.805 26.7443C14.7808 27.7066 14.5597 28.6538 14.1555 29.5275C14.0628 29.717 13.9211 29.8782 13.745 29.9944C13.5689 30.1106 13.3649 30.1776 13.1542 30.1883C13.047 30.0953 12.9397 30.003 12.8542 29.919C12.2788 29.3685 11.8509 28.6822 11.6099 27.9231C11.3689 27.1641 11.3225 26.3567 11.475 25.575C11.5431 25.3175 11.5598 25.0491 11.5242 24.7851C11.4886 24.5212 11.4013 24.2668 11.2674 24.0366C11.1335 23.8063 10.9555 23.6047 10.7437 23.4432C10.5318 23.2818 10.2903 23.1636 10.0327 23.0955C9.77524 23.0274 9.50684 23.0107 9.24287 23.0463C8.97891 23.0819 8.72454 23.1692 8.4943 23.3031C8.26405 23.437 8.06244 23.615 7.90098 23.8268C7.73951 24.0387 7.62135 24.2803 7.55325 24.5378C7.22061 26.0166 7.27427 27.5562 7.70906 29.0084C8.14385 30.4605 8.94512 31.7763 10.0357 32.829" stroke="#137999" stroke-width="1.5" stroke-linecap="round" stroke-linejoin="round"/>
<circle cx="12" cy="37" r="2" stroke="#137999" stroke-width="1.5"/>
<circle cx="33" cy="10" r="2" stroke="#137999" stroke-width="1.5"/>
</svg>
