<svg width="65" height="65" viewBox="0 0 65 65" fill="none" xmlns="http://www.w3.org/2000/svg">
<circle cx="19.1556" cy="18.0967" r="1.15556" fill="white"/>
<circle cx="32.2222" cy="32.9411" r="24" fill="#FDCECB" stroke="#212121" stroke-width="1.77778"/>
<path d="M39.0371 23.7856C38.0246 22.6294 37.4665 21.1447 37.4667 19.6078H32.8889V37.9782C32.8543 38.9726 32.4349 39.9146 31.719 40.6056C31.0031 41.2966 30.0468 41.6825 29.0519 41.6819C26.9482 41.6819 25.2 39.9634 25.2 37.8301C25.2 35.2819 27.6593 33.3708 30.1926 34.156V29.4745C25.0815 28.793 20.6074 32.7634 20.6074 37.8301C20.6074 42.7634 24.6963 46.2745 29.0371 46.2745C33.6889 46.2745 37.4667 42.4967 37.4667 37.8301V28.5116C39.323 29.8447 41.5517 30.5599 43.8371 30.556V25.9782C43.8371 25.9782 41.0519 26.1116 39.0371 23.7856Z" fill="white"/>
</svg>
