<svg width="65" height="20" viewBox="0 0 65 20" fill="none" xmlns="http://www.w3.org/2000/svg">
<path d="M63.966 6.25347L62.011 5.12747L60.028 3.98447C58.717 3.22747 57.079 4.17747 57.079 5.70247V5.95847C57.079 6.10047 57.152 6.23147 57.277 6.29947L58.198 6.82847C58.452 6.97647 58.769 6.78847 58.769 6.49247V5.88347C58.769 5.58247 59.091 5.39447 59.351 5.54247L61.159 6.58947L62.961 7.63047C63.221 7.77847 63.221 8.15947 62.961 8.30747L61.159 9.34847L59.351 10.3955C59.091 10.5435 58.769 10.3555 58.769 10.0545V9.75347C58.769 8.22947 57.131 7.27347 55.82 8.03547L53.837 9.17847L51.882 10.3045C50.566 11.0665 50.566 12.9835 51.882 13.7465L53.837 14.8725L55.82 16.0155C57.131 16.7725 58.769 15.8225 58.769 14.2975V14.0415C58.769 13.8995 58.696 13.7685 58.571 13.7005L57.65 13.1715C57.396 13.0235 57.079 13.2115 57.079 13.5075V14.1165C57.079 14.4175 56.757 14.6055 56.497 14.4575L54.689 13.4105L52.887 12.3695C52.627 12.2215 52.627 11.8405 52.887 11.6925L54.689 10.6515L56.497 9.60447C56.757 9.45647 57.079 9.64447 57.079 9.94547V10.2465C57.079 11.7705 58.717 12.7265 60.028 11.9645L62.011 10.8215L63.966 9.69547C65.282 8.92747 65.282 7.01647 63.966 6.25347Z" fill="black"/>
<path d="M51.1386 6.62842L46.5626 16.1454H44.6646L46.3766 12.5904L43.6816 6.62942H45.6306L47.3596 10.6224L49.2466 6.62942L51.1386 6.62842Z" fill="black"/>
<path d="M5.38487 10.0083C5.38487 8.87025 4.56588 8.07425 3.55988 8.07425C2.55387 8.07425 1.73487 8.88725 1.73487 10.0083C1.73487 11.1173 2.55387 11.9423 3.55988 11.9423C4.56588 11.9423 5.38487 11.1463 5.38487 10.0083ZM5.40188 13.3873V12.5113C4.90488 13.1203 4.16487 13.4953 3.28387 13.4953C1.44187 13.4953 0.046875 12.0103 0.046875 10.0083C0.046875 8.02325 1.49887 6.51025 3.32387 6.51025C4.18287 6.51025 4.90587 6.89125 5.40287 7.48325V6.63025H7.05188V13.3883H5.40287L5.40188 13.3873Z" fill="black"/>
<path d="M15.0739 11.8853C14.4979 11.8853 14.3339 11.6693 14.3339 11.1003V8.10226H15.3959V6.62926H14.3339V4.97926H12.6449V6.62926H10.4639V5.95826C10.4639 5.38926 10.6789 5.17326 11.2719 5.17326H11.6449V3.86426H10.8319C9.43689 3.86426 8.77589 4.32526 8.77589 5.73026V6.63526H7.83789V8.10326H8.77589V13.3883H10.4649V8.10326H12.6459V11.4143C12.6459 12.7913 13.1709 13.3883 14.5389 13.3883H15.4089V11.8863H15.0759L15.0739 11.8853Z" fill="black"/>
<path d="M21.1398 9.40039C21.0208 8.52439 20.3098 7.99539 19.4738 7.99539C18.6438 7.99539 17.9538 8.50739 17.7848 9.40039H21.1398ZM17.7668 10.4524C17.8858 11.4534 18.5968 12.0224 19.5008 12.0224C20.2128 12.0224 20.7608 11.6864 21.0828 11.1464H22.8168C22.4158 12.5794 21.1388 13.4954 19.4608 13.4954C17.4328 13.4954 16.0088 12.0614 16.0088 10.0194C16.0088 7.97739 17.5118 6.50439 19.4998 6.50439C21.4998 6.50439 22.9518 7.98939 22.9518 10.0194C22.9518 10.1674 22.9408 10.3154 22.9128 10.4514H17.7668V10.4524Z" fill="black"/>
<path d="M33.71 10.0084C33.71 8.91637 32.891 8.07437 31.885 8.07437C30.879 8.07437 30.06 8.88737 30.06 10.0084C30.06 11.1174 30.879 11.9424 31.885 11.9424C32.891 11.9424 33.71 11.1064 33.71 10.0084ZM28.394 16.1464V6.63037H30.044V7.50637C30.541 6.88637 31.281 6.50537 32.162 6.50537C33.975 6.50537 35.399 8.00737 35.399 9.99237C35.399 11.9774 33.947 13.4904 32.122 13.4904C31.275 13.4904 30.58 13.1544 30.094 12.5854V16.1404H28.394V16.1464Z" fill="black"/>
<path d="M41.3487 10.0083C41.3487 8.87025 40.5297 8.07425 39.5237 8.07425C38.5177 8.07425 37.6987 8.88725 37.6987 10.0083C37.6987 11.1173 38.5177 11.9423 39.5237 11.9423C40.5297 11.9423 41.3487 11.1463 41.3487 10.0083ZM41.3657 13.3873V12.5113C40.8687 13.1203 40.1287 13.4953 39.2477 13.4953C37.4057 13.4953 36.0107 12.0103 36.0107 10.0083C36.0107 8.02325 37.4627 6.51025 39.2877 6.51025C40.1467 6.51025 40.8697 6.89125 41.3667 7.48325V6.63025H43.0167V13.3883H41.3667L41.3657 13.3873Z" fill="black"/>
<path d="M25.4177 7.28939C25.4177 7.28939 25.8357 6.50439 26.8697 6.50439C27.3107 6.50439 27.5927 6.65839 27.5927 6.65839V8.38239C27.5927 8.38239 26.9717 7.99539 26.4007 8.07539C25.8297 8.15539 25.4687 8.67839 25.4687 9.38339V13.3824H23.7627V6.63039H25.4117V7.29039L25.4177 7.28939Z" fill="black"/>
</svg>
