<svg width="187" height="22" viewBox="0 0 187 22" fill="none" xmlns="http://www.w3.org/2000/svg">
<g clip-path="url(#clip0_3584_17475)">
<g clip-path="url(#clip1_3584_17475)">
<g clip-path="url(#clip2_3584_17475)">
<path d="M0 4.67843H6.64473V21.6366H11.2672V4.67843H17.9093V0.366913H0V4.67843Z" fill="black"/>
<path d="M62.6828 13.4605L52.8294 0.366913H48.5644V21.6366H53.1298V8.11662L63.3107 21.6366H67.2464V0.366913H62.6828V13.4605Z" fill="black"/>
<path d="M82.646 8.43201L77.631 0.366913H72.2253L80.3032 12.7773V21.6366H84.9273V12.6858L93.0104 0.366913H87.754L82.646 8.43201Z" fill="black"/>
<path d="M108.803 8.05532L103.275 0.366913H98.2897V21.6366H102.828V7.84032L108.803 15.5314L114.717 7.75059V21.6366H119.313V0.366913H114.329L108.803 8.05532Z" fill="black"/>
<path d="M181.747 0.366913L176.637 8.43201L171.624 0.366913H166.218L174.296 12.7773V21.6366H178.922V12.6858L187 0.366913H181.747Z" fill="black"/>
<path d="M156.131 0.366913H151.505V21.6366H166.609V17.3802H156.131V0.366913Z" fill="black"/>
<path d="M135.426 0C129.418 0 124.554 4.92719 124.554 11.0004C124.554 17.0746 129.418 22 135.426 22C141.429 22 146.298 17.0746 146.298 11.0004C146.298 4.92719 141.429 0 135.426 0ZM135.426 17.207C132.041 17.207 129.288 14.4253 129.288 11.0004C129.288 7.57735 132.041 4.79126 135.426 4.79126C138.811 4.79126 141.563 7.57824 141.563 11.0004C141.563 14.4253 138.81 17.207 135.426 17.207Z" fill="black"/>
<path d="M32.1629 0C26.1583 0 21.2909 4.92719 21.2909 11.0004C21.2909 17.0746 26.1583 22 32.1629 22C38.1675 22 43.0331 17.0746 43.0331 11.0004C43.0331 4.92719 38.1675 0 32.1629 0ZM32.1638 17.207C28.7777 17.207 26.0248 14.4253 26.0248 11.0004C26.0248 7.57735 28.7777 4.79126 32.1638 4.79126C35.548 4.79126 38.2983 7.57824 38.2983 11.0004C38.2992 14.4253 35.548 17.207 32.1638 17.207Z" fill="black"/>
</g>
</g>
</g>
<defs>
<clipPath id="clip0_3584_17475">
<rect width="187" height="22" fill="white"/>
</clipPath>
<clipPath id="clip1_3584_17475">
<rect width="187" height="22" fill="white"/>
</clipPath>
<clipPath id="clip2_3584_17475">
<rect width="187" height="22" fill="white"/>
</clipPath>
</defs>
</svg>
