<svg width="153" height="18" viewBox="0 0 153 18" fill="none" xmlns="http://www.w3.org/2000/svg">
<g clip-path="url(#clip0_3584_17488)">
<g clip-path="url(#clip1_3584_17488)">
<path d="M0 3.8278H5.4366V17.7027H9.21858V3.8278H14.653V0.300201H0V3.8278Z" fill="white"/>
<path d="M51.2859 11.0131L43.2241 0.300201H39.7345V17.7027H43.4698V6.64087L51.7996 17.7027H55.0198V0.300201H51.2859V11.0131Z" fill="white"/>
<path d="M67.6194 6.89892L63.5163 0.300201H59.0935L65.7026 10.4541V17.7027H69.486V10.3793L76.0994 0.300201H71.7987L67.6194 6.89892Z" fill="white"/>
<path d="M89.0203 6.59072L84.4976 0.300201H80.4188V17.7027H84.1319V6.41481L89.0203 12.7075L93.8591 6.34139V17.7027H97.6195V0.300201H93.5416L89.0203 6.59072Z" fill="white"/>
<path d="M148.702 0.300201L144.521 6.89892L140.42 0.300201H135.997L142.606 10.4541V17.7027H146.391V10.3793L153 0.300201H148.702Z" fill="white"/>
<path d="M127.743 0.300201H123.958V17.7027H136.317V14.2202H127.743V0.300201Z" fill="white"/>
<path d="M110.803 0C105.888 0 101.908 4.03134 101.908 9.00036C101.908 13.9701 105.888 18 110.803 18C115.715 18 119.699 13.9701 119.699 9.00036C119.699 4.03134 115.715 0 110.803 0ZM110.803 14.0784C108.034 14.0784 105.781 11.8025 105.781 9.00036C105.781 6.19965 108.034 3.92012 110.803 3.92012C113.572 3.92012 115.824 6.20038 115.824 9.00036C115.824 11.8025 113.572 14.0784 110.803 14.0784Z" fill="white"/>
<path d="M26.3151 0C21.4023 0 17.4198 4.03134 17.4198 9.00036C17.4198 13.9701 21.4023 18 26.3151 18C31.2279 18 35.2089 13.9701 35.2089 9.00036C35.2089 4.03134 31.2279 0 26.3151 0ZM26.3158 14.0784C23.5454 14.0784 21.293 11.8025 21.293 9.00036C21.293 6.19965 23.5454 3.92012 26.3158 3.92012C29.0848 3.92012 31.335 6.20038 31.335 9.00036C31.3357 11.8025 29.0848 14.0784 26.3158 14.0784Z" fill="white"/>
</g>
</g>
<defs>
<clipPath id="clip0_3584_17488">
<rect width="153" height="18" fill="white"/>
</clipPath>
<clipPath id="clip1_3584_17488">
<rect width="153" height="18" fill="white"/>
</clipPath>
</defs>
</svg>
